<svg width="26" height="23" viewBox="0 0 28 30" fill="none" xmlns="http://www.w3.org/2000/svg">
    <g clip-path="url(#clip0_367_1285)">
        <path d="M26.2844 3.625H2.71875C1.21724 3.625 0 4.84218 0 6.34375V22.6563C0 24.1578 1.21724 25.375 2.71875 25.375H26.2844C27.7859 25.375 29.0031 24.1578 29.0031 22.6563V6.34375C29.0031 4.84218 27.7859 3.625 26.2844 3.625ZM28.0969 22.2533L19.5242 13.6808L28.0969 8.21806V22.2533ZM2.71875 4.53125H26.2844C27.2838 4.53125 28.0969 5.34429 28.0969 6.34375V7.14415L15.6198 15.0951C14.9445 15.5253 14.0821 15.512 13.4223 15.0633L0.90625 6.55649V6.34375C0.90625 5.34429 1.71938 4.53125 2.71875 4.53125ZM0.90625 7.65111L9.59977 13.5598L0.90625 22.2533V7.65111ZM26.2844 24.4688H2.71875C1.97227 24.4688 1.33042 24.0147 1.05302 23.3686L10.3511 14.0705L12.9134 15.812C13.4055 16.1466 13.9746 16.3143 14.5445 16.3143C15.0861 16.3143 15.6286 16.1629 16.1061 15.8589L18.7534 14.1719L27.9501 23.3686C27.6727 24.0147 27.0309 24.4688 26.2844 24.4688Z" fill="#494949"/>
    </g>
    <defs>
        <clipPath id="clip0_367_1285">
            <rect width="29" height="29" fill="white"/>
        </clipPath>
    </defs>
</svg>