<svg width="26" height="23" viewBox="0 0 30 30" fill="#494949" xmlns="http://www.w3.org/2000/svg">
    <path d="M29.3272 23.6746L24.6943 19.0411C23.7716 18.1221 22.2432 18.1503 21.2883 19.1052L18.9544 21.4392C18.807 21.3576 18.6544 21.2727 18.4938 21.1827C17.02 20.366 15.0025 19.2467 12.8795 17.1221C10.7505 14.9933 9.6297 12.9726 8.81081 11.4977C8.72389 11.3414 8.64126 11.1909 8.55967 11.0479L10.1262 9.48339L10.8962 8.71233C11.8528 7.75572 11.8793 6.22782 10.9583 5.30632L6.32527 0.672267C5.4048 -0.248204 3.87587 -0.220217 2.91926 0.736387L1.61348 2.04957L1.64947 2.08511C1.21174 2.64367 0.845535 3.28812 0.573658 3.98292C0.322513 4.64425 0.166139 5.27552 0.0946162 5.90767C-0.516959 10.9794 1.80051 15.6144 8.0901 21.9046C16.7841 30.598 23.7907 29.9414 24.0928 29.9091C24.7516 29.8306 25.3821 29.6732 26.0235 29.4241C26.7123 29.1549 27.3563 28.7897 27.9143 28.3531L27.9429 28.3779L29.2657 27.0827C30.2202 26.1262 30.2478 24.5983 29.3272 23.6746ZM28.2365 26.0526L27.6535 26.6346L27.4213 26.8577C27.0557 27.2112 26.4228 27.7077 25.4987 28.0692C24.974 28.2712 24.4568 28.4009 23.9305 28.4635C23.8643 28.4699 17.2742 29.0322 9.11808 20.8766C2.18315 13.942 1.0718 9.94599 1.53767 6.07575C1.59601 5.56279 1.72469 5.04658 1.93038 4.50712C2.29495 3.57762 2.79102 2.94531 3.14183 2.57911L3.94783 1.76511C4.33625 1.37565 4.94205 1.34589 5.29715 1.70099L9.93001 6.33385C10.2845 6.68939 10.2565 7.29519 9.86752 7.68583L6.73872 10.8115L7.02748 11.2975C7.18799 11.5684 7.3577 11.8719 7.53895 12.2017C8.39959 13.7539 9.57713 15.8786 11.8512 18.1506C14.1194 20.4199 16.2409 21.5964 17.7884 22.4548C18.1227 22.6398 18.4281 22.8099 18.702 22.9731L19.1891 23.2619L22.3158 20.1341C22.7059 19.7457 23.3137 19.717 23.6688 20.071L28.2996 24.7029C28.6537 25.0578 28.6255 25.6636 28.2365 26.0526Z" fill="#494949"/>
</svg>