<svg width="479" height="400" viewBox="0 0 479 525" fill="none" xmlns="http://www.w3.org/2000/svg">
    <ellipse cx="290.5" cy="500.5" rx="188.5" ry="24.5" fill="#F5F5F5"/>
    <path d="M271.916 353.38L253 514.5H259.5L287.072 350.538L271.916 353.38Z" fill="#949494" stroke="#949494" stroke-width="2"/>
    <path d="M347.696 335.382L386.5 506H394L360.958 335.382H347.696Z" fill="#949494" stroke="#949494" stroke-width="2"/>
    <path d="M228.342 350.538L190.5 488.5H196L239.709 352.433L228.342 350.538Z" fill="#949494" stroke="#949494" stroke-width="2"/>
    <path d="M237 357L216 423L194.5 489.5H197L239.5 357H237Z" fill="#747373"/>
    <path d="M284.5 358L273 428L258.5 515.5H260.5L287 358H284.5Z" fill="#747373"/>
    <path d="M362.5 345L375 413L384 460L393.5 507H395.5L364 345H362.5Z" fill="#747373"/>
    <path d="M328.359 76.7896C344.512 66.1951 355.914 58.7825 376.121 58.7827C394.27 58.7829 410.105 61.3584 422.046 72.5026C435.795 85.3349 440.293 95.1911 445.008 112.798C451.438 136.807 449.955 151.936 449.601 177.102C449.082 213.972 444.505 231.764 437.66 266.271C433.068 289.422 428.46 302.663 411.942 319.429C395.425 336.196 380.976 341.217 357.751 347.723C330.196 355.441 315.526 356.96 287.945 358.869C263.146 360.585 250.635 360.631 228.243 357.156C214.477 355.019 209.994 352.926 198.88 347.736L198.851 347.723C187.715 342.523 172.214 323.716 172.214 323.716L155.681 289.42C149.225 276.027 169.875 263.311 180.481 247.408C193.791 227.45 201.237 215.967 218.139 198.537C234.851 181.303 249.853 176.873 265.901 159.097C283.423 139.689 278.302 121.609 296.212 102.511C306.241 91.8165 315.9 84.9612 328.359 76.7896Z" fill="#C1BEBC"/>
    <path d="M34.154 416.291C34.154 416.291 22.7869 410.605 18.0506 407.765C14.7013 405.757 11.4198 404.922 7.6308 405.868C3.84177 406.814 1 410.034 1 413.449C1 414.395 19.9451 424.816 19.9451 424.816L43.6266 439.023C43.6266 439.023 55.688 447.36 57.8354 440.918C59.73 435.234 56.8882 424.816 56.8882 424.816L34.154 416.291Z" fill="black" stroke="black"/>
    <path d="M73.4676 484.997C73.4676 484.997 61.2485 481.5 56.0706 479.58C52.4089 478.222 49.0299 478.005 45.4796 479.632C41.9293 481.259 39.7284 484.946 40.3568 488.304C40.5307 489.233 61.0698 495.991 61.0698 495.991L86.9609 505.599C86.9609 505.599 100.35 511.574 101.276 504.847C102.092 498.912 97.3822 489.194 97.3822 489.194L73.4676 484.997Z" fill="black" stroke="black"/>
    <path d="M306.017 41.7321C306.017 41.7321 293.558 38.3374 288.966 32.2595C284.801 26.7453 283.205 22.0433 284.23 15.2089C285.19 8.80934 292.756 1 292.756 1C292.756 1 296.243 8.08294 300.334 10.4726C305.454 13.464 315.49 7.6308 317.384 6.68354C320.439 5.15614 324.962 2.89451 332.54 5.73629C340.118 8.57806 343.987 11.4999 346.749 14.2616C348.644 16.1561 351.485 19.9451 354.327 24.6814C356.764 28.7438 358.839 31.4899 361.905 35.1013C365.464 39.2935 369.454 42.2636 371.378 47.4156C373.189 52.2675 372.134 56.7336 370.43 61.6245C369.283 64.9202 366.926 66.7043 363.8 68.2553C361.149 69.5705 358.576 70.0488 356.222 68.2553C353.795 66.4065 354.327 60.6772 354.327 60.6772L359.064 54.0464L351.485 45.5211L342.013 30.365L328.751 20.8924L315.49 23.7342L306.017 41.7321Z" fill="#121639" stroke="#121639"/>
    <path d="M113.724 408.321C134.747 366.11 166.77 294.65 166.77 294.65L338.224 306.964C345.161 303.7 337.069 316.051 328.751 322.12C324.342 325.337 318.771 327.439 315.489 328.751C302.929 333.775 285.736 335.683 274.757 336.329C228.383 339.057 207.502 338.224 207.502 338.224C207.502 338.224 203.713 350.538 195.188 366.641C192.179 372.325 191.125 376.057 178.137 396.006C165.597 415.267 152.561 431.055 137.405 449.053C123.721 465.303 99.5147 492.627 99.5147 492.627C99.5147 492.627 95.7256 496.574 86.2531 492.627C74.886 487.89 74.886 484.101 74.886 484.101C74.886 484.101 79.9561 473.574 85.3058 464.209C97.4511 442.948 102.807 430.238 113.724 408.321Z" fill="#00254D" stroke="#00254D"/>
    <path d="M181.926 240.657L234.973 245.393L342.013 277.6L351.485 294.65C351.485 294.65 344.182 307.507 338.5 314C331.5 322 325.5 327 315 330C297.571 334.98 285.247 330.214 267.179 328.752C244.687 326.932 232.346 323.343 210.344 318.332C192.059 314.167 163.928 306.017 163.928 306.017C163.928 306.017 161.234 309.534 157.297 314.542C155.006 317.457 151.852 321.504 149.719 324.015C139.052 336.579 131.601 342.28 120.354 354.328C107.482 368.116 100.096 375.727 88.1476 390.323C75.5881 405.667 58.7827 430.108 58.7827 430.108C58.7827 430.108 51.2046 431.055 42.6793 426.319C34.154 421.582 35.1011 416.846 35.1011 416.846L48.3627 396.006L71.0969 355.274L91.9366 316.437C91.9366 316.437 104.268 290.339 112.776 276.652C121.285 262.965 128.484 246.396 149.719 240.657C161.861 237.375 181.926 240.657 181.926 240.657Z" fill="#00254D"/>
    <path d="M359.383 115.881C359.383 115.881 379.122 123.507 390.57 130.598C398.795 135.692 402.637 139.871 406.426 144.036C412.11 150.283 416.846 155.403 419.159 162.034C423.968 175.822 421.284 186.248 420.635 201.819C419.769 222.595 416.598 237.814 414.952 248.234C412.353 264.682 409.421 279.686 405.479 287.072C401.537 294.457 398.848 298.439 395.059 301.281C392.299 303.351 388.481 304.122 383.692 304.122C377.552 304.122 370.43 304.122 360.25 299.407C357.762 298.254 331.661 286.421 322.131 282.093C312.179 277.573 306.265 275.827 296.141 271.705C283.923 266.729 277.17 263.702 264.954 258.719C253.146 253.903 251.959 253.525 251.959 253.525L238.098 248.331L243.296 238.808L208.643 230.152L187.851 201.584L190.451 190.33C190.451 190.33 186.119 177.354 182.654 166.965C180.172 159.526 178.663 153.47 179.188 149.652C179.713 145.833 176.621 143.939 180.032 142.141C183.093 140.528 184.386 139.312 187.851 137.523C195.786 133.425 200.489 130.787 208.643 127.144C218.741 122.632 223.45 119.871 233.766 115.881C243.445 112.138 254.865 106.146 264.954 102.895C272.788 100.37 279.248 98.7245 287.478 98.5759C296.711 98.4091 302.74 100.809 311.735 102.895C322.157 105.311 329.928 108.089 329.928 108.089L359.383 115.881Z" fill="#243EE9"/>
    <path d="M171 125L194 150L171 130V125Z" fill="#EEECE6" stroke="white" stroke-width="0.5"/>
    <path d="M180 124V136.5L193.456 150.414L180 124Z" fill="#EEECE6"/>
    <path d="M246 148.5L192 149.5L246 163V148.5Z" fill="#EEECE6"/>
    <path d="M167 125L193 149V241L167 209.137V125Z" fill="#DC3745"/>
    <path d="M193 149L248.5 158L247 251.5L193 241V149Z" fill="#E83A49"/>
    <path d="M305.183 27.751C302.818 34.8486 303.868 39.2384 303.288 46.6972C302.658 54.8111 303.076 59.4012 303.288 67.5369C303.482 74.9421 303.289 79.8502 304.236 86.481C304.821 90.5753 305.757 93.3523 308.972 95.9546C311.698 98.1616 314.006 98.4143 317.492 98.7958L317.497 98.7964C321.971 99.286 329 97 329 97V115.588C329 115.588 327.804 125.091 335.495 125.319C336.834 125.358 342.126 125.319 348.757 122.477C352.546 120.853 355.388 117.742 355.388 117.742V100.691V86.482V67.5369V62.8006C355.388 62.8006 358.76 61.5424 360.124 59.9556C361.33 58.5529 362.328 56.9555 362.966 55.2193C363.314 54.272 363.668 50.9395 362.966 49.5357C362.264 48.1319 362.018 46.6939 360.124 45.7467C358.437 44.9032 357.042 44.8027 355.388 44.8027C353.733 44.8027 351.599 46.6972 351.599 46.6972C351.599 46.6972 350.906 40.8004 349.704 37.2246C348.386 33.3044 347.46 31.0527 344.968 27.752C342.283 24.1972 340.288 22.423 336.442 20.174C332.403 17.8115 329.708 16.0951 325.075 15.4333C321.413 14.9102 319.15 15.3313 315.603 16.3822C312.743 17.2295 310.867 18.2784 308.972 20.174C306.558 22.589 306.13 24.9082 305.183 27.751Z" fill="#E09A63"/>
    <path d="M355.388 117.742C355.388 117.742 352.546 120.853 348.757 122.477C342.126 125.319 336.834 125.358 335.495 125.319C327.804 125.091 329 115.588 329 115.588V97C329 97 321.971 99.286 317.497 98.7964L317.492 98.7958C314.006 98.4143 311.698 98.1616 308.972 95.9546C305.757 93.3523 304.821 90.5753 304.236 86.481C303.289 79.8502 303.482 74.9421 303.288 67.5369C303.076 59.4012 302.658 54.8111 303.288 46.6972C303.868 39.2384 302.818 34.8486 305.183 27.751C306.13 24.9082 306.558 22.589 308.972 20.174C310.867 18.2784 312.743 17.2295 315.603 16.3822C319.15 15.3313 321.413 14.9102 325.075 15.4333C329.708 16.0951 332.403 17.8115 336.442 20.174C340.288 22.423 342.283 24.1972 344.968 27.752C347.46 31.0527 348.386 33.3044 349.704 37.2246C350.906 40.8004 351.599 46.6972 351.599 46.6972C351.599 46.6972 353.733 44.8027 355.388 44.8027C357.042 44.8027 358.437 44.9032 360.124 45.7467C362.018 46.6939 362.264 48.1319 362.966 49.5357C363.668 50.9395 363.314 54.272 362.966 55.2193C362.328 56.9555 361.33 58.5529 360.124 59.9556C358.76 61.5424 355.388 62.8006 355.388 62.8006M355.388 117.742C355.388 117.742 355.388 107.35 355.388 100.691M355.388 117.742V100.691M355.388 100.691C355.388 95.142 355.388 92.0309 355.388 86.482M355.388 100.691V86.482M355.388 86.482C355.388 79.0835 355.388 74.9354 355.388 67.5369M355.388 86.482V67.5369M355.388 67.5369C355.388 65.6872 355.388 62.8006 355.388 62.8006M355.388 67.5369V62.8006" stroke="#E09A63" stroke-width="2"/>
    <path d="M310.753 31.3123C306.28 33.4933 301.281 38.8904 301.281 38.8904L297.492 31.3123L299.386 18.0507L317.384 11.4199H331.593C335.066 13.3144 342.202 17.2929 342.96 18.0507C343.718 18.8085 348.959 27.2075 351.485 31.3123C351.485 31.3123 357.003 34.0363 356.222 37.9431C355.274 42.6794 351.991 43.4981 350.538 49.3102C350.142 50.8965 349.9 53.0992 349.591 54.9938C349.1 58.0046 350.774 62.1159 349.826 63.0631C349.565 63.3247 347.958 61.8861 347.696 61.6246C346.749 60.6773 348.167 57.7803 347.696 54.7702C347.167 51.3846 346.481 48.0047 345.802 46.4684C344.097 42.6105 342.312 40.7585 339.171 37.9431C330.685 30.3364 320.997 26.3183 310.753 31.3123Z" fill="#121639"/>
    <path d="M156 316.802C159.327 312.36 163.573 306.375 163.573 306.375C163.573 306.375 171.068 308.702 175.879 310.166C185.839 313.198 191.345 315.193 201.437 317.75C209.872 319.886 214.698 320.676 223.209 322.489C233.917 324.77 239.863 326.367 250.66 328.177C251.982 328.398 253.239 328.606 254.447 328.802L156 316.802Z" fill="#001832"/>
    <path d="M351 295C351 295 347.179 300.576 345.32 303.531C342.752 307.615 341.715 310.197 338.694 313.958C335.745 317.629 333.899 319.61 330.175 322.489C326.763 325.128 324.63 326.382 320.709 328.177C316.136 330.27 313.346 331.047 308.403 331.968C304.751 332.649 302.648 332.741 298.937 332.916C291.911 333.248 287.963 332.526 280.951 331.968C270.403 331.13 263.979 330.346 254.447 328.802M254.447 328.802C253.239 328.606 251.982 328.398 250.66 328.177C239.863 326.367 233.917 324.77 223.209 322.489C214.698 320.676 209.872 319.886 201.437 317.75C191.345 315.193 185.839 313.198 175.879 310.166C171.068 308.702 163.573 306.375 163.573 306.375C163.573 306.375 159.327 312.36 156 316.802L254.447 328.802Z" stroke="#001832" stroke-width="0.6"/>
    <path fill-rule="evenodd" clip-rule="evenodd" d="M265.927 217.594C267.381 215.74 268 213.5 268 210.5C267.276 207.397 264.42 203.801 261.595 200.5C260.04 198.682 258.2 196.911 256.113 195.274C246.772 187.943 236.021 186.051 232.1 191.047C228.179 196.043 232.572 206.036 241.914 213.367C244.558 215.443 246.932 216.877 250 218.253C256.22 217.996 265.927 217.594 265.927 217.594ZM265.927 217.594C264.991 218.786 263.666 219.586 262.065 220.014L265.927 217.594Z" fill="#E09A63"/>
    <path d="M250 218.253C253.731 219.927 258 223.5 258 223.5L262.065 220.014C258.855 220.87 252.831 219.991 250 218.253Z" fill="#E09A63"/>
    <path d="M265.927 217.594C265.927 217.594 256.22 217.996 250 218.253C252.831 219.991 258.855 220.87 262.065 220.014L265.927 217.594Z" fill="#E09A63"/>
    <path d="M261.595 200.5C264.42 203.801 267.276 207.397 268 210.5L268.5 206.5C268.5 206.5 264.59 204 261.595 200.5Z" fill="#E09A63"/>
    <path d="M280.704 244.709L270.274 235.255L257.5 223C257.5 223 264.122 220.447 266.482 216.345C268.723 212.449 268 206.5 268 206.5C268 206.5 277.456 214.347 285.445 219.182C295.501 225.266 303.415 229.921 313.891 235.255C330.605 243.764 331.656 244.217 343.284 249.436C352.817 253.715 368.885 257 368.885 257C368.885 257 369.144 247.405 368.885 241.873C368.31 229.563 364.144 211.618 364.144 211.618" stroke="#0C1E9B"/>
</svg>