<svg width="500" height="500" viewBox="0 0 605 497" fill="none" xmlns="http://www.w3.org/2000/svg">
    <rect x="53.5" y="0.5" width="339.344" height="390.523" rx="7.5" fill="#4D94FF" stroke="#4C94FF"/>
    <path d="M53 8C53 3.58172 56.5817 0 61 0H385.344C389.762 0 393.344 3.58172 393.344 8V33.8615H53V8Z" fill="#1F48E8"/>
    <rect x="88.1367" y="296.841" width="269.381" height="23.0308" fill="#7BB0FF"/>
    <rect x="88.1367" y="329.255" width="269.381" height="23.0308" fill="#7BB0FF"/>
    <path d="M88.8257 275.943C88.8257 275.943 114.895 255.524 129.343 240.117C144.702 223.739 142.244 198.604 164.315 194.482C188.843 189.901 191.065 226.482 215.068 233.293C279.69 251.628 321 96 321 96" stroke="white" stroke-width="3"/>
    <path d="M87.9727 87.0051V276.369H297.382" stroke="white" stroke-width="3"/>
    <rect x="285.5" y="76.5" width="282.193" height="372.61" rx="7.5" fill="#ECECEC" stroke="#F8F8F8"/>
    <path d="M285 84C285 79.5817 288.582 76 293 76H560.193C564.611 76 568.193 79.5817 568.193 84V110.12H285V84Z" fill="#CFCFCF"/>
    <path d="M454.014 296.868C448.561 325.703 433.656 351.898 411.652 371.316C389.649 390.733 361.803 402.264 332.514 404.087C303.225 405.911 274.164 397.922 249.922 381.384C225.68 364.846 207.641 340.701 198.654 312.766C189.667 284.83 190.246 254.696 200.298 227.126C210.35 199.556 229.303 176.121 254.162 160.526C279.02 144.93 308.367 138.063 337.564 141.009C366.762 143.955 394.145 156.547 415.386 176.794L324.312 272.342L454.014 296.868Z" fill="#BFE0FF"/>
    <path d="M433.826 171.17C449.693 186.314 461.536 205.174 468.285 226.044C475.034 246.914 476.475 269.137 472.479 290.704L342.688 266.658L433.826 171.17Z" fill="#E83A49"/>
    <rect x="507" y="367" width="98" height="130" rx="10" fill="#243EE9"/>
    <rect x="518" y="382" width="76" height="30" rx="8" fill="white"/>
    <rect x="580" y="481" width="37" height="13" rx="6" transform="rotate(-90 580 481)" fill="white"/>
    <circle cx="526" cy="428" r="7" fill="black"/>
    <circle cx="556" cy="428" r="7" fill="black"/>
    <circle cx="526" cy="451" r="7" fill="black"/>
    <circle cx="556" cy="451" r="7" fill="black"/>
    <circle cx="526" cy="474" r="7" fill="black"/>
    <circle cx="556" cy="474" r="7" fill="black"/>
    <circle cx="586" cy="428" r="7" fill="black"/>
    <rect y="368" width="182" height="106" rx="7" fill="#D3EAFF"/>
    <path d="M18.5 438.5C18.5 438.5 33.4985 405 52 405C70.5015 405 66.9985 438.5 85.5 438.5C104.002 438.5 100.498 405 119 405C137.502 405 152.5 438.5 152.5 438.5" stroke="white" stroke-width="3"/>
    <circle cx="53" cy="405" r="4" fill="#E83A49"/>
    <circle cx="87" cy="438" r="4" fill="#243EE9"/>
    <circle cx="118" cy="405" r="4" fill="#E83A49"/>
</svg>