<svg width="500" height="450" viewBox="0 0 698 494" fill="none" xmlns="http://www.w3.org/2000/svg">
    <path d="M289.056 20.9453V239.566H673.76" stroke="#243EE9" stroke-width="7.6948" stroke-miterlimit="10"/>
    <path d="M278 40.7324L288.827 13.8623L300.121 40.7324" stroke="#243EE9" stroke-width="7.6948" stroke-miterlimit="10"/>
    <path d="M650.67 229.483L683.257 238.413L650.67 247.721" stroke="#243EE9" stroke-width="7.6948" stroke-miterlimit="10"/>
    <path d="M591.312 175.307L555.677 121.387L509.755 175.307L471.21 82.7339L442.873 158.534L356.641 9L289.079 139.812" stroke="#243EE9" stroke-width="7.6948" stroke-miterlimit="10"/>
    <path d="M555.157 136.978V148.973" stroke="#243EE9" stroke-width="7.6948" stroke-miterlimit="10"/>
    <path d="M554.797 163.614V175.614" stroke="#243EE9" stroke-width="7.6948" stroke-miterlimit="10"/>
    <path d="M554.797 190.249V202.243" stroke="#243EE9" stroke-width="7.6948" stroke-miterlimit="10"/>
    <path d="M472.45 136.978V148.979" stroke="#243EE9" stroke-width="7.6948" stroke-miterlimit="10"/>
    <path d="M356.828 136.978V148.979" stroke="#243EE9" stroke-width="7.6948" stroke-miterlimit="10"/>
    <path d="M472.45 110.343V122.344" stroke="#243EE9" stroke-width="7.6948" stroke-miterlimit="10"/>
    <path d="M356.828 110.343V122.344" stroke="#243EE9" stroke-width="7.6948" stroke-miterlimit="10"/>
    <path d="M554.797 216.884V228.878" stroke="#243EE9" stroke-width="7.6948" stroke-miterlimit="10"/>
    <path d="M472.45 163.614V175.608" stroke="#243EE9" stroke-width="7.6948" stroke-miterlimit="10"/>
    <path d="M356.828 163.614V175.608" stroke="#243EE9" stroke-width="7.6948" stroke-miterlimit="10"/>
    <path d="M356.828 30.4385V42.4329" stroke="#243EE9" stroke-width="7.6948" stroke-miterlimit="10"/>
    <path d="M472.45 190.249V202.25" stroke="#243EE9" stroke-width="7.6948" stroke-miterlimit="10"/>
    <path d="M356.828 190.249V202.25" stroke="#243EE9" stroke-width="7.6948" stroke-miterlimit="10"/>
    <path d="M356.828 57.0732V69.0737" stroke="#243EE9" stroke-width="7.6948" stroke-miterlimit="10"/>
    <path d="M472.45 216.884V228.878" stroke="#243EE9" stroke-width="7.6948" stroke-miterlimit="10"/>
    <path d="M356.828 216.884V228.878" stroke="#243EE9" stroke-width="7.6948" stroke-miterlimit="10"/>
    <path d="M356.828 83.708V95.7024" stroke="#243EE9" stroke-width="7.6948" stroke-miterlimit="10"/>
    <ellipse cx="478.064" cy="465.124" rx="102.064" ry="21.5566" fill="#F5F5F5"/>
    <ellipse cx="165.854" cy="472.124" rx="165.854" ry="21.5566" fill="#F5F5F5"/>
    <path d="M548.105 282.838C548.105 282.838 541.128 299.553 532.839 304.354L522.369 314.937C522.369 314.937 524.111 324.123 524.366 324.188C524.63 324.253 532.98 324.188 532.98 324.188L535.065 318.991C535.796 317.172 537.177 315.541 539.069 314.261C545.237 310.071 559.411 299.911 561.558 293.525C564.312 285.32 548.105 282.838 548.105 282.838Z" fill="url(#paint0_linear_47_680)"/>
    <path d="M494.31 190.396C494.31 190.396 499.228 178.351 499.052 175.779C498.876 173.206 487.218 157.082 487.218 157.082L500.187 131.064L520.899 142.628L522.114 159.141C522.114 159.141 524.111 165.885 517.934 166.788L521.111 199.458L493.043 190.623" fill="#E09A63"/>
    <path d="M518.322 170.763C518.322 170.763 517.266 169.152 516.28 170.763L517.785 193.273L520.266 190.818L518.322 170.763Z" fill="#BF8454"/>
    <path d="M374.57 79.1774L369 75L376.268 76.3513L381.397 80.0415L374.57 79.1774Z" fill="#192160"/>
    <path d="M386.624 78.4826L376.268 76.3518C376.268 76.3518 377.702 78.632 374.57 79.1777L382.128 85.8689L389.105 83.9655L386.624 78.4826Z" fill="url(#paint1_linear_47_680)"/>
    <path d="M386.624 78.4832L428.655 93.002C428.655 93.002 432.746 100.135 423.604 101.226L382.128 85.8692C382.128 85.8692 389.263 82.7641 386.624 78.4832Z" fill="#1B2467"/>
    <path d="M397.727 153.977C397.727 153.977 390.416 118.942 396.68 105.235C396.68 105.235 389.835 101.012 390.512 89.1886C390.512 89.1886 394.621 84.4657 393.706 81.5294C392.791 78.593 403.543 78.9243 407.995 86.2067C412.448 93.4892 404.986 105.793 404.986 105.793C404.986 105.793 403.596 117.591 416.996 146.006L397.727 153.977Z" fill="url(#paint2_linear_47_680)"/>
    <path d="M531.511 318.536C531.511 318.536 536.851 252.059 544.735 245.718C544.735 245.718 556.103 272.62 547.867 283.157C547.867 283.157 551.466 290.01 561.558 293.525C561.558 293.525 575.134 279.733 574.553 266.883C573.973 254.034 578.038 242.041 565.623 216.77C553.208 191.5 547.753 192.87 520.143 190.811C520.143 190.811 504.824 194.15 495.427 187.387C495.427 187.387 436.019 185.757 416.997 146.012C416.997 146.012 404.696 143.699 397.736 153.977C397.736 153.977 401.449 194.923 456.098 216.77C456.098 216.77 486.022 290.036 479.537 314.157C479.3 315.054 479.572 315.976 480.347 316.684C482.027 318.211 484.79 321.258 484.869 324.883L531.511 318.536Z" fill="#E83A49"/>
    <path d="M495.137 160.161C495.137 160.161 489.964 147.695 486.242 157.141C482.52 166.586 475.736 171.53 484.781 173.843C493.835 176.156 500.1 179.884 503.751 173.843C507.042 168.405 513.297 160.018 514.512 158.401C514.635 158.238 514.74 158.076 514.837 157.901C515.356 156.991 517.565 153.762 521.216 157.199C525.422 161.162 527.789 157.537 527.789 157.537C527.789 157.537 531.167 154.074 526.821 151.632C522.474 149.189 529.258 144.823 529.258 144.823C529.258 144.823 538.673 138.847 520.504 134.598C519.905 134.462 519.404 134.169 519.105 133.766C518.498 132.961 517.248 131.597 515.471 131.181C514.573 130.973 513.834 130.479 513.632 129.804C513.315 128.738 513.227 126.945 514.406 124.269C516.553 119.429 503.003 116.752 499.906 120.351C496.8 123.95 488.072 133.929 505.74 137.482C521.014 140.555 512.822 150.995 510.324 153.762C509.892 154.237 509.541 154.743 509.268 155.276C507.473 158.713 500.355 171.127 495.137 160.161Z" fill="#5C3800"/>
    <path d="M524.463 448.535C524.463 448.535 540.476 461.943 527.859 462.008C515.242 462.073 483.303 461.69 483.303 461.69C483.303 461.69 472.252 453.401 481.737 450.51C491.222 447.619 513.06 447.424 513.06 447.424L524.463 448.535Z" fill="black"/>
    <path d="M478.772 451.023C478.772 451.023 492.85 459.942 488.512 464.626C488.046 465.133 487.245 465.419 486.418 465.419L433.257 465.386C432.315 465.386 431.479 464.944 431.154 464.295C430.159 462.314 428.716 458.033 432.57 454.947C436.917 451.458 478.772 451.023 478.772 451.023Z" fill="black"/>
    <path d="M534.907 321.583L531.739 316.484C531.739 316.484 502.088 322.584 480.971 317.276L480.809 317.367L480.347 316.685L455.279 452.18C455.279 452.18 473.035 460.144 489.735 453.979L503.83 359.334L500.346 447.684C500.346 447.684 520.363 454.622 527.842 448.457L535.444 359.334L536.2 326.17C536.244 324.585 535.804 323.019 534.907 321.583Z" fill="#C1BEBC"/>
    <path d="M51.0778 346.261C52.2305 346.982 52.7584 348.106 52.6176 349.224C51.5706 357.143 45.1476 396.186 87.2666 400.811H130.345C130.345 400.811 138.087 403.254 131.304 404.41C124.837 405.515 80.0077 405.216 75.8372 405.183C75.6084 405.183 75.3972 405.164 75.1773 405.125C71.9746 404.534 47.664 399.051 46.2034 368.628C45.0948 345.82 48.7726 344.813 51.0778 346.261Z" fill="#C1BEBC"/>
    <path d="M84.882 405.229L46.9424 469.719H51.3505L88.595 405.242L84.882 405.229Z" fill="#C1BEBC"/>
    <path d="M112.73 405.138L118.37 405.047L155.078 469.718H150.089L112.73 405.138Z" fill="#C1BEBC"/>
    <path d="M118.37 405.047L116.848 405.073L152.403 469.718H155.078L118.37 405.047Z" fill="#989594"/>
    <path d="M88.5952 405.242L86.9587 405.229L48.7991 469.719H51.3507L88.5952 405.242Z" fill="#989594"/>
    <path d="M135.686 260.237L143.05 247.861L136.433 238.779L137.014 230.509L143.921 223.61L164.395 215.087C164.395 215.087 194.971 258.008 159.926 252.311L143.446 281.051L135.686 260.237Z" fill="#E09A63"/>
    <path d="M215.621 355.506H245.308C247.393 355.506 248.854 353.524 247.279 352.524C241.032 348.548 231.784 344.566 217.214 352.673L215.621 355.506Z" fill="#E09A63"/>
    <path d="M113.487 368.356C113.487 368.356 146.904 322.342 151.541 321.653C151.541 321.653 169.411 350.608 202.59 355.408L217.214 355.512V352.667C217.214 352.667 193.431 332.924 184.474 327.253C181.694 325.493 179.397 323.355 177.664 320.965C171.478 312.435 159.389 294.635 158.738 285.118C158.632 283.591 158.175 282.09 157.436 280.661C155.139 276.211 149.323 267.519 136.381 259.951C135.87 259.652 135.149 259.619 134.595 259.873C126.843 263.433 73.4265 290.627 62.6658 368.356H113.487Z" fill="#243EE9"/>
    <path d="M145.311 227.203C145.311 227.203 163.718 221.414 165.61 216.86C167.501 212.307 165.61 216.86 165.61 216.86L163.322 213.56L144.827 224.643L145.311 227.203Z" fill="#BF8454"/>
    <path d="M133.222 244.216C137.348 246.139 152.385 252.7 140.982 240.591C140.313 239.877 139.812 239.084 139.513 238.246C138.545 235.537 137.128 229.97 142.786 232.172C142.786 232.172 145.566 233.283 146.789 237.057C147.792 240.156 148.399 237.434 148.584 236.369C148.628 236.128 148.558 235.888 148.391 235.68C147.458 234.524 144.326 230.308 145.417 226.826C145.522 226.488 145.813 226.208 146.226 226.052C151.312 224.195 186.629 210.448 165.002 195C165.002 195 156.529 204.939 145.223 205.881C145.223 205.881 127.934 208.194 130.661 222.713C130.661 222.713 112.272 225.799 132.518 238.389C132.518 238.389 135.105 241.124 132.94 243.196C132.597 243.521 132.747 243.995 133.222 244.216Z" fill="#121639"/>
    <path d="M142.918 247.666C142.918 247.666 150.01 251.291 159.935 252.311L157.401 256.735C157.401 256.735 144.414 253.318 142.012 249.615L142.918 247.666Z" fill="#BF8454"/>
    <path d="M62.6657 368.356C62.6657 368.356 45.1476 401.195 94.7455 401.065C144.343 400.935 162.794 399.649 164.712 401.961C166.63 404.274 208.573 456.96 208.573 456.96V420.476C208.573 420.476 185.6 380.77 168.892 380.257C152.183 379.744 119.294 380.387 119.294 380.387C119.294 380.387 109.782 381.4 113.495 368.362" fill="#00254D"/>
    <path d="M161.553 355.051V368.355H174.083H277.81V355.051H161.553Z" fill="#C1BEBC"/>
    <path d="M265.632 368.356H190.096V469.712H265.632V368.356Z" fill="#C1BEBC"/>
    <path d="M265.624 368.356V373.026L190.096 371.837V368.356H265.624Z" fill="#989594"/>
    <defs>
        <linearGradient id="paint0_linear_47_680" x1="556.932" y1="285.558" x2="537.989" y2="329.997" gradientUnits="userSpaceOnUse">
            <stop offset="0.0343" stop-color="#E09A63"/>
            <stop offset="0.4855" stop-color="#D08D58"/>
        </linearGradient>
        <linearGradient id="paint1_linear_47_680" x1="374.569" y1="81.1093" x2="389.101" y2="81.1093" gradientUnits="userSpaceOnUse">
            <stop offset="0.0343" stop-color="#E09A63"/>
            <stop offset="1" stop-color="#B0713E"/>
        </linearGradient>
        <linearGradient id="paint2_linear_47_680" x1="390.468" y1="116.882" x2="416.991" y2="116.882" gradientUnits="userSpaceOnUse">
            <stop offset="0.0343" stop-color="#E09A63"/>
            <stop offset="1" stop-color="#C48552"/>
        </linearGradient>
    </defs>
</svg>