<svg viewBox="0 0 1920 1154" fill="none" xmlns="http://www.w3.org/2000/svg">
    <path d="M269 1126.5C163.381 1126.58 0 1098.5 0 1098.5L0.5 -2H1920.5V967C1920.5 967 1856 946 1762 974C1668 1002 1629.04 1128.7 1511.5 1148C1444.5 1159 1380.5 1148 1279.5 1126.5C1182.05 1105.76 1043.59 1062.31 888.5 1053C814.434 1048.55 772.602 1049.19 698.5 1053C528.556 1061.74 439.168 1126.38 269 1126.5Z" fill="#243EE9" stroke="#243EE9"/>
    <path d="M269 1126.71C163.381 1126.78 0 1098.71 0 1098.71V1031.71C0 1031.71 38.3506 960.959 73.5 924.206C136.106 858.742 220.5 821.97 275 812C329.5 802.03 419.128 801.433 514.5 849.5C577 881 644.5 911.5 698.5 930.5C752.5 949.5 848.589 980.482 943 984.706C1034.32 988.79 1085 965.501 1172.5 938.706C1264.12 910.65 1334 898 1414 898C1494 898 1564.5 909.5 1631.5 926.5C1698.5 943.5 1762 974.206 1762 974.206C1668 1002.21 1629.04 1128.91 1511.5 1148.21C1444.5 1159.21 1380.5 1148.21 1279.5 1126.71C1182.05 1105.96 1043.59 1062.52 888.5 1053.21C814.434 1048.76 772.602 1049.39 698.5 1053.21C528.556 1061.95 439.168 1126.58 269 1126.71Z" fill="#736AFA" fill-opacity="0.49" stroke="#736AFA" stroke-opacity="0.49"/>
    <path d="M269 1125.94C163.381 1126.02 0 1097.94 0 1097.94V1031.44C0 1031.44 194.849 956.283 326 937.441C485.506 914.525 588.994 1008.07 738.5 947.941C802.351 922.262 830.965 889.676 888.5 855.441C940.5 824.5 984.5 824.036 1030 829C1075.5 833.964 1198.94 850.636 1307 839.441C1384.55 831.407 1428.5 819 1501.5 794.441C1549.15 778.412 1597.5 768.003 1629 770C1663.5 772.187 1694.21 787.069 1736 801.941C1827.5 834.5 1920.5 843.941 1920.5 843.941V966.441C1920.5 966.441 1856 945.441 1762 973.441C1668 1001.44 1629.04 1128.14 1511.5 1147.44C1444.5 1158.44 1380.5 1147.44 1279.5 1125.94C1182.05 1105.2 1043.59 1061.75 888.5 1052.44C814.434 1047.99 772.602 1048.63 698.5 1052.44C528.556 1061.18 439.168 1125.82 269 1125.94Z" fill="#2C7EFF" fill-opacity="0.47" stroke="#2C7EFF" stroke-opacity="0.47"/>
</svg>