<svg width="390" height="531" viewBox="0 0 390 531" fill="none" xmlns="http://www.w3.org/2000/svg">
<path d="M55.4638 523.361C34.0795 523.381 1 516.22 1 516.22L0 0H389.839V482.683C389.839 482.683 376.78 477.328 357.748 484.469C338.716 491.61 330.828 523.923 307.03 528.845C293.465 531.65 280.507 528.845 260.058 523.361C240.327 518.071 212.293 506.991 180.893 504.616C165.897 503.482 157.427 503.644 142.424 504.616C108.016 506.846 89.9175 523.33 55.4638 523.361Z" fill="#243EE9" stroke="#243EE9"/>
<path d="M55.4638 523.414C34.0795 523.433 1 516.273 1 516.273V499.186C1 499.186 8.76475 481.143 15.8814 471.769C28.5571 455.074 45.6441 445.696 56.6786 443.153C67.7131 440.611 85.86 440.458 105.17 452.717C117.824 460.751 131.49 468.529 142.424 473.375C153.357 478.22 172.812 486.122 191.927 487.199C210.416 488.241 220.678 482.301 238.393 475.467C256.943 468.312 271.092 465.086 287.289 465.086C303.487 465.086 317.761 468.019 331.326 472.355C344.892 476.69 357.748 484.521 357.748 484.521C338.716 491.662 330.828 523.976 307.03 528.897C293.465 531.702 280.507 528.897 260.058 523.414C240.327 518.123 212.293 507.044 180.893 504.669C165.897 503.535 157.427 503.697 142.424 504.669C108.016 506.898 89.9175 523.382 55.4638 523.414Z" fill="#736AFA" fill-opacity="0.49" stroke="#736AFA" stroke-opacity="0.49"/>
<path d="M55.4638 523.219C34.0795 523.238 1 516.078 1 516.078V499.118C1 499.118 40.4506 479.95 67.0045 475.145C99.2993 469.301 120.252 493.157 150.522 477.823C163.45 471.274 169.244 462.963 180.893 454.232C191.421 446.341 200.33 446.223 209.542 447.489C218.754 448.755 243.747 453.007 265.625 450.152C281.326 448.103 290.225 444.939 305.005 438.675C314.652 434.587 324.442 431.933 330.82 432.442C337.805 433 344.022 436.795 352.484 440.588C371.01 448.892 389.839 451.299 389.839 451.299V482.541C389.839 482.541 376.78 477.185 357.748 484.326C338.716 491.467 330.828 523.781 307.03 528.702C293.465 531.507 280.507 528.702 260.058 523.219C240.327 517.928 212.293 506.849 180.893 504.474C165.897 503.34 157.427 503.502 142.424 504.474C108.016 506.703 89.9175 523.187 55.4638 523.219Z" fill="#2C7EFF" fill-opacity="0.47" stroke="#2C7EFF" stroke-opacity="0.47"/>
</svg>