<svg width="156" height="11" viewBox="0 0 156 11" fill="none" xmlns="http://www.w3.org/2000/svg">
<path d="M2.44336 0.46875L5.23242 7.42969L8.02148 0.46875H9.48047V9H8.35547V5.67773L8.46094 2.0918L5.66016 9H4.79883L2.00391 2.10938L2.11523 5.67773V9H0.990234V0.46875H2.44336ZM11.0098 5.77148C11.0098 5.15039 11.1309 4.5918 11.373 4.0957C11.6191 3.59961 11.959 3.2168 12.3926 2.94727C12.8301 2.67773 13.3281 2.54297 13.8867 2.54297C14.75 2.54297 15.4473 2.8418 15.9785 3.43945C16.5137 4.03711 16.7812 4.83203 16.7812 5.82422V5.90039C16.7812 6.51758 16.6621 7.07227 16.4238 7.56445C16.1895 8.05273 15.8516 8.43359 15.4102 8.70703C14.9727 8.98047 14.4688 9.11719 13.8984 9.11719C13.0391 9.11719 12.3418 8.81836 11.8066 8.2207C11.2754 7.62305 11.0098 6.83203 11.0098 5.84766V5.77148ZM12.0996 5.90039C12.0996 6.60352 12.2617 7.16797 12.5859 7.59375C12.9141 8.01953 13.3516 8.23242 13.8984 8.23242C14.4492 8.23242 14.8867 8.01758 15.2109 7.58789C15.5352 7.1543 15.6973 6.54883 15.6973 5.77148C15.6973 5.07617 15.5312 4.51367 15.1992 4.08398C14.8711 3.65039 14.4336 3.43359 13.8867 3.43359C13.3516 3.43359 12.9199 3.64648 12.5918 4.07227C12.2637 4.49805 12.0996 5.10742 12.0996 5.90039ZM17.666 8.11523L18.041 7.65234C18.4629 7.10547 18.7031 6.28516 18.7617 5.19141L18.8613 2.66016H22.9453V8.11523H23.7598V10.8633H22.6758V9H18.252V10.8633H17.168L17.1738 8.11523H17.666ZM18.9492 8.11523H21.8613V3.66211H19.9102L19.8457 5.17383C19.7793 6.43555 19.4805 7.41602 18.9492 8.11523ZM27.5918 9.11719C26.7324 9.11719 26.0332 8.83594 25.4941 8.27344C24.9551 7.70703 24.6855 6.95117 24.6855 6.00586V5.80664C24.6855 5.17773 24.8047 4.61719 25.043 4.125C25.2852 3.62891 25.6211 3.24219 26.0508 2.96484C26.4844 2.68359 26.9531 2.54297 27.457 2.54297C28.2812 2.54297 28.9219 2.81445 29.3789 3.35742C29.8359 3.90039 30.0645 4.67773 30.0645 5.68945V6.14062H25.7695C25.7852 6.76562 25.9668 7.27148 26.3145 7.6582C26.666 8.04102 27.1113 8.23242 27.6504 8.23242C28.0332 8.23242 28.3574 8.1543 28.623 7.99805C28.8887 7.8418 29.1211 7.63477 29.3203 7.37695L29.9824 7.89258C29.4512 8.70898 28.6543 9.11719 27.5918 9.11719ZM27.457 3.43359C27.0195 3.43359 26.6523 3.59375 26.3555 3.91406C26.0586 4.23047 25.875 4.67578 25.8047 5.25H28.9805V5.16797C28.9492 4.61719 28.8008 4.19141 28.5352 3.89062C28.2695 3.58594 27.9102 3.43359 27.457 3.43359ZM36.5215 2.66016V9H35.4316V3.55664H33.2754L33.1465 5.92969C33.0762 7.01953 32.8926 7.79883 32.5957 8.26758C32.3027 8.73633 31.8359 8.98047 31.1953 9H30.7617V8.04492L31.0723 8.02148C31.4238 7.98242 31.6758 7.7793 31.8281 7.41211C31.9805 7.04492 32.0781 6.36523 32.1211 5.37305L32.2383 2.66016H36.5215ZM39.4453 4.8457H41.0918C41.8105 4.85352 42.3789 5.04102 42.7969 5.4082C43.2148 5.77539 43.4238 6.27344 43.4238 6.90234C43.4238 7.53516 43.209 8.04297 42.7793 8.42578C42.3496 8.80859 41.7715 9 41.0449 9H38.3613V2.66016H39.4453V4.8457ZM39.4453 5.73047V8.11523H41.0566C41.4629 8.11523 41.7773 8.01172 42 7.80469C42.2227 7.59375 42.334 7.30664 42.334 6.94336C42.334 6.5918 42.2246 6.30469 42.0059 6.08203C41.791 5.85547 41.4883 5.73828 41.0977 5.73047H39.4453ZM51.668 9C51.6055 8.875 51.5547 8.65234 51.5156 8.33203C51.0117 8.85547 50.4102 9.11719 49.7109 9.11719C49.0859 9.11719 48.5723 8.94141 48.1699 8.58984C47.7715 8.23438 47.5723 7.78516 47.5723 7.24219C47.5723 6.58203 47.8223 6.07031 48.3223 5.70703C48.8262 5.33984 49.5332 5.15625 50.4434 5.15625H51.498V4.6582C51.498 4.2793 51.3848 3.97852 51.1582 3.75586C50.9316 3.5293 50.5977 3.41602 50.1562 3.41602C49.7695 3.41602 49.4453 3.51367 49.1836 3.70898C48.9219 3.9043 48.791 4.14062 48.791 4.41797H47.7012C47.7012 4.10156 47.8125 3.79688 48.0352 3.50391C48.2617 3.20703 48.5664 2.97266 48.9492 2.80078C49.3359 2.62891 49.7598 2.54297 50.2207 2.54297C50.9512 2.54297 51.5234 2.72656 51.9375 3.09375C52.3516 3.45703 52.5664 3.95898 52.582 4.59961V7.51758C52.582 8.09961 52.6562 8.5625 52.8047 8.90625V9H51.668ZM49.8691 8.17383C50.209 8.17383 50.5312 8.08594 50.8359 7.91016C51.1406 7.73438 51.3613 7.50586 51.498 7.22461V5.92383H50.6484C49.3203 5.92383 48.6562 6.3125 48.6562 7.08984C48.6562 7.42969 48.7695 7.69531 48.9961 7.88672C49.2227 8.07812 49.5137 8.17383 49.8691 8.17383ZM59.4609 9H58.377V6.29297H55.4648V9H54.375V2.66016H55.4648V5.4082H58.377V2.66016H59.4609V9ZM65.1211 9C65.0586 8.875 65.0078 8.65234 64.9688 8.33203C64.4648 8.85547 63.8633 9.11719 63.1641 9.11719C62.5391 9.11719 62.0254 8.94141 61.623 8.58984C61.2246 8.23438 61.0254 7.78516 61.0254 7.24219C61.0254 6.58203 61.2754 6.07031 61.7754 5.70703C62.2793 5.33984 62.9863 5.15625 63.8965 5.15625H64.9512V4.6582C64.9512 4.2793 64.8379 3.97852 64.6113 3.75586C64.3848 3.5293 64.0508 3.41602 63.6094 3.41602C63.2227 3.41602 62.8984 3.51367 62.6367 3.70898C62.375 3.9043 62.2441 4.14062 62.2441 4.41797H61.1543C61.1543 4.10156 61.2656 3.79688 61.4883 3.50391C61.7148 3.20703 62.0195 2.97266 62.4023 2.80078C62.7891 2.62891 63.2129 2.54297 63.6738 2.54297C64.4043 2.54297 64.9766 2.72656 65.3906 3.09375C65.8047 3.45703 66.0195 3.95898 66.0352 4.59961V7.51758C66.0352 8.09961 66.1094 8.5625 66.2578 8.90625V9H65.1211ZM63.3223 8.17383C63.6621 8.17383 63.9844 8.08594 64.2891 7.91016C64.5938 7.73438 64.8145 7.50586 64.9512 7.22461V5.92383H64.1016C62.7734 5.92383 62.1094 6.3125 62.1094 7.08984C62.1094 7.42969 62.2227 7.69531 62.4492 7.88672C62.6758 8.07812 62.9668 8.17383 63.3223 8.17383ZM72.9316 2.66016V9H71.8418V3.55664H69.6855L69.5566 5.92969C69.4863 7.01953 69.3027 7.79883 69.0059 8.26758C68.7129 8.73633 68.2461 8.98047 67.6055 9H67.1719V8.04492L67.4824 8.02148C67.834 7.98242 68.0859 7.7793 68.2383 7.41211C68.3906 7.04492 68.4883 6.36523 68.5312 5.37305L68.6484 2.66016H72.9316ZM78.7734 2.66016H79.8574V9H78.7734V4.37695L75.8496 9H74.7656V2.66016H75.8496V7.28906L78.7734 2.66016ZM85.084 4.39453C85.084 4.09766 84.9707 3.86328 84.7441 3.69141C84.5176 3.51562 84.207 3.42773 83.8125 3.42773C83.4297 3.42773 83.1094 3.52734 82.8516 3.72656C82.5977 3.92578 82.4707 4.16016 82.4707 4.42969H81.3926C81.3926 3.87891 81.623 3.42773 82.084 3.07617C82.5449 2.72461 83.1211 2.54883 83.8125 2.54883C84.5547 2.54883 85.1328 2.70898 85.5469 3.0293C85.9609 3.3457 86.168 3.79883 86.168 4.38867C86.168 4.67383 86.082 4.93555 85.9102 5.17383C85.7383 5.41211 85.4941 5.60156 85.1777 5.74219C85.916 5.99219 86.2852 6.48438 86.2852 7.21875C86.2852 7.80078 86.0605 8.26172 85.6113 8.60156C85.1621 8.94141 84.5625 9.11133 83.8125 9.11133C83.082 9.11133 82.4785 8.93359 82.002 8.57812C81.5293 8.21875 81.293 7.73438 81.293 7.125H82.3711C82.3711 7.43359 82.5078 7.69922 82.7812 7.92188C83.0586 8.14062 83.4023 8.25 83.8125 8.25C84.2266 8.25 84.5605 8.1543 84.8145 7.96289C85.0684 7.77148 85.1953 7.52344 85.1953 7.21875C85.1953 6.86328 85.0879 6.60938 84.873 6.45703C84.6621 6.30078 84.332 6.22266 83.8828 6.22266H82.7988V5.30859H83.9766C84.7148 5.28906 85.084 4.98438 85.084 4.39453ZM91.6055 9C91.543 8.875 91.4922 8.65234 91.4531 8.33203C90.9492 8.85547 90.3477 9.11719 89.6484 9.11719C89.0234 9.11719 88.5098 8.94141 88.1074 8.58984C87.709 8.23438 87.5098 7.78516 87.5098 7.24219C87.5098 6.58203 87.7598 6.07031 88.2598 5.70703C88.7637 5.33984 89.4707 5.15625 90.3809 5.15625H91.4355V4.6582C91.4355 4.2793 91.3223 3.97852 91.0957 3.75586C90.8691 3.5293 90.5352 3.41602 90.0938 3.41602C89.707 3.41602 89.3828 3.51367 89.1211 3.70898C88.8594 3.9043 88.7285 4.14062 88.7285 4.41797H87.6387C87.6387 4.10156 87.75 3.79688 87.9727 3.50391C88.1992 3.20703 88.5039 2.97266 88.8867 2.80078C89.2734 2.62891 89.6973 2.54297 90.1582 2.54297C90.8887 2.54297 91.4609 2.72656 91.875 3.09375C92.2891 3.45703 92.5039 3.95898 92.5195 4.59961V7.51758C92.5195 8.09961 92.5938 8.5625 92.7422 8.90625V9H91.6055ZM89.8066 8.17383C90.1465 8.17383 90.4688 8.08594 90.7734 7.91016C91.0781 7.73438 91.2988 7.50586 91.4355 7.22461V5.92383H90.5859C89.2578 5.92383 88.5938 6.3125 88.5938 7.08984C88.5938 7.42969 88.707 7.69531 88.9336 7.88672C89.1602 8.07812 89.4512 8.17383 89.8066 8.17383ZM99.4219 3.43359C99.0352 3.43359 98.6992 3.55664 98.4141 3.80273C98.1328 4.04883 97.9922 4.33984 97.9922 4.67578H96.9609C96.9609 4.3125 97.0762 3.96484 97.3066 3.63281C97.5371 3.30078 97.8438 3.03711 98.2266 2.8418C98.6094 2.64258 99.0078 2.54297 99.4219 2.54297C100.246 2.54297 100.912 2.8418 101.42 3.43945C101.932 4.0332 102.188 4.81055 102.188 5.77148V5.95312C102.188 6.54688 102.07 7.08984 101.836 7.58203C101.605 8.07031 101.279 8.44922 100.857 8.71875C100.439 8.98438 99.9609 9.11719 99.4219 9.11719C98.7188 9.11719 98.1328 8.89844 97.6641 8.46094C97.1953 8.02344 96.9609 7.47852 96.9609 6.82617H97.9922C97.9922 7.22461 98.1309 7.56055 98.4082 7.83398C98.6855 8.10352 99.0234 8.23828 99.4219 8.23828C99.8867 8.23828 100.27 8.05859 100.57 7.69922C100.871 7.33984 101.045 6.8457 101.092 6.2168H98.7129V5.32617H101.08C101.025 4.75586 100.852 4.29883 100.559 3.95508C100.266 3.60742 99.8867 3.43359 99.4219 3.43359ZM107.303 7.56445L109.459 2.66016H110.812V9H109.729V4.38867L107.678 9H106.928L104.836 4.28906V9H103.752V2.66016H105.158L107.303 7.56445ZM116.66 2.66016H117.744V9H116.66V4.37695L113.736 9H112.652V2.66016H113.736V7.28906L116.66 2.66016ZM124.195 3.53906H122.068V9H120.984V3.53906H118.898V2.66016H124.195V3.53906ZM127.412 9.11719C126.553 9.11719 125.854 8.83594 125.314 8.27344C124.775 7.70703 124.506 6.95117 124.506 6.00586V5.80664C124.506 5.17773 124.625 4.61719 124.863 4.125C125.105 3.62891 125.441 3.24219 125.871 2.96484C126.305 2.68359 126.773 2.54297 127.277 2.54297C128.102 2.54297 128.742 2.81445 129.199 3.35742C129.656 3.90039 129.885 4.67773 129.885 5.68945V6.14062H125.59C125.605 6.76562 125.787 7.27148 126.135 7.6582C126.486 8.04102 126.932 8.23242 127.471 8.23242C127.854 8.23242 128.178 8.1543 128.443 7.99805C128.709 7.8418 128.941 7.63477 129.141 7.37695L129.803 7.89258C129.271 8.70898 128.475 9.11719 127.412 9.11719ZM127.277 3.43359C126.84 3.43359 126.473 3.59375 126.176 3.91406C125.879 4.23047 125.695 4.67578 125.625 5.25H128.801V5.16797C128.77 4.61719 128.621 4.19141 128.355 3.89062C128.09 3.58594 127.73 3.43359 127.277 3.43359ZM136.324 9H135.24V6.29297H132.328V9H131.238V2.66016H132.328V5.4082H135.24V2.66016H136.324V9ZM142.781 3.53906H140.654V9H139.57V3.53906H137.484V2.66016H142.781V3.53906ZM143.303 5.77148C143.303 5.15039 143.424 4.5918 143.666 4.0957C143.912 3.59961 144.252 3.2168 144.686 2.94727C145.123 2.67773 145.621 2.54297 146.18 2.54297C147.043 2.54297 147.74 2.8418 148.271 3.43945C148.807 4.03711 149.074 4.83203 149.074 5.82422V5.90039C149.074 6.51758 148.955 7.07227 148.717 7.56445C148.482 8.05273 148.145 8.43359 147.703 8.70703C147.266 8.98047 146.762 9.11719 146.191 9.11719C145.332 9.11719 144.635 8.81836 144.1 8.2207C143.568 7.62305 143.303 6.83203 143.303 5.84766V5.77148ZM144.393 5.90039C144.393 6.60352 144.555 7.16797 144.879 7.59375C145.207 8.01953 145.645 8.23242 146.191 8.23242C146.742 8.23242 147.18 8.01758 147.504 7.58789C147.828 7.1543 147.99 6.54883 147.99 5.77148C147.99 5.07617 147.824 4.51367 147.492 4.08398C147.164 3.65039 146.727 3.43359 146.18 3.43359C145.645 3.43359 145.213 3.64648 144.885 4.07227C144.557 4.49805 144.393 5.10742 144.393 5.90039ZM150.533 9V2.66016H153.006C153.85 2.66016 154.496 2.80859 154.945 3.10547C155.398 3.39844 155.625 3.83008 155.625 4.40039C155.625 4.69336 155.537 4.95898 155.361 5.19727C155.186 5.43164 154.926 5.61133 154.582 5.73633C154.965 5.82617 155.271 6.00195 155.502 6.26367C155.736 6.52539 155.854 6.83789 155.854 7.20117C155.854 7.7832 155.639 8.22852 155.209 8.53711C154.783 8.8457 154.18 9 153.398 9H150.533ZM151.617 6.2168V8.12695H153.41C153.863 8.12695 154.201 8.04297 154.424 7.875C154.65 7.70703 154.764 7.4707 154.764 7.16602C154.764 6.5332 154.299 6.2168 153.369 6.2168H151.617ZM151.617 5.34961H153.018C154.033 5.34961 154.541 5.05273 154.541 4.45898C154.541 3.86523 154.061 3.55859 153.1 3.53906H151.617V5.34961Z" fill="#494949"/>
</svg>
