<svg width="142" height="16" viewBox="0 0 142 16" fill="none" xmlns="http://www.w3.org/2000/svg">
<path d="M10.2344 6.60938C10.2344 7.72396 10.0417 8.70312 9.65625 9.54688C9.27083 10.3854 8.71875 11.0312 8 11.4844C7.28646 11.9323 6.46354 12.1562 5.53125 12.1562C4.60938 12.1562 3.78646 11.9323 3.0625 11.4844C2.34375 11.0312 1.78646 10.388 1.39062 9.55469C1 8.72135 0.802083 7.76042 0.796875 6.67188V6.03125C0.796875 4.92188 0.992188 3.94271 1.38281 3.09375C1.77865 2.24479 2.33333 1.59635 3.04688 1.14844C3.76562 0.695312 4.58854 0.46875 5.51562 0.46875C6.44271 0.46875 7.26302 0.692708 7.97656 1.14062C8.69531 1.58333 9.25 2.22396 9.64062 3.0625C10.0312 3.89583 10.2292 4.86719 10.2344 5.97656V6.60938ZM8.25781 6.01562C8.25781 4.75521 8.01823 3.78906 7.53906 3.11719C7.0651 2.44531 6.39062 2.10938 5.51562 2.10938C4.66146 2.10938 3.99219 2.44531 3.50781 3.11719C3.02865 3.78385 2.78385 4.72917 2.77344 5.95312V6.60938C2.77344 7.85938 3.01562 8.82552 3.5 9.50781C3.98958 10.1901 4.66667 10.5312 5.53125 10.5312C6.40625 10.5312 7.07812 10.1979 7.54688 9.53125C8.02083 8.86458 8.25781 7.89062 8.25781 6.60938V6.01562ZM18.7969 12H16.8984V9.17969C16.4089 9.29427 15.8932 9.35156 15.3516 9.35156C14.1953 9.35156 13.3125 9.07552 12.7031 8.52344C12.0938 7.96615 11.7891 7.16927 11.7891 6.13281V3.53906H13.6875V6.13281C13.6875 6.7474 13.8229 7.18229 14.0938 7.4375C14.3698 7.69271 14.7891 7.82031 15.3516 7.82031C15.862 7.82031 16.3776 7.76042 16.8984 7.64062V3.54688H18.7969V12ZM26.0938 3.54688H27.9844V12H26.0938V6.35938L22.7812 12H20.8906V3.54688H22.7812V9.1875L26.0938 3.54688ZM33.4766 10.6406C33.9505 10.6406 34.3438 10.5026 34.6562 10.2266C34.9688 9.95052 35.1354 9.60938 35.1562 9.20312H36.9453C36.9245 9.72917 36.7604 10.2214 36.4531 10.6797C36.1458 11.1328 35.7292 11.4922 35.2031 11.7578C34.6771 12.0234 34.1094 12.1562 33.5 12.1562C32.3177 12.1562 31.3802 11.7734 30.6875 11.0078C29.9948 10.2422 29.6484 9.1849 29.6484 7.83594V7.64062C29.6484 6.35417 29.9922 5.32552 30.6797 4.55469C31.3672 3.77865 32.3047 3.39062 33.4922 3.39062C34.4974 3.39062 35.3151 3.6849 35.9453 4.27344C36.5807 4.85677 36.9141 5.625 36.9453 6.57812H35.1562C35.1354 6.09375 34.9688 5.69531 34.6562 5.38281C34.349 5.07031 33.9557 4.91406 33.4766 4.91406C32.862 4.91406 32.388 5.13802 32.0547 5.58594C31.7214 6.02865 31.5521 6.70312 31.5469 7.60938V7.91406C31.5469 8.83073 31.7109 9.51562 32.0391 9.96875C32.3724 10.4167 32.8516 10.6406 33.4766 10.6406ZM45.0312 5.05469H42.2891V12H40.3906V5.05469H37.6797V3.54688H45.0312V5.05469ZM51.5781 3.54688H53.4688V12H51.5781V6.35938L48.2656 12H46.375V3.54688H48.2656V9.1875L51.5781 3.54688ZM62.1406 5.05469H59.3984V12H57.5V5.05469H54.7891V3.54688H62.1406V5.05469ZM65.4531 6.23438H67.3125C68.0052 6.23438 68.6094 6.35417 69.125 6.59375C69.6406 6.83333 70.0312 7.16927 70.2969 7.60156C70.5677 8.03385 70.7031 8.53646 70.7031 9.10938C70.7031 9.97917 70.3958 10.6771 69.7812 11.2031C69.1667 11.7292 68.349 11.9948 67.3281 12H63.5547V3.54688H65.4531V6.23438ZM65.4531 7.75781V10.4844H67.3047C67.7682 10.4844 68.1328 10.3698 68.3984 10.1406C68.6693 9.90625 68.8047 9.57552 68.8047 9.14844C68.8047 8.72135 68.6719 8.38542 68.4062 8.14062C68.1458 7.89062 67.7917 7.76302 67.3438 7.75781H65.4531ZM75.8906 7.89062C75.8906 6.51042 76.1615 5.41667 76.7031 4.60938C77.25 3.79688 78.0104 3.39062 78.9844 3.39062C79.3802 3.39062 79.7396 3.46354 80.0625 3.60938V0H81.9531V3.64062C82.2865 3.47396 82.6771 3.39062 83.125 3.39062C84.0938 3.39062 84.8516 3.79427 85.3984 4.60156C85.9505 5.40365 86.2266 6.55469 86.2266 8.05469C86.2266 9.32031 85.9505 10.3203 85.3984 11.0547C84.8464 11.7891 84.0938 12.1562 83.1406 12.1562C82.7083 12.1562 82.3125 12.0781 81.9531 11.9219V15.25H80.0625V11.9531C79.7448 12.0885 79.3802 12.1562 78.9688 12.1562C78.0573 12.1562 77.3281 11.8203 76.7812 11.1484C76.2396 10.4714 75.9453 9.54167 75.8984 8.35938L75.8906 7.89062ZM84.3281 7.89062C84.3281 6.94271 84.1771 6.21094 83.875 5.69531C83.5729 5.17448 83.1458 4.91406 82.5938 4.91406C82.3594 4.91406 82.1458 4.94792 81.9531 5.01562V10.5625C82.125 10.6146 82.3438 10.6406 82.6094 10.6406C83.7552 10.6406 84.3281 9.72396 84.3281 7.89062ZM77.7812 8.05469C77.7812 8.89844 77.9219 9.54167 78.2031 9.98438C78.4844 10.4219 78.901 10.6406 79.4531 10.6406C79.6875 10.6406 79.8906 10.6146 80.0625 10.5625V4.99219C79.8854 4.9401 79.6875 4.91406 79.4688 4.91406C78.9271 4.91406 78.5104 5.16667 78.2188 5.67188C77.9271 6.17188 77.7812 6.96615 77.7812 8.05469ZM93.1406 3.54688H95.0312V12H93.1406V6.35938L89.8281 12H87.9375V3.54688H89.8281V9.1875L93.1406 3.54688ZM104.234 3.54688V12H102.336V5.07812H99.9453L99.7891 8.02344C99.6901 9.4401 99.4167 10.4583 98.9688 11.0781C98.526 11.6927 97.8464 12 96.9297 12H96.3438L96.3359 10.4219L96.7266 10.3828C97.1432 10.3255 97.4453 10.0729 97.6328 9.625C97.8255 9.17188 97.9479 8.34896 98 7.15625L98.1562 3.54688H104.234ZM108.297 6.23438H110.156C110.849 6.23438 111.453 6.35417 111.969 6.59375C112.484 6.83333 112.875 7.16927 113.141 7.60156C113.411 8.03385 113.547 8.53646 113.547 9.10938C113.547 9.97917 113.24 10.6771 112.625 11.2031C112.01 11.7292 111.193 11.9948 110.172 12H106.398V3.54688H108.297V6.23438ZM108.297 7.75781V10.4844H110.148C110.612 10.4844 110.977 10.3698 111.242 10.1406C111.513 9.90625 111.648 9.57552 111.648 9.14844C111.648 8.72135 111.516 8.38542 111.25 8.14062C110.99 7.89062 110.635 7.76302 110.188 7.75781H108.297ZM120.547 5.05469H117.805V12H115.906V5.05469H113.195V3.54688H120.547V5.05469ZM129.219 7.85938C129.219 9.16667 128.922 10.2109 128.328 10.9922C127.734 11.7682 126.938 12.1562 125.938 12.1562C125.01 12.1562 124.268 11.8516 123.711 11.2422V15.25H121.812V3.54688H123.562L123.641 4.40625C124.198 3.72917 124.956 3.39062 125.914 3.39062C126.945 3.39062 127.753 3.77604 128.336 4.54688C128.924 5.3125 129.219 6.3776 129.219 7.74219V7.85938ZM127.328 7.69531C127.328 6.85156 127.159 6.18229 126.82 5.6875C126.487 5.19271 126.008 4.94531 125.383 4.94531C124.607 4.94531 124.049 5.26562 123.711 5.90625V9.65625C124.055 10.3125 124.617 10.6406 125.398 10.6406C126.003 10.6406 126.474 10.3984 126.812 9.91406C127.156 9.42448 127.328 8.6849 127.328 7.69531ZM132.875 6.23438H134.734C135.427 6.23438 136.031 6.35417 136.547 6.59375C137.062 6.83333 137.453 7.16927 137.719 7.60156C137.99 8.03385 138.125 8.53646 138.125 9.10938C138.125 9.97917 137.818 10.6771 137.203 11.2031C136.589 11.7292 135.771 11.9948 134.75 12H130.977V3.54688H132.875V6.23438ZM141.43 12H139.531V3.54688H141.43V12ZM132.875 7.75781V10.4844H134.727C135.19 10.4844 135.555 10.3698 135.82 10.1406C136.091 9.90625 136.227 9.57552 136.227 9.14844C136.227 8.72135 136.094 8.38542 135.828 8.14062C135.568 7.89062 135.214 7.76302 134.766 7.75781H132.875Z" fill="#494949"/>
</svg>
