<svg width="105" height="70" viewBox="0 0 105 70" fill="none" xmlns="http://www.w3.org/2000/svg">
<g filter="url(#filter0_d)">
<rect x="10" y="6" width="85" height="50" rx="5" fill="#F5F5F5"/>
</g>
<path d="M28.3281 24.625V32.3594C28.3229 33.4323 27.9844 34.3099 27.3125 34.9922C26.6458 35.6745 25.7396 36.0573 24.5938 36.1406L24.1953 36.1562C22.9505 36.1562 21.9583 35.8203 21.2188 35.1484C20.4792 34.4766 20.1042 33.5521 20.0938 32.375V24.625H21.5781V32.3281C21.5781 33.151 21.8047 33.7917 22.2578 34.25C22.7109 34.7031 23.3568 34.9297 24.1953 34.9297C25.0443 34.9297 25.6927 34.7031 26.1406 34.25C26.5938 33.7969 26.8203 33.1589 26.8203 32.3359V24.625H28.3281ZM34.0469 30.9297C32.7604 30.5599 31.8229 30.1068 31.2344 29.5703C30.651 29.0286 30.3594 28.362 30.3594 27.5703C30.3594 26.6745 30.7161 25.9349 31.4297 25.3516C32.1484 24.763 33.0807 24.4688 34.2266 24.4688C35.0078 24.4688 35.7031 24.6198 36.3125 24.9219C36.9271 25.224 37.401 25.6406 37.7344 26.1719C38.0729 26.7031 38.2422 27.2839 38.2422 27.9141H36.7344C36.7344 27.2266 36.5156 26.6875 36.0781 26.2969C35.6406 25.901 35.0234 25.7031 34.2266 25.7031C33.487 25.7031 32.9089 25.8672 32.4922 26.1953C32.0807 26.5182 31.875 26.9688 31.875 27.5469C31.875 28.0104 32.0703 28.4036 32.4609 28.7266C32.8568 29.0443 33.526 29.3359 34.4688 29.6016C35.4167 29.8672 36.1562 30.1615 36.6875 30.4844C37.224 30.8021 37.6198 31.1745 37.875 31.6016C38.1354 32.0286 38.2656 32.5312 38.2656 33.1094C38.2656 34.0312 37.9062 34.7708 37.1875 35.3281C36.4688 35.8802 35.5078 36.1562 34.3047 36.1562C33.5234 36.1562 32.7943 36.0078 32.1172 35.7109C31.4401 35.4089 30.9167 34.9974 30.5469 34.4766C30.1823 33.9557 30 33.3646 30 32.7031H31.5078C31.5078 33.3906 31.7604 33.9349 32.2656 34.3359C32.776 34.7318 33.4557 34.9297 34.3047 34.9297C35.0964 34.9297 35.7031 34.7682 36.125 34.4453C36.5469 34.1224 36.7578 33.6823 36.7578 33.125C36.7578 32.5677 36.5625 32.138 36.1719 31.8359C35.7812 31.5286 35.0729 31.2266 34.0469 30.9297ZM40.1953 36V24.625H43.4062C44.3958 24.625 45.2708 24.8438 46.0312 25.2812C46.7917 25.7188 47.3776 26.3411 47.7891 27.1484C48.2057 27.9557 48.4167 28.8828 48.4219 29.9297V30.6562C48.4219 31.7292 48.2135 32.6693 47.7969 33.4766C47.3854 34.2839 46.7943 34.9036 46.0234 35.3359C45.2578 35.7682 44.3646 35.9896 43.3438 36H40.1953ZM41.6953 25.8594V34.7734H43.2734C44.4297 34.7734 45.3281 34.4141 45.9688 33.6953C46.6146 32.9766 46.9375 31.9531 46.9375 30.625V29.9609C46.9375 28.6693 46.6328 27.6667 46.0234 26.9531C45.4193 26.2344 44.5599 25.8698 43.4453 25.8594H41.6953ZM50.7578 36.9766H49.5156L54.2656 24.625H55.5L50.7578 36.9766ZM63.7188 30.7422H58.7891V34.7734H64.5156V36H57.2891V24.625H64.4375V25.8594H58.7891V29.5156H63.7188V30.7422ZM74.3906 24.625V32.3594C74.3854 33.4323 74.0469 34.3099 73.375 34.9922C72.7083 35.6745 71.8021 36.0573 70.6562 36.1406L70.2578 36.1562C69.013 36.1562 68.0208 35.8203 67.2812 35.1484C66.5417 34.4766 66.1667 33.5521 66.1562 32.375V24.625H67.6406V32.3281C67.6406 33.151 67.8672 33.7917 68.3203 34.25C68.7734 34.7031 69.4193 34.9297 70.2578 34.9297C71.1068 34.9297 71.7552 34.7031 72.2031 34.25C72.6562 33.7969 72.8828 33.1589 72.8828 32.3359V24.625H74.3906ZM80.9297 31.3984H78.2578V36H76.75V24.625H80.5156C81.7969 24.625 82.7812 24.9167 83.4688 25.5C84.1615 26.0833 84.5078 26.9323 84.5078 28.0469C84.5078 28.7552 84.3151 29.3724 83.9297 29.8984C83.5495 30.4245 83.0182 30.8177 82.3359 31.0781L85.0078 35.9062V36H83.3984L80.9297 31.3984ZM78.2578 30.1719H80.5625C81.3073 30.1719 81.8984 29.9792 82.3359 29.5938C82.7786 29.2083 83 28.6927 83 28.0469C83 27.3438 82.7891 26.8047 82.3672 26.4297C81.9505 26.0547 81.3464 25.8646 80.5547 25.8594H78.2578V30.1719Z" fill="#494949"/>
<defs>
<filter id="filter0_d" x="0" y="0" width="105" height="70" filterUnits="userSpaceOnUse" color-interpolation-filters="sRGB">
<feFlood flood-opacity="0" result="BackgroundImageFix"/>
<feColorMatrix in="SourceAlpha" type="matrix" values="0 0 0 0 0 0 0 0 0 0 0 0 0 0 0 0 0 0 127 0"/>
<feOffset dy="4"/>
<feGaussianBlur stdDeviation="5"/>
<feColorMatrix type="matrix" values="0 0 0 0 0 0 0 0 0 0 0 0 0 0 0 0 0 0 0.25 0"/>
<feBlend mode="normal" in2="BackgroundImageFix" result="effect1_dropShadow"/>
<feBlend mode="normal" in="SourceGraphic" in2="effect1_dropShadow" result="shape"/>
</filter>
</defs>
</svg>
