<svg width="31" height="29" viewBox="0 0 31 29" fill="none" xmlns="http://www.w3.org/2000/svg">
<path d="M1.4585 5.69009H18.1577" stroke="#494949" stroke-width="2" stroke-linecap="round"/>
<path d="M29.5835 14.4792L12.8843 14.4792" stroke="#494949" stroke-width="2" stroke-linecap="round"/>
<path d="M29.5835 24.1471H24.3101" stroke="#494949" stroke-width="2" stroke-linecap="round"/>
<path d="M14.6421 24.1471H1.4585" stroke="#494949" stroke-width="2" stroke-linecap="round"/>
<path d="M27.8257 5.69009H29.5835" stroke="#494949" stroke-width="2" stroke-linecap="round"/>
<path d="M3.21631 14.4792L1.4585 14.4792" stroke="#494949" stroke-width="2" stroke-linecap="round"/>
<circle cx="22.9917" cy="5.25064" r="3.83398" stroke="#494949" stroke-width="2"/>
<path d="M15.6421 23.7077C15.6421 21.5902 17.3586 19.8737 19.4761 19.8737C21.5935 19.8737 23.3101 21.5902 23.3101 23.7077C23.3101 25.8251 21.5935 27.5417 19.4761 27.5417C17.3586 27.5417 15.6421 25.8251 15.6421 23.7077Z" stroke="#494949" stroke-width="2"/>
<path d="M4.21631 14.0397C4.21631 11.9223 5.93284 10.2057 8.05029 10.2057C10.1677 10.2057 11.8843 11.9223 11.8843 14.0397C11.8843 16.1572 10.1677 17.8737 8.05029 17.8737C5.93284 17.8737 4.21631 16.1572 4.21631 14.0397Z" stroke="#494949" stroke-width="2"/>
</svg>
