<svg width="101" height="11" viewBox="0 0 101 11" fill="none" xmlns="http://www.w3.org/2000/svg">
<path d="M2.10938 6.22852C2.1875 6.8457 2.37305 7.28516 2.66602 7.54688C2.96289 7.80859 3.39844 7.93945 3.97266 7.93945C4.58203 7.93945 5.05273 7.7168 5.38477 7.27148C5.7207 6.82617 5.90039 6.18359 5.92383 5.34375H2.91211V4.14844H5.92383C5.89258 3.30469 5.70312 2.66016 5.35547 2.21484C5.01172 1.76953 4.52734 1.54688 3.90234 1.54688C3.35547 1.54688 2.93555 1.68359 2.64258 1.95703C2.35352 2.23047 2.17383 2.67578 2.10352 3.29297H0.626953C0.720703 2.36328 1.05273 1.64062 1.62305 1.125C2.19727 0.609375 2.95703 0.351562 3.90234 0.351562C4.60156 0.351562 5.2168 0.515625 5.74805 0.84375C6.2793 1.17188 6.6875 1.64062 6.97266 2.25C7.26172 2.85938 7.4082 3.56445 7.41211 4.36523V5.08594C7.41211 5.89453 7.27148 6.60547 6.99023 7.21875C6.71289 7.82812 6.3125 8.29688 5.78906 8.625C5.26562 8.95312 4.66016 9.11719 3.97266 9.11719C3.00391 9.11719 2.22656 8.86328 1.64062 8.35547C1.05469 7.84375 0.71875 7.13477 0.632812 6.22852H2.10938ZM10.9512 6.49219H10.2305V9H8.80664V2.66016H10.2305V5.19141H10.8574L12.6094 2.66016H14.3672L12.0762 5.69531L14.5605 9H12.709L10.9512 6.49219ZM17.8535 7.98047C18.209 7.98047 18.5039 7.87695 18.7383 7.66992C18.9727 7.46289 19.0977 7.20703 19.1133 6.90234H20.4551C20.4395 7.29688 20.3164 7.66602 20.0859 8.00977C19.8555 8.34961 19.543 8.61914 19.1484 8.81836C18.7539 9.01758 18.3281 9.11719 17.8711 9.11719C16.9844 9.11719 16.2812 8.83008 15.7617 8.25586C15.2422 7.68164 14.9824 6.88867 14.9824 5.87695V5.73047C14.9824 4.76562 15.2402 3.99414 15.7559 3.41602C16.2715 2.83398 16.9746 2.54297 17.8652 2.54297C18.6191 2.54297 19.2324 2.76367 19.7051 3.20508C20.1816 3.64258 20.4316 4.21875 20.4551 4.93359H19.1133C19.0977 4.57031 18.9727 4.27148 18.7383 4.03711C18.5078 3.80273 18.2129 3.68555 17.8535 3.68555C17.3926 3.68555 17.0371 3.85352 16.7871 4.18945C16.5371 4.52148 16.4102 5.02734 16.4062 5.70703V5.93555C16.4062 6.62305 16.5293 7.13672 16.7754 7.47656C17.0254 7.8125 17.3848 7.98047 17.8535 7.98047ZM23.7832 6.49219H23.0625V9H21.6387V2.66016H23.0625V5.19141H23.6895L25.4414 2.66016H27.1992L24.9082 5.69531L27.3926 9H25.541L23.7832 6.49219ZM33.5625 2.66016V9H32.1387V3.80859H30.3457L30.2285 6.01758C30.1543 7.08008 29.9492 7.84375 29.6133 8.30859C29.2812 8.76953 28.7715 9 28.084 9H27.6445L27.6387 7.81641L27.9316 7.78711C28.2441 7.74414 28.4707 7.55469 28.6113 7.21875C28.7559 6.87891 28.8477 6.26172 28.8867 5.36719L29.0039 2.66016H33.5625ZM36.6211 5.20898H37.8164C37.9219 4.40039 38.2344 3.75391 38.7539 3.26953C39.2734 2.78516 39.9297 2.54297 40.7227 2.54297C41.5781 2.54297 42.2715 2.81836 42.8027 3.36914C43.3379 3.91992 43.627 4.65039 43.6699 5.56055L43.6758 5.89453C43.6758 6.51953 43.5547 7.07812 43.3125 7.57031C43.0742 8.0625 42.7305 8.44336 42.2812 8.71289C41.8359 8.98242 41.3203 9.11719 40.7344 9.11719C39.9141 9.11719 39.2402 8.86328 38.7129 8.35547C38.1895 7.84766 37.8867 7.17969 37.8047 6.35156H36.6211V9H35.1973V2.66016H36.6211V5.20898ZM39.2051 5.89453C39.2051 6.54688 39.3398 7.05859 39.6094 7.42969C39.8789 7.79688 40.2539 7.98047 40.7344 7.98047C41.2148 7.98047 41.5879 7.79297 41.8535 7.41797C42.1191 7.04297 42.252 6.49414 42.252 5.77148C42.252 5.11914 42.1133 4.60938 41.8359 4.24219C41.5625 3.87109 41.1914 3.68555 40.7227 3.68555C40.2578 3.68555 39.8887 3.87109 39.6152 4.24219C39.3418 4.60938 39.2051 5.16016 39.2051 5.89453ZM49.6523 4.39453C49.6523 4.67578 49.5664 4.93555 49.3945 5.17383C49.2266 5.4082 48.9883 5.5957 48.6797 5.73633C49.4062 5.99023 49.7695 6.48047 49.7695 7.20703C49.7695 7.78906 49.5332 8.25391 49.0605 8.60156C48.5879 8.94531 47.9551 9.11719 47.1621 9.11719C46.6777 9.11719 46.2363 9.03711 45.8379 8.87695C45.4395 8.71289 45.1289 8.48242 44.9062 8.18555C44.6836 7.88477 44.5723 7.5293 44.5723 7.11914H45.9902C45.9902 7.37695 46.1055 7.59375 46.3359 7.76953C46.5664 7.94141 46.8574 8.02734 47.209 8.02734C47.5566 8.02734 47.832 7.94727 48.0352 7.78711C48.2422 7.62305 48.3457 7.41016 48.3457 7.14844C48.3457 6.83984 48.2559 6.61719 48.0762 6.48047C47.8965 6.34375 47.6191 6.27539 47.2441 6.27539H46.2246V5.25H47.2793C47.916 5.24219 48.2344 4.98047 48.2344 4.46484C48.2344 4.20703 48.1426 4.00586 47.959 3.86133C47.7754 3.7168 47.5234 3.64453 47.2031 3.64453C46.8906 3.64453 46.627 3.72266 46.4121 3.87891C46.1973 4.03125 46.0898 4.22461 46.0898 4.45898H44.6719C44.6719 3.90039 44.9062 3.44336 45.375 3.08789C45.8438 2.72852 46.4395 2.54883 47.1621 2.54883C47.9473 2.54883 48.5586 2.70898 48.9961 3.0293C49.4336 3.34961 49.6523 3.80469 49.6523 4.39453ZM54.9375 2.66016H56.3555V9H54.9375V4.76953L52.4531 9H51.0352V2.66016H52.4531V6.89062L54.9375 2.66016ZM57.9785 9V2.66016H60.5508C61.418 2.66016 62.0781 2.8125 62.5312 3.11719C62.9844 3.41797 63.2109 3.85156 63.2109 4.41797C63.2109 4.71094 63.1191 4.97461 62.9355 5.20898C62.7559 5.43945 62.4883 5.61719 62.1328 5.74219C62.5469 5.82812 62.875 6.00195 63.1172 6.26367C63.3594 6.52539 63.4805 6.83398 63.4805 7.18945C63.4805 7.7793 63.2617 8.22852 62.8242 8.53711C62.3906 8.8457 61.7656 9 60.9492 9H57.9785ZM59.4023 6.29883V7.875H60.9609C61.6914 7.875 62.0566 7.61328 62.0566 7.08984C62.0566 6.5625 61.6855 6.29883 60.9434 6.29883H59.4023ZM59.4023 5.2793H60.5742C61.3828 5.2793 61.7871 5.04102 61.7871 4.56445C61.7871 4.06445 61.4043 3.80664 60.6387 3.79102H59.4023V5.2793ZM70.084 9H68.6602V6.43945H66.1934V9H64.7695V2.66016H66.1934V5.30273H68.6602V2.66016H70.084V9ZM71.3379 5.77148C71.3379 5.15039 71.4609 4.5918 71.707 4.0957C71.9531 3.5957 72.2988 3.21289 72.7441 2.94727C73.1895 2.67773 73.7012 2.54297 74.2793 2.54297C75.1348 2.54297 75.8281 2.81836 76.3594 3.36914C76.8945 3.91992 77.1836 4.65039 77.2266 5.56055L77.2324 5.89453C77.2324 6.51953 77.1113 7.07812 76.8691 7.57031C76.6309 8.0625 76.2871 8.44336 75.8379 8.71289C75.3926 8.98242 74.877 9.11719 74.291 9.11719C73.3965 9.11719 72.6797 8.82031 72.1406 8.22656C71.6055 7.62891 71.3379 6.83398 71.3379 5.8418V5.77148ZM72.7617 5.89453C72.7617 6.54688 72.8965 7.05859 73.166 7.42969C73.4355 7.79688 73.8105 7.98047 74.291 7.98047C74.7715 7.98047 75.1445 7.79297 75.4102 7.41797C75.6797 7.04297 75.8145 6.49414 75.8145 5.77148C75.8145 5.13086 75.6758 4.62305 75.3984 4.24805C75.125 3.87305 74.752 3.68555 74.2793 3.68555C73.8145 3.68555 73.4453 3.87109 73.1719 4.24219C72.8984 4.60938 72.7617 5.16016 72.7617 5.89453ZM81.4512 7.86328C81.8457 7.42188 82.1094 7.00391 82.2422 6.60938C82.3789 6.21094 82.4609 5.70312 82.4883 5.08594L82.5703 2.66016H86.9707V7.86328H87.8496V10.8867H86.4316V9H82.3652V10.8867H80.9238L80.9297 7.86328H81.4512ZM83.1211 7.86328H85.5527V3.88477H83.9531L83.9121 5.09766C83.8574 6.26172 83.5938 7.18359 83.1211 7.86328ZM94.2539 2.66016V9H92.8301V3.80859H91.0371L90.9199 6.01758C90.8457 7.08008 90.6406 7.84375 90.3047 8.30859C89.9727 8.76953 89.4629 9 88.7754 9H88.3359L88.3301 7.81641L88.623 7.78711C88.9355 7.74414 89.1621 7.55469 89.3027 7.21875C89.4473 6.87891 89.5391 6.26172 89.5781 5.36719L89.6953 2.66016H94.2539ZM100.846 2.66016V9H99.4277V6.67383H98.0977L96.7441 9H95.2676L96.7617 6.43945C96.3711 6.27539 96.0703 6.04102 95.8594 5.73633C95.6523 5.43164 95.5488 5.08203 95.5488 4.6875C95.5488 4.09766 95.7754 3.61523 96.2285 3.24023C96.6855 2.86133 97.3008 2.66797 98.0742 2.66016H100.846ZM96.9727 4.72266C96.9727 4.98828 97.0703 5.20508 97.2656 5.37305C97.4648 5.53711 97.7188 5.61914 98.0273 5.61914H99.4277V3.79102H98.1152C97.7676 3.79102 97.4902 3.87891 97.2832 4.05469C97.0762 4.23047 96.9727 4.45312 96.9727 4.72266Z" fill="black"/>
</svg>
