<svg width="96" height="12" viewBox="0 0 96 12" fill="none" xmlns="http://www.w3.org/2000/svg">
<path d="M2.20508 5.16797H1.16797V9H0.0429688V0.46875H1.16797V4.23047H2.04688L5.0293 0.46875H6.42969L3.17188 4.60547L6.66992 9H5.29297L2.20508 5.16797ZM7.08008 5.77148C7.08008 5.15039 7.20117 4.5918 7.44336 4.0957C7.68945 3.59961 8.0293 3.2168 8.46289 2.94727C8.90039 2.67773 9.39844 2.54297 9.95703 2.54297C10.8203 2.54297 11.5176 2.8418 12.0488 3.43945C12.584 4.03711 12.8516 4.83203 12.8516 5.82422V5.90039C12.8516 6.51758 12.7324 7.07227 12.4941 7.56445C12.2598 8.05273 11.9219 8.43359 11.4805 8.70703C11.043 8.98047 10.5391 9.11719 9.96875 9.11719C9.10938 9.11719 8.41211 8.81836 7.87695 8.2207C7.3457 7.62305 7.08008 6.83203 7.08008 5.84766V5.77148ZM8.16992 5.90039C8.16992 6.60352 8.33203 7.16797 8.65625 7.59375C8.98438 8.01953 9.42188 8.23242 9.96875 8.23242C10.5195 8.23242 10.957 8.01758 11.2812 7.58789C11.6055 7.1543 11.7676 6.54883 11.7676 5.77148C11.7676 5.07617 11.6016 4.51367 11.2695 4.08398C10.9414 3.65039 10.5039 3.43359 9.95703 3.43359C9.42188 3.43359 8.99023 3.64648 8.66211 4.07227C8.33398 4.49805 8.16992 5.10742 8.16992 5.90039ZM16.4375 3.43359C16.0508 3.43359 15.7148 3.55664 15.4297 3.80273C15.1484 4.04883 15.0078 4.33984 15.0078 4.67578H13.9766C13.9766 4.3125 14.0918 3.96484 14.3223 3.63281C14.5527 3.30078 14.8594 3.03711 15.2422 2.8418C15.625 2.64258 16.0234 2.54297 16.4375 2.54297C17.2617 2.54297 17.9277 2.8418 18.4355 3.43945C18.9473 4.0332 19.2031 4.81055 19.2031 5.77148V5.95312C19.2031 6.54688 19.0859 7.08984 18.8516 7.58203C18.6211 8.07031 18.2949 8.44922 17.873 8.71875C17.4551 8.98438 16.9766 9.11719 16.4375 9.11719C15.7344 9.11719 15.1484 8.89844 14.6797 8.46094C14.2109 8.02344 13.9766 7.47852 13.9766 6.82617H15.0078C15.0078 7.22461 15.1465 7.56055 15.4238 7.83398C15.7012 8.10352 16.0391 8.23828 16.4375 8.23828C16.9023 8.23828 17.2852 8.05859 17.5859 7.69922C17.8867 7.33984 18.0605 6.8457 18.1074 6.2168H15.7285V5.32617H18.0957C18.041 4.75586 17.8672 4.29883 17.5742 3.95508C17.2812 3.60742 16.9023 3.43359 16.4375 3.43359ZM20.4336 5.94727C20.4336 4.88867 20.6387 4.05664 21.0488 3.45117C21.459 2.8457 22.0215 2.54297 22.7363 2.54297C23.0684 2.54297 23.3594 2.59961 23.6094 2.71289V0H24.6934V2.74805C24.9668 2.61133 25.2871 2.54297 25.6543 2.54297C26.373 2.54297 26.9375 2.8457 27.3477 3.45117C27.7578 4.05664 27.9629 4.92969 27.9629 6.07031C27.9629 7.00391 27.7578 7.74609 27.3477 8.29688C26.9414 8.84766 26.3809 9.12305 25.666 9.12305C25.2871 9.12305 24.9629 9.06055 24.6934 8.93555V11.4375H23.6094V8.95312C23.3516 9.06641 23.0566 9.12305 22.7246 9.12305C22.0137 9.12305 21.4531 8.84766 21.043 8.29688C20.6367 7.74609 20.4336 6.99219 20.4336 6.03516V5.94727ZM26.8789 5.94727C26.8789 5.15039 26.7422 4.5332 26.4688 4.0957C26.1953 3.6543 25.8184 3.43359 25.3379 3.43359C25.0918 3.43359 24.877 3.47266 24.6934 3.55078V8.13867C24.8691 8.20508 25.0879 8.23828 25.3496 8.23828C25.834 8.23828 26.209 8.05078 26.4746 7.67578C26.7441 7.30078 26.8789 6.72461 26.8789 5.94727ZM21.5176 6.07031C21.5176 6.78125 21.6445 7.32031 21.8984 7.6875C22.1523 8.05469 22.5176 8.23828 22.9941 8.23828C23.2207 8.23828 23.4258 8.20312 23.6094 8.13281V3.5332C23.4453 3.4668 23.2441 3.43359 23.0059 3.43359C22.5293 3.43359 22.1621 3.64648 21.9043 4.07227C21.6465 4.49805 21.5176 5.16406 21.5176 6.07031ZM29.1406 5.94727C29.1406 4.88867 29.3457 4.05664 29.7559 3.45117C30.166 2.8457 30.7285 2.54297 31.4434 2.54297C31.7754 2.54297 32.0664 2.59961 32.3164 2.71289V0H33.4004V2.74805C33.6738 2.61133 33.9941 2.54297 34.3613 2.54297C35.0801 2.54297 35.6445 2.8457 36.0547 3.45117C36.4648 4.05664 36.6699 4.92969 36.6699 6.07031C36.6699 7.00391 36.4648 7.74609 36.0547 8.29688C35.6484 8.84766 35.0879 9.12305 34.373 9.12305C33.9941 9.12305 33.6699 9.06055 33.4004 8.93555V11.4375H32.3164V8.95312C32.0586 9.06641 31.7637 9.12305 31.4316 9.12305C30.7207 9.12305 30.1602 8.84766 29.75 8.29688C29.3438 7.74609 29.1406 6.99219 29.1406 6.03516V5.94727ZM35.5859 5.94727C35.5859 5.15039 35.4492 4.5332 35.1758 4.0957C34.9023 3.6543 34.5254 3.43359 34.0449 3.43359C33.7988 3.43359 33.584 3.47266 33.4004 3.55078V8.13867C33.5762 8.20508 33.7949 8.23828 34.0566 8.23828C34.541 8.23828 34.916 8.05078 35.1816 7.67578C35.4512 7.30078 35.5859 6.72461 35.5859 5.94727ZM30.2246 6.07031C30.2246 6.78125 30.3516 7.32031 30.6055 7.6875C30.8594 8.05469 31.2246 8.23828 31.7012 8.23828C31.9277 8.23828 32.1328 8.20312 32.3164 8.13281V3.5332C32.1523 3.4668 31.9512 3.43359 31.7129 3.43359C31.2363 3.43359 30.8691 3.64648 30.6113 4.07227C30.3535 4.49805 30.2246 5.16406 30.2246 6.07031ZM42.1836 2.66016H43.2676V9H42.1836V4.37695L39.2598 9H38.1758V2.66016H39.2598V7.28906L42.1836 2.66016ZM45.1016 2.66016H46.1914V8.11523H49.1094V2.66016H50.1934V8.11523H50.9492L50.8438 10.8809H49.8711V9H45.1016V2.66016ZM56.2227 2.66016H57.3066V9H56.2227V4.37695L53.2988 9H52.2148V2.66016H53.2988V7.28906L56.2227 2.66016ZM61.6777 9.11719C60.8184 9.11719 60.1191 8.83594 59.5801 8.27344C59.041 7.70703 58.7715 6.95117 58.7715 6.00586V5.80664C58.7715 5.17773 58.8906 4.61719 59.1289 4.125C59.3711 3.62891 59.707 3.24219 60.1367 2.96484C60.5703 2.68359 61.0391 2.54297 61.543 2.54297C62.3672 2.54297 63.0078 2.81445 63.4648 3.35742C63.9219 3.90039 64.1504 4.67773 64.1504 5.68945V6.14062H59.8555C59.8711 6.76562 60.0527 7.27148 60.4004 7.6582C60.752 8.04102 61.1973 8.23242 61.7363 8.23242C62.1191 8.23242 62.4434 8.1543 62.709 7.99805C62.9746 7.8418 63.207 7.63477 63.4062 7.37695L64.0684 7.89258C63.5371 8.70898 62.7402 9.11719 61.6777 9.11719ZM61.543 3.43359C61.1055 3.43359 60.7383 3.59375 60.4414 3.91406C60.1445 4.23047 59.9609 4.67578 59.8906 5.25H63.0664V5.16797C63.0352 4.61719 62.8867 4.19141 62.6211 3.89062C62.3555 3.58594 61.9961 3.43359 61.543 3.43359ZM70.5898 9H69.5059V6.29297H66.5938V9H65.5039V2.66016H66.5938V5.4082H69.5059V2.66016H70.5898V9ZM77.0469 3.53906H74.9199V9H73.8359V3.53906H71.75V2.66016H77.0469V3.53906ZM82.25 6.29297C82.3594 6.99609 82.5801 7.49023 82.9121 7.77539C83.248 8.05664 83.7285 8.19727 84.3535 8.19727C85.0293 8.19727 85.5625 7.93359 85.9531 7.40625C86.3477 6.87891 86.5488 6.14648 86.5566 5.20898H83.1992V4.2832H86.5566C86.5566 3.35742 86.3535 2.625 85.9473 2.08594C85.5449 1.54688 84.9805 1.27734 84.2539 1.27734C83.668 1.27734 83.2109 1.42969 82.8828 1.73438C82.5586 2.03906 82.3477 2.53125 82.25 3.21094H81.1191C81.209 2.31641 81.5273 1.61719 82.0742 1.11328C82.6211 0.605469 83.3477 0.351562 84.2539 0.351562C84.9414 0.351562 85.5449 0.515625 86.0645 0.84375C86.5879 1.16797 86.9883 1.63281 87.2656 2.23828C87.5469 2.83984 87.6875 3.5332 87.6875 4.31836V5.16797C87.6875 5.95312 87.5488 6.64648 87.2715 7.24805C86.9941 7.84961 86.6016 8.3125 86.0938 8.63672C85.5898 8.95703 85.0098 9.11719 84.3535 9.11719C83.4238 9.11719 82.6777 8.87305 82.1152 8.38477C81.5566 7.89258 81.2246 7.19531 81.1191 6.29297H82.25ZM94.5371 1.39453H90.4238V3.94922H92.5449C93.4355 3.96094 94.1309 4.18945 94.6309 4.63477C95.1309 5.08008 95.3809 5.68555 95.3809 6.45117C95.3809 7.2207 95.1289 7.83398 94.625 8.29102C94.1211 8.74805 93.4336 8.98438 92.5625 9H89.293V0.46875H94.5371V1.39453ZM90.4238 4.875V8.08008H92.4805C93.0391 8.08008 93.4727 7.93164 93.7812 7.63477C94.0938 7.33789 94.25 6.93945 94.25 6.43945C94.25 5.95898 94.0996 5.58008 93.7988 5.30273C93.502 5.02539 93.0781 4.88281 92.5273 4.875H90.4238Z" fill="#494949"/>
</svg>
