<svg width="104" height="10" viewBox="0 0 104 10" fill="none" xmlns="http://www.w3.org/2000/svg">
<path d="M7.71094 9H5.94727V1.89258H2.53125V9H0.773438V0.46875H7.71094V9ZM8.88281 5.77148C8.88281 5.14258 9.00391 4.58203 9.24609 4.08984C9.48828 3.59766 9.83594 3.2168 10.2891 2.94727C10.7461 2.67773 11.2754 2.54297 11.877 2.54297C12.7324 2.54297 13.4297 2.80469 13.9688 3.32812C14.5117 3.85156 14.8145 4.5625 14.877 5.46094L14.8887 5.89453C14.8887 6.86719 14.6172 7.64844 14.0742 8.23828C13.5312 8.82422 12.8027 9.11719 11.8887 9.11719C10.9746 9.11719 10.2441 8.82422 9.69727 8.23828C9.1543 7.65234 8.88281 6.85547 8.88281 5.84766V5.77148ZM10.5762 5.89453C10.5762 6.49609 10.6895 6.95703 10.916 7.27734C11.1426 7.59375 11.4668 7.75195 11.8887 7.75195C12.2988 7.75195 12.6191 7.5957 12.8496 7.2832C13.0801 6.9668 13.1953 6.46289 13.1953 5.77148C13.1953 5.18164 13.0801 4.72461 12.8496 4.40039C12.6191 4.07617 12.2949 3.91406 11.877 3.91406C11.4629 3.91406 11.1426 4.07617 10.916 4.40039C10.6895 4.7207 10.5762 5.21875 10.5762 5.89453ZM21.3516 2.66016V9H19.6582V4.03125H18.1641L18.0586 5.98828C17.9922 7.03125 17.7871 7.79102 17.4434 8.26758C17.0996 8.74414 16.5879 8.98828 15.9082 9H15.334L15.3164 7.62305L15.5273 7.60547C15.832 7.58203 16.0547 7.40234 16.1953 7.06641C16.3359 6.73047 16.4238 6.1582 16.459 5.34961L16.5762 2.66016H21.3516ZM25.5762 9.11719C24.6465 9.11719 23.8887 8.83203 23.3027 8.26172C22.7207 7.69141 22.4297 6.93164 22.4297 5.98242V5.81836C22.4297 5.18164 22.5527 4.61328 22.7988 4.11328C23.0449 3.60938 23.3926 3.22266 23.8418 2.95312C24.2949 2.67969 24.8105 2.54297 25.3887 2.54297C26.2559 2.54297 26.9375 2.81641 27.4336 3.36328C27.9336 3.91016 28.1836 4.68555 28.1836 5.68945V6.38086H24.1465C24.2012 6.79492 24.3652 7.12695 24.6387 7.37695C24.916 7.62695 25.2656 7.75195 25.6875 7.75195C26.3398 7.75195 26.8496 7.51562 27.2168 7.04297L28.0488 7.97461C27.7949 8.33398 27.4512 8.61523 27.0176 8.81836C26.584 9.01758 26.1035 9.11719 25.5762 9.11719ZM25.3828 3.91406C25.0469 3.91406 24.7734 4.02734 24.5625 4.25391C24.3555 4.48047 24.2227 4.80469 24.1641 5.22656H26.5195V5.0918C26.5117 4.7168 26.4102 4.42773 26.2148 4.22461C26.0195 4.01758 25.7422 3.91406 25.3828 3.91406ZM32.4785 4.5293C32.4785 4.30664 32.4043 4.13477 32.2559 4.01367C32.1113 3.88867 31.9043 3.82617 31.6348 3.82617C31.3574 3.82617 31.1309 3.88477 30.9551 4.00195C30.7832 4.11523 30.6973 4.27734 30.6973 4.48828H29.0039C29.0039 3.91406 29.2422 3.44727 29.7188 3.08789C30.1953 2.72852 30.8047 2.54883 31.5469 2.54883C32.3633 2.54883 33.0039 2.70898 33.4688 3.0293C33.9375 3.34961 34.1719 3.80469 34.1719 4.39453C34.1719 4.67578 34.0859 4.93555 33.9141 5.17383C33.7461 5.4082 33.5078 5.5957 33.1992 5.73633C33.9219 5.99023 34.2832 6.48047 34.2832 7.20703C34.2832 7.78906 34.0332 8.25391 33.5332 8.60156C33.0371 8.94531 32.375 9.11719 31.5469 9.11719C30.7773 9.11719 30.1445 8.9375 29.6484 8.57812C29.1523 8.21875 28.9043 7.73438 28.9043 7.125H30.5977C30.5977 7.33984 30.6934 7.51367 30.8848 7.64648C31.0762 7.7793 31.3262 7.8457 31.6348 7.8457C31.9355 7.8457 32.1699 7.77539 32.3379 7.63477C32.5059 7.49414 32.5898 7.31055 32.5898 7.08398C32.5898 6.80664 32.5098 6.60938 32.3496 6.49219C32.1895 6.37109 31.9492 6.31055 31.6289 6.31055H30.709V5.20898H31.6875C32.2148 5.19336 32.4785 4.9668 32.4785 4.5293ZM40.8105 9H39.1113V6.5625H37.0078V9H35.3145V2.66016H37.0078V5.20312H39.1113V2.66016H40.8105V9ZM43.9336 4.51758H45.1465C45.6934 4.51758 46.1738 4.60938 46.5879 4.79297C47.002 4.97656 47.3184 5.24023 47.5371 5.58398C47.7598 5.92383 47.8711 6.32031 47.8711 6.77344C47.8711 7.44141 47.623 7.98047 47.127 8.39062C46.6348 8.79688 45.9629 9 45.1113 9H42.2344V2.66016H43.9336V4.51758ZM50.5664 9H48.873V2.66016H50.5664V9ZM43.9336 5.87695V7.64648H45.1348C45.4707 7.64648 45.7285 7.56836 45.9082 7.41211C46.0879 7.25586 46.1777 7.04297 46.1777 6.77344C46.1777 6.5 46.0898 6.2832 45.9141 6.12305C45.7383 5.95898 45.4785 5.87695 45.1348 5.87695H43.9336ZM54.9785 9.11719C54.0488 9.11719 53.291 8.83203 52.7051 8.26172C52.123 7.69141 51.832 6.93164 51.832 5.98242V5.81836C51.832 5.18164 51.9551 4.61328 52.2012 4.11328C52.4473 3.60938 52.7949 3.22266 53.2441 2.95312C53.6973 2.67969 54.2129 2.54297 54.791 2.54297C55.6582 2.54297 56.3398 2.81641 56.8359 3.36328C57.3359 3.91016 57.5859 4.68555 57.5859 5.68945V6.38086H53.5488C53.6035 6.79492 53.7676 7.12695 54.041 7.37695C54.3184 7.62695 54.668 7.75195 55.0898 7.75195C55.7422 7.75195 56.252 7.51562 56.6191 7.04297L57.4512 7.97461C57.1973 8.33398 56.8535 8.61523 56.4199 8.81836C55.9863 9.01758 55.5059 9.11719 54.9785 9.11719ZM54.7852 3.91406C54.4492 3.91406 54.1758 4.02734 53.9648 4.25391C53.7578 4.48047 53.625 4.80469 53.5664 5.22656H55.9219V5.0918C55.9141 4.7168 55.8125 4.42773 55.6172 4.22461C55.4219 4.01758 55.1445 3.91406 54.7852 3.91406ZM64.1777 7.75195C64.4902 7.75195 64.7441 7.66602 64.9395 7.49414C65.1348 7.32227 65.2363 7.09375 65.2441 6.80859H66.832C66.8281 7.23828 66.7109 7.63281 66.4805 7.99219C66.25 8.34766 65.9336 8.625 65.5312 8.82422C65.1328 9.01953 64.6914 9.11719 64.207 9.11719C63.3008 9.11719 62.5859 8.83008 62.0625 8.25586C61.5391 7.67773 61.2773 6.88086 61.2773 5.86523V5.75391C61.2773 4.77734 61.5371 3.99805 62.0566 3.41602C62.5762 2.83398 63.2891 2.54297 64.1953 2.54297C64.9883 2.54297 65.623 2.76953 66.0996 3.22266C66.5801 3.67188 66.8242 4.27148 66.832 5.02148H65.2441C65.2363 4.69336 65.1348 4.42773 64.9395 4.22461C64.7441 4.01758 64.4863 3.91406 64.166 3.91406C63.7715 3.91406 63.4727 4.05859 63.2695 4.34766C63.0703 4.63281 62.9707 5.09766 62.9707 5.74219V5.91797C62.9707 6.57031 63.0703 7.03906 63.2695 7.32422C63.4688 7.60938 63.7715 7.75195 64.1777 7.75195ZM70.4355 7.75195C70.748 7.75195 71.002 7.66602 71.1973 7.49414C71.3926 7.32227 71.4941 7.09375 71.502 6.80859H73.0898C73.0859 7.23828 72.9688 7.63281 72.7383 7.99219C72.5078 8.34766 72.1914 8.625 71.7891 8.82422C71.3906 9.01953 70.9492 9.11719 70.4648 9.11719C69.5586 9.11719 68.8438 8.83008 68.3203 8.25586C67.7969 7.67773 67.5352 6.88086 67.5352 5.86523V5.75391C67.5352 4.77734 67.7949 3.99805 68.3145 3.41602C68.834 2.83398 69.5469 2.54297 70.4531 2.54297C71.2461 2.54297 71.8809 2.76953 72.3574 3.22266C72.8379 3.67188 73.082 4.27148 73.0898 5.02148H71.502C71.4941 4.69336 71.3926 4.42773 71.1973 4.22461C71.002 4.01758 70.7441 3.91406 70.4238 3.91406C70.0293 3.91406 69.7305 4.05859 69.5273 4.34766C69.3281 4.63281 69.2285 5.09766 69.2285 5.74219V5.91797C69.2285 6.57031 69.3281 7.03906 69.5273 7.32422C69.7266 7.60938 70.0293 7.75195 70.4355 7.75195ZM75.8672 4.51758H77.0801C77.627 4.51758 78.1074 4.60938 78.5215 4.79297C78.9355 4.97656 79.252 5.24023 79.4707 5.58398C79.6934 5.92383 79.8047 6.32031 79.8047 6.77344C79.8047 7.44141 79.5566 7.98047 79.0605 8.39062C78.5684 8.79688 77.8965 9 77.0449 9H74.168V2.66016H75.8672V4.51758ZM82.5 9H80.8066V2.66016H82.5V9ZM75.8672 5.87695V7.64648H77.0684C77.4043 7.64648 77.6621 7.56836 77.8418 7.41211C78.0215 7.25586 78.1113 7.04297 78.1113 6.77344C78.1113 6.5 78.0234 6.2832 77.8477 6.12305C77.6719 5.95898 77.4121 5.87695 77.0684 5.87695H75.8672ZM89.5078 2.66016V9H87.8145V4.03125H86.3203L86.2148 5.98828C86.1484 7.03125 85.9434 7.79102 85.5996 8.26758C85.2559 8.74414 84.7441 8.98828 84.0645 9H83.4902L83.4727 7.62305L83.6836 7.60547C83.9883 7.58203 84.2109 7.40234 84.3516 7.06641C84.4922 6.73047 84.5801 6.1582 84.6152 5.34961L84.7324 2.66016H89.5078ZM93.2988 6.66211H92.6191V9H90.9258V2.66016H92.6191V5.04492H93.2227L94.6055 2.66016H96.7441L94.6699 5.67773L96.9375 9H94.6816L93.2988 6.66211ZM101.396 2.66016H103.09V9H101.396V5.08594L99.2754 9H97.5762V2.66016H99.2754V6.56836L101.396 2.66016Z" fill="black"/>
</svg>
