<svg width="108" height="64" viewBox="0 0 108 64" fill="none" xmlns="http://www.w3.org/2000/svg">
<path d="M20.0349 13.8168C17.9961 13.8168 15.5411 14.1704 12.677 14.8845C9.81285 15.5987 7.21678 16.518 4.89584 17.6564L0 4.47597C3.85883 2.80013 7.41431 1.63341 10.6735 0.982875C13.9397 0.325268 17.2554 0 20.6274 0C30.1017 0 37.4243 2.76478 42.5952 8.29433C47.7733 13.8239 50.3552 21.6586 50.3552 31.8055C50.3552 42.2919 47.7803 50.2822 42.6376 55.7693C37.4878 61.2564 29.9817 64 20.1125 64C12.7687 64 6.20093 62.8191 0.416217 60.4645V46.3012C7.1674 48.9175 13.7281 50.2256 20.1125 50.2256C23.9148 50.2256 26.8777 49.2852 29.0012 47.4113C31.1246 45.5375 32.3168 42.8081 32.5707 39.2231H7.73882V25.6679H32.5778C32.3238 21.8566 31.0964 18.9292 28.8953 16.8856C26.7084 14.835 23.7526 13.8168 20.0349 13.8168Z" fill="url(#paint0_linear)"/>
<path d="M107.574 42.893C107.574 49.4337 105.338 54.44 100.873 57.919C96.4071 61.3979 89.9593 63.1445 81.5362 63.1445H61.593V0.813232H102.516V14.326H78.4816V23.8365H80.9083C89.6136 23.8365 96.2378 25.4205 100.774 28.5883C105.303 31.7561 107.574 36.522 107.574 42.893ZM78.4816 50.1408H80.739C84.2522 50.1408 86.7777 49.561 88.3085 48.3943C89.8393 47.2276 90.6083 45.5093 90.6083 43.2324C90.6083 40.9626 89.79 39.2797 88.1604 38.2049C86.5308 37.123 84.0264 36.5856 80.6543 36.5856H78.4816V50.1408Z" fill="url(#paint1_linear)"/>
<defs>
<linearGradient id="paint0_linear" x1="-10.3332" y1="11.9058" x2="87.4497" y2="79.5736" gradientUnits="userSpaceOnUse">
<stop stop-color="#1F48E8"/>
<stop offset="1" stop-color="#F433AA"/>
</linearGradient>
<linearGradient id="paint1_linear" x1="10.3001" y1="-17.9102" x2="108.083" y2="49.7576" gradientUnits="userSpaceOnUse">
<stop stop-color="#1F48E8"/>
<stop offset="1" stop-color="#F433AA"/>
</linearGradient>
</defs>
</svg>
