<svg width="85" height="50" viewBox="0 0 85 50" fill="none" xmlns="http://www.w3.org/2000/svg">
<path d="M15.6522 10.7944C14.0594 10.7944 12.1415 11.0706 9.90389 11.6285C7.66629 12.1865 5.63811 12.9047 3.82488 13.7941L0 3.49685C3.01471 2.1876 5.79243 1.2761 8.33867 0.767871C10.8904 0.254116 13.4808 0 16.1152 0C23.5169 0 29.2377 2.15998 33.2775 6.47995C37.3228 10.7999 39.34 16.9208 39.34 24.8481C39.34 33.0405 37.3284 39.283 33.3106 43.5698C29.2873 47.8566 23.4232 50 15.7129 50C9.97554 50 4.84447 49.0774 0.32517 47.2379V36.1728C5.59953 38.2168 10.7251 39.2388 15.7129 39.2388C18.6835 39.2388 20.9982 38.504 22.6572 37.0401C24.3161 35.5762 25.2475 33.4438 25.4459 30.643H6.04595V20.053H25.4514C25.253 17.0755 24.294 14.7884 22.5745 13.1919C20.866 11.5899 18.5567 10.7944 15.6522 10.7944Z" fill="url(#paint0_linear)"/>
<path d="M84.0426 33.5101C84.0426 38.62 82.2955 42.5312 78.8068 45.2491C75.3181 47.9671 70.2808 49.3316 63.7002 49.3316H48.1196V0.635284H80.091V11.1921H61.3138V18.6222H63.2097C70.0107 18.6222 75.1859 19.8597 78.7297 22.3345C82.2679 24.8094 84.0426 28.5328 84.0426 33.5101ZM61.3138 39.1725H63.0774C65.8221 39.1725 67.7951 38.7195 68.9911 37.808C70.1871 36.8965 70.7878 35.5541 70.7878 33.7753C70.7878 32.002 70.1485 30.6872 68.8754 29.8475C67.6022 29.0023 65.6457 28.5825 63.0113 28.5825H61.3138V39.1725Z" fill="url(#paint1_linear)"/>
<defs>
<linearGradient id="paint0_linear" x1="-8.0728" y1="9.3014" x2="68.32" y2="62.1669" gradientUnits="userSpaceOnUse">
<stop stop-color="#1F48E8"/>
<stop offset="1" stop-color="#F433AA"/>
</linearGradient>
<linearGradient id="paint1_linear" x1="8.04705" y1="-13.9924" x2="84.4399" y2="38.8731" gradientUnits="userSpaceOnUse">
<stop stop-color="#1F48E8"/>
<stop offset="1" stop-color="#F433AA"/>
</linearGradient>
</defs>
</svg>
