<svg width="249" height="12" viewBox="0 0 249 12" fill="none" xmlns="http://www.w3.org/2000/svg">
<path d="M6.55078 5.50781C6.55078 6.10156 6.37891 6.55664 6.03516 6.87305C5.69531 7.18945 5.21289 7.34766 4.58789 7.34766C3.96289 7.34766 3.46484 7.14062 3.09375 6.72656C2.72656 6.30859 2.54297 5.74805 2.54297 5.04492V4.38281C2.54297 3.70312 2.72852 3.15625 3.09961 2.74219C3.47461 2.32422 3.9707 2.11523 4.58789 2.11523C5.22461 2.11523 5.71094 2.27734 6.04688 2.60156C6.38672 2.92188 6.55664 3.37305 6.55664 3.95508H5.64258C5.64258 3.58008 5.55273 3.3125 5.37305 3.15234C5.19336 2.98828 4.93164 2.90625 4.58789 2.90625C4.22852 2.90625 3.94727 3.03906 3.74414 3.30469C3.54492 3.57031 3.44531 3.93359 3.44531 4.39453V5.08008C3.44531 5.54102 3.54688 5.90234 3.75 6.16406C3.95312 6.42578 4.23242 6.55664 4.58789 6.55664C4.93555 6.55664 5.19727 6.47852 5.37305 6.32227C5.54883 6.16211 5.63672 5.89062 5.63672 5.50781H6.55078ZM8.10938 4.72852C8.10938 4.08008 7.96289 3.47852 7.66992 2.92383C7.37695 2.36523 6.96289 1.91992 6.42773 1.58789C5.89258 1.25195 5.30664 1.08398 4.66992 1.08398C4.04883 1.08398 3.4707 1.24414 2.93555 1.56445C2.4043 1.88477 1.98633 2.32617 1.68164 2.88867C1.37695 3.45117 1.22461 4.06445 1.22461 4.72852C1.22461 5.39258 1.375 6.00586 1.67578 6.56836C1.98047 7.13086 2.39844 7.57617 2.92969 7.9043C3.46484 8.22852 4.04492 8.39062 4.66992 8.39062C5.29492 8.39062 5.875 8.22461 6.41016 7.89258C6.94922 7.56055 7.36719 7.11328 7.66406 6.55078C7.96094 5.98828 8.10938 5.38086 8.10938 4.72852ZM0.509766 4.72852C0.509766 3.93945 0.691406 3.20703 1.05469 2.53125C1.42188 1.85547 1.92773 1.32422 2.57227 0.9375C3.2207 0.546875 3.91992 0.351562 4.66992 0.351562C5.41992 0.351562 6.11719 0.546875 6.76172 0.9375C7.40625 1.32422 7.91016 1.85547 8.27344 2.53125C8.64062 3.20703 8.82422 3.93945 8.82422 4.72852C8.82422 5.51758 8.64062 6.25 8.27344 6.92578C7.91016 7.60156 7.4082 8.13672 6.76758 8.53125C6.12695 8.92188 5.42773 9.11719 4.66992 9.11719C3.91602 9.11719 3.2168 8.92188 2.57227 8.53125C1.93164 8.14062 1.42773 7.60742 1.06055 6.93164C0.693359 6.25586 0.509766 5.52148 0.509766 4.72852ZM18.7617 9H13.0254V8.02148L15.8672 4.92188C16.2773 4.46484 16.5684 4.08398 16.7402 3.7793C16.916 3.4707 17.0039 3.16211 17.0039 2.85352C17.0039 2.44727 16.8887 2.11914 16.6582 1.86914C16.4316 1.61914 16.125 1.49414 15.7383 1.49414C15.2773 1.49414 14.9199 1.63477 14.666 1.91602C14.4121 2.19727 14.2852 2.58203 14.2852 3.07031H12.8613C12.8613 2.55078 12.9785 2.08398 13.2129 1.66992C13.4512 1.25195 13.7891 0.927734 14.2266 0.697266C14.668 0.466797 15.1758 0.351562 15.75 0.351562C16.5781 0.351562 17.2305 0.560547 17.707 0.978516C18.1875 1.39258 18.4277 1.9668 18.4277 2.70117C18.4277 3.12695 18.3066 3.57422 18.0645 4.04297C17.8262 4.50781 17.4336 5.03711 16.8867 5.63086L14.8008 7.86328H18.7617V9ZM25.4062 5.4082C25.4062 6.63477 25.1758 7.56055 24.7148 8.18555C24.2578 8.80664 23.5605 9.11719 22.623 9.11719C21.7012 9.11719 21.0059 8.81445 20.5371 8.20898C20.0723 7.59961 19.834 6.69922 19.8223 5.50781V4.03125C19.8223 2.80469 20.0508 1.88477 20.5078 1.27148C20.9688 0.658203 21.6699 0.351562 22.6113 0.351562C23.5449 0.351562 24.2402 0.650391 24.6973 1.24805C25.1582 1.8457 25.3945 2.74023 25.4062 3.93164V5.4082ZM23.9824 3.81445C23.9824 3.01367 23.873 2.42773 23.6543 2.05664C23.4355 1.68164 23.0879 1.49414 22.6113 1.49414C22.1465 1.49414 21.8047 1.67187 21.5859 2.02734C21.3672 2.37891 21.252 2.92969 21.2402 3.67969V5.61328C21.2402 6.41016 21.3516 7.00391 21.5742 7.39453C21.7969 7.78516 22.1465 7.98047 22.623 7.98047C23.0801 7.98047 23.418 7.80078 23.6367 7.44141C23.8555 7.07812 23.9707 6.51172 23.9824 5.74219V3.81445ZM32.4023 9H26.666V8.02148L29.5078 4.92188C29.918 4.46484 30.209 4.08398 30.3809 3.7793C30.5566 3.4707 30.6445 3.16211 30.6445 2.85352C30.6445 2.44727 30.5293 2.11914 30.2988 1.86914C30.0723 1.61914 29.7656 1.49414 29.3789 1.49414C28.918 1.49414 28.5605 1.63477 28.3066 1.91602C28.0527 2.19727 27.9258 2.58203 27.9258 3.07031H26.502C26.502 2.55078 26.6191 2.08398 26.8535 1.66992C27.0918 1.25195 27.4297 0.927734 27.8672 0.697266C28.3086 0.466797 28.8164 0.351562 29.3906 0.351562C30.2188 0.351562 30.8711 0.560547 31.3477 0.978516C31.8281 1.39258 32.0684 1.9668 32.0684 2.70117C32.0684 3.12695 31.9473 3.57422 31.7051 4.04297C31.4668 4.50781 31.0742 5.03711 30.5273 5.63086L28.4414 7.86328H32.4023V9ZM39.0469 5.4082C39.0469 6.63477 38.8164 7.56055 38.3555 8.18555C37.8984 8.80664 37.2012 9.11719 36.2637 9.11719C35.3418 9.11719 34.6465 8.81445 34.1777 8.20898C33.7129 7.59961 33.4746 6.69922 33.4629 5.50781V4.03125C33.4629 2.80469 33.6914 1.88477 34.1484 1.27148C34.6094 0.658203 35.3105 0.351562 36.252 0.351562C37.1855 0.351562 37.8809 0.650391 38.3379 1.24805C38.7988 1.8457 39.0352 2.74023 39.0469 3.93164V5.4082ZM37.623 3.81445C37.623 3.01367 37.5137 2.42773 37.2949 2.05664C37.0762 1.68164 36.7285 1.49414 36.252 1.49414C35.7871 1.49414 35.4453 1.67187 35.2266 2.02734C35.0078 2.37891 34.8926 2.92969 34.8809 3.67969V5.61328C34.8809 6.41016 34.9922 7.00391 35.2148 7.39453C35.4375 7.78516 35.7871 7.98047 36.2637 7.98047C36.7207 7.98047 37.0586 7.80078 37.2773 7.44141C37.4961 7.07812 37.6113 6.51172 37.623 5.74219V3.81445ZM44.7656 6.22852C44.8438 6.8457 45.0293 7.28516 45.3223 7.54688C45.6191 7.80859 46.0547 7.93945 46.6289 7.93945C47.2383 7.93945 47.709 7.7168 48.041 7.27148C48.377 6.82617 48.5566 6.18359 48.5801 5.34375H45.5684V4.14844H48.5801C48.5488 3.30469 48.3594 2.66016 48.0117 2.21484C47.668 1.76953 47.1836 1.54688 46.5586 1.54688C46.0117 1.54688 45.5918 1.68359 45.2988 1.95703C45.0098 2.23047 44.8301 2.67578 44.7598 3.29297H43.2832C43.377 2.36328 43.709 1.64062 44.2793 1.125C44.8535 0.609375 45.6133 0.351562 46.5586 0.351562C47.2578 0.351562 47.873 0.515625 48.4043 0.84375C48.9355 1.17188 49.3438 1.64062 49.6289 2.25C49.918 2.85938 50.0645 3.56445 50.0684 4.36523V5.08594C50.0684 5.89453 49.9277 6.60547 49.6465 7.21875C49.3691 7.82812 48.9688 8.29688 48.4453 8.625C47.9219 8.95312 47.3164 9.11719 46.6289 9.11719C45.6602 9.11719 44.8828 8.86328 44.2969 8.35547C43.7109 7.84375 43.375 7.13477 43.2891 6.22852H44.7656ZM56.8828 1.66406H52.9512V3.73242H54.6973C55.3223 3.73242 55.8672 3.83984 56.332 4.05469C56.7969 4.26953 57.1504 4.57422 57.3926 4.96875C57.6348 5.36328 57.7559 5.82031 57.7559 6.33984C57.7559 7.13672 57.4844 7.77734 56.9414 8.26172C56.4023 8.74609 55.666 8.99219 54.7324 9H51.4688V0.46875H56.8828V1.66406ZM52.9512 4.92188V7.81641H54.6914C55.1914 7.81641 55.5801 7.68164 55.8574 7.41211C56.1387 7.13867 56.2793 6.77734 56.2793 6.32812C56.2793 5.89844 56.1426 5.55859 55.8691 5.30859C55.5957 5.05859 55.2168 4.92969 54.7324 4.92188H52.9512ZM67.418 1.66406H63.4863V3.73242H65.2324C65.8574 3.73242 66.4023 3.83984 66.8672 4.05469C67.332 4.26953 67.6855 4.57422 67.9277 4.96875C68.1699 5.36328 68.291 5.82031 68.291 6.33984C68.291 7.13672 68.0195 7.77734 67.4766 8.26172C66.9375 8.74609 66.2012 8.99219 65.2676 9H62.0039V0.46875H67.418V1.66406ZM63.4863 4.92188V7.81641H65.2266C65.7266 7.81641 66.1152 7.68164 66.3926 7.41211C66.6738 7.13867 66.8145 6.77734 66.8145 6.32812C66.8145 5.89844 66.6777 5.55859 66.4043 5.30859C66.1309 5.05859 65.752 4.92969 65.2676 4.92188H63.4863ZM72.2285 9.11719C71.3262 9.11719 70.5938 8.83398 70.0312 8.26758C69.4727 7.69727 69.1934 6.93945 69.1934 5.99414V5.81836C69.1934 5.18555 69.3145 4.62109 69.5566 4.125C69.8027 3.625 70.1465 3.23633 70.5879 2.95898C71.0293 2.68164 71.5215 2.54297 72.0645 2.54297C72.9277 2.54297 73.5938 2.81836 74.0625 3.36914C74.5352 3.91992 74.7715 4.69922 74.7715 5.70703V6.28125H70.6289C70.6719 6.80469 70.8457 7.21875 71.1504 7.52344C71.459 7.82812 71.8457 7.98047 72.3105 7.98047C72.9629 7.98047 73.4941 7.7168 73.9043 7.18945L74.6719 7.92188C74.418 8.30078 74.0781 8.5957 73.6523 8.80664C73.2305 9.01367 72.7559 9.11719 72.2285 9.11719ZM72.0586 3.68555C71.668 3.68555 71.3516 3.82227 71.1094 4.0957C70.8711 4.36914 70.7188 4.75 70.6523 5.23828H73.3652V5.13281C73.334 4.65625 73.207 4.29688 72.9844 4.05469C72.7617 3.80859 72.4531 3.68555 72.0586 3.68555ZM81.2695 2.66016V9H79.8457V3.80859H78.0527L77.9355 6.01758C77.8613 7.08008 77.6562 7.84375 77.3203 8.30859C76.9883 8.76953 76.4785 9 75.791 9H75.3516L75.3457 7.81641L75.6387 7.78711C75.9512 7.74414 76.1777 7.55469 76.3184 7.21875C76.4629 6.87891 76.5547 6.26172 76.5938 5.36719L76.7109 2.66016H81.2695ZM86.5723 9C86.5098 8.87891 86.4551 8.68164 86.4082 8.4082C85.9551 8.88086 85.4004 9.11719 84.7441 9.11719C84.1074 9.11719 83.5879 8.93555 83.1855 8.57227C82.7832 8.20898 82.582 7.75977 82.582 7.22461C82.582 6.54883 82.832 6.03125 83.332 5.67188C83.8359 5.30859 84.5547 5.12695 85.4883 5.12695H86.3613V4.71094C86.3613 4.38281 86.2695 4.12109 86.0859 3.92578C85.9023 3.72656 85.623 3.62695 85.248 3.62695C84.9238 3.62695 84.6582 3.70898 84.4512 3.87305C84.2441 4.0332 84.1406 4.23828 84.1406 4.48828H82.7168C82.7168 4.14062 82.832 3.81641 83.0625 3.51562C83.293 3.21094 83.6055 2.97266 84 2.80078C84.3984 2.62891 84.8418 2.54297 85.3301 2.54297C86.0723 2.54297 86.6641 2.73047 87.1055 3.10547C87.5469 3.47656 87.7734 4 87.7852 4.67578V7.53516C87.7852 8.10547 87.8652 8.56055 88.0254 8.90039V9H86.5723ZM85.0078 7.97461C85.2891 7.97461 85.5527 7.90625 85.7988 7.76953C86.0488 7.63281 86.2363 7.44922 86.3613 7.21875V6.02344H85.5938C85.0664 6.02344 84.6699 6.11523 84.4043 6.29883C84.1387 6.48242 84.0059 6.74219 84.0059 7.07812C84.0059 7.35156 84.0957 7.57031 84.2754 7.73438C84.459 7.89453 84.7031 7.97461 85.0078 7.97461ZM94.8281 5.89453C94.8281 6.875 94.6055 7.6582 94.1602 8.24414C93.7148 8.82617 93.1172 9.11719 92.3672 9.11719C91.6719 9.11719 91.1152 8.88867 90.6973 8.43164V11.4375H89.2734V2.66016H90.5859L90.6445 3.30469C91.0625 2.79688 91.6309 2.54297 92.3496 2.54297C93.123 2.54297 93.7285 2.83203 94.166 3.41016C94.6074 3.98438 94.8281 4.7832 94.8281 5.80664V5.89453ZM93.4102 5.77148C93.4102 5.13867 93.2832 4.63672 93.0293 4.26562C92.7793 3.89453 92.4199 3.70898 91.9512 3.70898C91.3691 3.70898 90.9512 3.94922 90.6973 4.42969V7.24219C90.9551 7.73438 91.377 7.98047 91.9629 7.98047C92.416 7.98047 92.7695 7.79883 93.0234 7.43555C93.2812 7.06836 93.4102 6.51367 93.4102 5.77148ZM98.1855 6.96094L99.4746 2.66016H100.992L98.4727 9.96094C98.0859 11.0273 97.4297 11.5605 96.5039 11.5605C96.2969 11.5605 96.0684 11.5254 95.8184 11.4551V10.3535L96.0879 10.3711C96.4473 10.3711 96.7168 10.3047 96.8965 10.1719C97.0801 10.043 97.2246 9.82422 97.3301 9.51562L97.5352 8.9707L95.3086 2.66016H96.8438L98.1855 6.96094ZM104.338 7.98047C104.693 7.98047 104.988 7.87695 105.223 7.66992C105.457 7.46289 105.582 7.20703 105.598 6.90234H106.939C106.924 7.29688 106.801 7.66602 106.57 8.00977C106.34 8.34961 106.027 8.61914 105.633 8.81836C105.238 9.01758 104.812 9.11719 104.355 9.11719C103.469 9.11719 102.766 8.83008 102.246 8.25586C101.727 7.68164 101.467 6.88867 101.467 5.87695V5.73047C101.467 4.76562 101.725 3.99414 102.24 3.41602C102.756 2.83398 103.459 2.54297 104.35 2.54297C105.104 2.54297 105.717 2.76367 106.189 3.20508C106.666 3.64258 106.916 4.21875 106.939 4.93359H105.598C105.582 4.57031 105.457 4.27148 105.223 4.03711C104.992 3.80273 104.697 3.68555 104.338 3.68555C103.877 3.68555 103.521 3.85352 103.271 4.18945C103.021 4.52148 102.895 5.02734 102.891 5.70703V5.93555C102.891 6.62305 103.014 7.13672 103.26 7.47656C103.51 7.8125 103.869 7.98047 104.338 7.98047ZM109.547 4.67578H110.941C111.461 4.67578 111.914 4.76562 112.301 4.94531C112.688 5.125 112.98 5.37695 113.18 5.70117C113.383 6.02539 113.484 6.40234 113.484 6.83203C113.484 7.48438 113.254 8.00781 112.793 8.40234C112.332 8.79688 111.719 8.99609 110.953 9H108.123V2.66016H109.547V4.67578ZM109.547 5.81836V7.86328H110.936C111.283 7.86328 111.557 7.77734 111.756 7.60547C111.959 7.42969 112.061 7.18164 112.061 6.86133C112.061 6.54102 111.961 6.28906 111.762 6.10547C111.566 5.91797 111.301 5.82227 110.965 5.81836H109.547ZM118.5 7.5C118.766 7.5 118.971 7.57617 119.115 7.72852C119.26 7.87695 119.332 8.06445 119.332 8.29102C119.332 8.51367 119.26 8.69922 119.115 8.84766C118.971 8.99219 118.766 9.06445 118.5 9.06445C118.246 9.06445 118.045 8.99219 117.896 8.84766C117.748 8.70312 117.674 8.51758 117.674 8.29102C117.674 8.06445 117.746 7.87695 117.891 7.72852C118.035 7.57617 118.238 7.5 118.5 7.5ZM124.09 9V0.46875H127.014C127.979 0.46875 128.713 0.662109 129.217 1.04883C129.721 1.43555 129.973 2.01172 129.973 2.77734C129.973 3.16797 129.867 3.51953 129.656 3.83203C129.445 4.14453 129.137 4.38672 128.73 4.55859C129.191 4.68359 129.547 4.91992 129.797 5.26758C130.051 5.61133 130.178 6.02539 130.178 6.50977C130.178 7.31055 129.92 7.92578 129.404 8.35547C128.893 8.78516 128.158 9 127.201 9H124.09ZM125.572 5.15039V7.81641H127.219C127.684 7.81641 128.047 7.70117 128.309 7.4707C128.57 7.24023 128.701 6.91992 128.701 6.50977C128.701 5.62305 128.248 5.16992 127.342 5.15039H125.572ZM125.572 4.06055H127.025C127.486 4.06055 127.846 3.95703 128.104 3.75C128.365 3.53906 128.496 3.24219 128.496 2.85938C128.496 2.4375 128.375 2.13281 128.133 1.94531C127.895 1.75781 127.521 1.66406 127.014 1.66406H125.572V4.06055ZM134.127 7.98047C134.482 7.98047 134.777 7.87695 135.012 7.66992C135.246 7.46289 135.371 7.20703 135.387 6.90234H136.729C136.713 7.29688 136.59 7.66602 136.359 8.00977C136.129 8.34961 135.816 8.61914 135.422 8.81836C135.027 9.01758 134.602 9.11719 134.145 9.11719C133.258 9.11719 132.555 8.83008 132.035 8.25586C131.516 7.68164 131.256 6.88867 131.256 5.87695V5.73047C131.256 4.76562 131.514 3.99414 132.029 3.41602C132.545 2.83398 133.248 2.54297 134.139 2.54297C134.893 2.54297 135.506 2.76367 135.979 3.20508C136.455 3.64258 136.705 4.21875 136.729 4.93359H135.387C135.371 4.57031 135.246 4.27148 135.012 4.03711C134.781 3.80273 134.486 3.68555 134.127 3.68555C133.666 3.68555 133.311 3.85352 133.061 4.18945C132.811 4.52148 132.684 5.02734 132.68 5.70703V5.93555C132.68 6.62305 132.803 7.13672 133.049 7.47656C133.299 7.8125 133.658 7.98047 134.127 7.98047ZM140.596 9.11719C139.693 9.11719 138.961 8.83398 138.398 8.26758C137.84 7.69727 137.561 6.93945 137.561 5.99414V5.81836C137.561 5.18555 137.682 4.62109 137.924 4.125C138.17 3.625 138.514 3.23633 138.955 2.95898C139.396 2.68164 139.889 2.54297 140.432 2.54297C141.295 2.54297 141.961 2.81836 142.43 3.36914C142.902 3.91992 143.139 4.69922 143.139 5.70703V6.28125H138.996C139.039 6.80469 139.213 7.21875 139.518 7.52344C139.826 7.82812 140.213 7.98047 140.678 7.98047C141.33 7.98047 141.861 7.7168 142.271 7.18945L143.039 7.92188C142.785 8.30078 142.445 8.5957 142.02 8.80664C141.598 9.01367 141.123 9.11719 140.596 9.11719ZM140.426 3.68555C140.035 3.68555 139.719 3.82227 139.477 4.0957C139.238 4.36914 139.086 4.75 139.02 5.23828H141.732V5.13281C141.701 4.65625 141.574 4.29688 141.352 4.05469C141.129 3.80859 140.82 3.68555 140.426 3.68555ZM152.613 9H151.189V3.80859H148.717V9H147.293V2.66016H152.613V9ZM159.68 5.89453C159.68 6.875 159.457 7.6582 159.012 8.24414C158.566 8.82617 157.969 9.11719 157.219 9.11719C156.523 9.11719 155.967 8.88867 155.549 8.43164V11.4375H154.125V2.66016H155.438L155.496 3.30469C155.914 2.79688 156.482 2.54297 157.201 2.54297C157.975 2.54297 158.58 2.83203 159.018 3.41016C159.459 3.98438 159.68 4.7832 159.68 5.80664V5.89453ZM158.262 5.77148C158.262 5.13867 158.135 4.63672 157.881 4.26562C157.631 3.89453 157.271 3.70898 156.803 3.70898C156.221 3.70898 155.803 3.94922 155.549 4.42969V7.24219C155.807 7.73438 156.229 7.98047 156.814 7.98047C157.268 7.98047 157.621 7.79883 157.875 7.43555C158.133 7.06836 158.262 6.51367 158.262 5.77148ZM164.678 9C164.615 8.87891 164.561 8.68164 164.514 8.4082C164.061 8.88086 163.506 9.11719 162.85 9.11719C162.213 9.11719 161.693 8.93555 161.291 8.57227C160.889 8.20898 160.688 7.75977 160.688 7.22461C160.688 6.54883 160.938 6.03125 161.438 5.67188C161.941 5.30859 162.66 5.12695 163.594 5.12695H164.467V4.71094C164.467 4.38281 164.375 4.12109 164.191 3.92578C164.008 3.72656 163.729 3.62695 163.354 3.62695C163.029 3.62695 162.764 3.70898 162.557 3.87305C162.35 4.0332 162.246 4.23828 162.246 4.48828H160.822C160.822 4.14062 160.938 3.81641 161.168 3.51562C161.398 3.21094 161.711 2.97266 162.105 2.80078C162.504 2.62891 162.947 2.54297 163.436 2.54297C164.178 2.54297 164.77 2.73047 165.211 3.10547C165.652 3.47656 165.879 4 165.891 4.67578V7.53516C165.891 8.10547 165.971 8.56055 166.131 8.90039V9H164.678ZM163.113 7.97461C163.395 7.97461 163.658 7.90625 163.904 7.76953C164.154 7.63281 164.342 7.44922 164.467 7.21875V6.02344H163.699C163.172 6.02344 162.775 6.11523 162.51 6.29883C162.244 6.48242 162.111 6.74219 162.111 7.07812C162.111 7.35156 162.201 7.57031 162.381 7.73438C162.564 7.89453 162.809 7.97461 163.113 7.97461ZM167.49 9V2.66016H170.062C170.93 2.66016 171.59 2.8125 172.043 3.11719C172.496 3.41797 172.723 3.85156 172.723 4.41797C172.723 4.71094 172.631 4.97461 172.447 5.20898C172.268 5.43945 172 5.61719 171.645 5.74219C172.059 5.82812 172.387 6.00195 172.629 6.26367C172.871 6.52539 172.992 6.83398 172.992 7.18945C172.992 7.7793 172.773 8.22852 172.336 8.53711C171.902 8.8457 171.277 9 170.461 9H167.49ZM168.914 6.29883V7.875H170.473C171.203 7.875 171.568 7.61328 171.568 7.08984C171.568 6.5625 171.197 6.29883 170.455 6.29883H168.914ZM168.914 5.2793H170.086C170.895 5.2793 171.299 5.04102 171.299 4.56445C171.299 4.06445 170.916 3.80664 170.15 3.79102H168.914V5.2793ZM178.014 9C177.951 8.87891 177.896 8.68164 177.85 8.4082C177.396 8.88086 176.842 9.11719 176.186 9.11719C175.549 9.11719 175.029 8.93555 174.627 8.57227C174.225 8.20898 174.023 7.75977 174.023 7.22461C174.023 6.54883 174.273 6.03125 174.773 5.67188C175.277 5.30859 175.996 5.12695 176.93 5.12695H177.803V4.71094C177.803 4.38281 177.711 4.12109 177.527 3.92578C177.344 3.72656 177.064 3.62695 176.689 3.62695C176.365 3.62695 176.1 3.70898 175.893 3.87305C175.686 4.0332 175.582 4.23828 175.582 4.48828H174.158C174.158 4.14062 174.273 3.81641 174.504 3.51562C174.734 3.21094 175.047 2.97266 175.441 2.80078C175.84 2.62891 176.283 2.54297 176.771 2.54297C177.514 2.54297 178.105 2.73047 178.547 3.10547C178.988 3.47656 179.215 4 179.227 4.67578V7.53516C179.227 8.10547 179.307 8.56055 179.467 8.90039V9H178.014ZM176.449 7.97461C176.73 7.97461 176.994 7.90625 177.24 7.76953C177.49 7.63281 177.678 7.44922 177.803 7.21875V6.02344H177.035C176.508 6.02344 176.111 6.11523 175.846 6.29883C175.58 6.48242 175.447 6.74219 175.447 7.07812C175.447 7.35156 175.537 7.57031 175.717 7.73438C175.9 7.89453 176.145 7.97461 176.449 7.97461ZM188.508 4.39453C188.508 4.67578 188.422 4.93555 188.25 5.17383C188.082 5.4082 187.844 5.5957 187.535 5.73633C188.262 5.99023 188.625 6.48047 188.625 7.20703C188.625 7.78906 188.389 8.25391 187.916 8.60156C187.443 8.94531 186.811 9.11719 186.018 9.11719C185.533 9.11719 185.092 9.03711 184.693 8.87695C184.295 8.71289 183.984 8.48242 183.762 8.18555C183.539 7.88477 183.428 7.5293 183.428 7.11914H184.846C184.846 7.37695 184.961 7.59375 185.191 7.76953C185.422 7.94141 185.713 8.02734 186.064 8.02734C186.412 8.02734 186.688 7.94727 186.891 7.78711C187.098 7.62305 187.201 7.41016 187.201 7.14844C187.201 6.83984 187.111 6.61719 186.932 6.48047C186.752 6.34375 186.475 6.27539 186.1 6.27539H185.08V5.25H186.135C186.771 5.24219 187.09 4.98047 187.09 4.46484C187.09 4.20703 186.998 4.00586 186.814 3.86133C186.631 3.7168 186.379 3.64453 186.059 3.64453C185.746 3.64453 185.482 3.72266 185.268 3.87891C185.053 4.03125 184.945 4.22461 184.945 4.45898H183.527C183.527 3.90039 183.762 3.44336 184.23 3.08789C184.699 2.72852 185.295 2.54883 186.018 2.54883C186.803 2.54883 187.414 2.70898 187.852 3.0293C188.289 3.34961 188.508 3.80469 188.508 4.39453ZM193.623 9C193.561 8.87891 193.506 8.68164 193.459 8.4082C193.006 8.88086 192.451 9.11719 191.795 9.11719C191.158 9.11719 190.639 8.93555 190.236 8.57227C189.834 8.20898 189.633 7.75977 189.633 7.22461C189.633 6.54883 189.883 6.03125 190.383 5.67188C190.887 5.30859 191.605 5.12695 192.539 5.12695H193.412V4.71094C193.412 4.38281 193.32 4.12109 193.137 3.92578C192.953 3.72656 192.674 3.62695 192.299 3.62695C191.975 3.62695 191.709 3.70898 191.502 3.87305C191.295 4.0332 191.191 4.23828 191.191 4.48828H189.768C189.768 4.14062 189.883 3.81641 190.113 3.51562C190.344 3.21094 190.656 2.97266 191.051 2.80078C191.449 2.62891 191.893 2.54297 192.381 2.54297C193.123 2.54297 193.715 2.73047 194.156 3.10547C194.598 3.47656 194.824 4 194.836 4.67578V7.53516C194.836 8.10547 194.916 8.56055 195.076 8.90039V9H193.623ZM192.059 7.97461C192.34 7.97461 192.604 7.90625 192.85 7.76953C193.1 7.63281 193.287 7.44922 193.412 7.21875V6.02344H192.645C192.117 6.02344 191.721 6.11523 191.455 6.29883C191.189 6.48242 191.057 6.74219 191.057 7.07812C191.057 7.35156 191.146 7.57031 191.326 7.73438C191.51 7.89453 191.754 7.97461 192.059 7.97461ZM197.76 2.66016V7.86328H199.74V2.66016H201.164V7.86328H203.15V2.66016H204.568V7.86328H205.652L205.535 10.8809H204.24V9H196.336V2.66016H197.76ZM210.668 2.66016H212.086V9H210.668V4.76953L208.184 9H206.766V2.66016H208.184V6.89062L210.668 2.66016ZM215.033 2.66016V7.86328H217.014V2.66016H218.438V7.86328H220.424V2.66016H221.842V7.86328H222.926L222.809 10.8809H221.514V9H213.609V2.66016H215.033ZM226.67 9.11719C225.768 9.11719 225.035 8.83398 224.473 8.26758C223.914 7.69727 223.635 6.93945 223.635 5.99414V5.81836C223.635 5.18555 223.756 4.62109 223.998 4.125C224.244 3.625 224.588 3.23633 225.029 2.95898C225.471 2.68164 225.963 2.54297 226.506 2.54297C227.369 2.54297 228.035 2.81836 228.504 3.36914C228.977 3.91992 229.213 4.69922 229.213 5.70703V6.28125H225.07C225.113 6.80469 225.287 7.21875 225.592 7.52344C225.9 7.82812 226.287 7.98047 226.752 7.98047C227.404 7.98047 227.936 7.7168 228.346 7.18945L229.113 7.92188C228.859 8.30078 228.52 8.5957 228.094 8.80664C227.672 9.01367 227.197 9.11719 226.67 9.11719ZM226.5 3.68555C226.109 3.68555 225.793 3.82227 225.551 4.0957C225.312 4.36914 225.16 4.75 225.094 5.23828H227.807V5.13281C227.775 4.65625 227.648 4.29688 227.426 4.05469C227.203 3.80859 226.895 3.68555 226.5 3.68555ZM235.693 9H234.27V6.43945H231.803V9H230.379V2.66016H231.803V5.30273H234.27V2.66016H235.693V9ZM238.746 4.67578H240.141C240.66 4.67578 241.113 4.76562 241.5 4.94531C241.887 5.125 242.18 5.37695 242.379 5.70117C242.582 6.02539 242.684 6.40234 242.684 6.83203C242.684 7.48438 242.453 8.00781 241.992 8.40234C241.531 8.79688 240.918 8.99609 240.152 9H237.322V2.66016H238.746V4.67578ZM245.162 9H243.738V2.66016H245.162V9ZM238.746 5.81836V7.86328H240.135C240.482 7.86328 240.756 7.77734 240.955 7.60547C241.158 7.42969 241.26 7.18164 241.26 6.86133C241.26 6.54102 241.16 6.28906 240.961 6.10547C240.766 5.91797 240.5 5.82227 240.164 5.81836H238.746ZM247.758 7.5C248.023 7.5 248.229 7.57617 248.373 7.72852C248.518 7.87695 248.59 8.06445 248.59 8.29102C248.59 8.51367 248.518 8.69922 248.373 8.84766C248.229 8.99219 248.023 9.06445 247.758 9.06445C247.504 9.06445 247.303 8.99219 247.154 8.84766C247.006 8.70312 246.932 8.51758 246.932 8.29102C246.932 8.06445 247.004 7.87695 247.148 7.72852C247.293 7.57617 247.496 7.5 247.758 7.5Z" fill="black"/>
</svg>
