<svg width="46" height="13" viewBox="0 0 46 13" fill="none" xmlns="http://www.w3.org/2000/svg">
<path d="M9.15625 12H7.1875V2.21875H2.17969V12H0.210938V0.625H9.15625V12ZM11.0078 7.69531C11.0078 6.86719 11.1719 6.1224 11.5 5.46094C11.8281 4.79427 12.2891 4.28385 12.8828 3.92969C13.4766 3.57031 14.1589 3.39062 14.9297 3.39062C16.0703 3.39062 16.9948 3.75781 17.7031 4.49219C18.4167 5.22656 18.8021 6.20052 18.8594 7.41406L18.8672 7.85938C18.8672 8.69271 18.7057 9.4375 18.3828 10.0938C18.0651 10.75 17.6068 11.2578 17.0078 11.6172C16.4141 11.9766 15.7266 12.1562 14.9453 12.1562C13.7526 12.1562 12.7969 11.7604 12.0781 10.9688C11.3646 10.1719 11.0078 9.11198 11.0078 7.78906V7.69531ZM12.9062 7.85938C12.9062 8.72917 13.0859 9.41146 13.4453 9.90625C13.8047 10.3958 14.3047 10.6406 14.9453 10.6406C15.5859 10.6406 16.0833 10.3906 16.4375 9.89062C16.7969 9.39062 16.9766 8.65885 16.9766 7.69531C16.9766 6.84115 16.7917 6.16406 16.4219 5.66406C16.0573 5.16406 15.5599 4.91406 14.9297 4.91406C14.3099 4.91406 13.8177 5.16146 13.4531 5.65625C13.0885 6.14583 12.9062 6.88021 12.9062 7.85938ZM25.75 3.54688H27.6406V12H25.75V6.35938L22.4375 12H20.5469V3.54688H22.4375V9.1875L25.75 3.54688ZM33.1328 10.6406C33.6068 10.6406 34 10.5026 34.3125 10.2266C34.625 9.95052 34.7917 9.60938 34.8125 9.20312H36.6016C36.5807 9.72917 36.4167 10.2214 36.1094 10.6797C35.8021 11.1328 35.3854 11.4922 34.8594 11.7578C34.3333 12.0234 33.7656 12.1562 33.1562 12.1562C31.974 12.1562 31.0365 11.7734 30.3438 11.0078C29.651 10.2422 29.3047 9.1849 29.3047 7.83594V7.64062C29.3047 6.35417 29.6484 5.32552 30.3359 4.55469C31.0234 3.77865 31.9609 3.39062 33.1484 3.39062C34.1536 3.39062 34.9714 3.6849 35.6016 4.27344C36.237 4.85677 36.5703 5.625 36.6016 6.57812H34.8125C34.7917 6.09375 34.625 5.69531 34.3125 5.38281C34.0052 5.07031 33.612 4.91406 33.1328 4.91406C32.5182 4.91406 32.0443 5.13802 31.7109 5.58594C31.3776 6.02865 31.2083 6.70312 31.2031 7.60938V7.91406C31.2031 8.83073 31.3672 9.51562 31.6953 9.96875C32.0286 10.4167 32.5078 10.6406 33.1328 10.6406ZM41.0391 8.65625H40.0781V12H38.1797V3.54688H40.0781V6.92188H40.9141L43.25 3.54688H45.5938L42.5391 7.59375L45.8516 12H43.3828L41.0391 8.65625Z" fill="#494949"/>
</svg>
