<svg width="100" height="11" viewBox="0 0 100 11" fill="none" xmlns="http://www.w3.org/2000/svg">
<path d="M7.37695 6.22266C7.29102 7.13281 6.95508 7.84375 6.36914 8.35547C5.7832 8.86328 5.00391 9.11719 4.03125 9.11719C3.35156 9.11719 2.75195 8.95703 2.23242 8.63672C1.7168 8.3125 1.31836 7.85352 1.03711 7.25977C0.755859 6.66602 0.609375 5.97656 0.597656 5.19141V4.39453C0.597656 3.58984 0.740234 2.88086 1.02539 2.26758C1.31055 1.6543 1.71875 1.18164 2.25 0.849609C2.78516 0.517578 3.40234 0.351562 4.10156 0.351562C5.04297 0.351562 5.80078 0.607422 6.375 1.11914C6.94922 1.63086 7.2832 2.35352 7.37695 3.28711H5.90039C5.83008 2.67383 5.65039 2.23242 5.36133 1.96289C5.07617 1.68945 4.65625 1.55273 4.10156 1.55273C3.45703 1.55273 2.96094 1.78906 2.61328 2.26172C2.26953 2.73047 2.09375 3.41992 2.08594 4.33008V5.08594C2.08594 6.00781 2.25 6.71094 2.57812 7.19531C2.91016 7.67969 3.39453 7.92188 4.03125 7.92188C4.61328 7.92188 5.05078 7.79102 5.34375 7.5293C5.63672 7.26758 5.82227 6.83203 5.90039 6.22266H7.37695ZM8.30273 5.77148C8.30273 5.15039 8.42578 4.5918 8.67188 4.0957C8.91797 3.5957 9.26367 3.21289 9.70898 2.94727C10.1543 2.67773 10.666 2.54297 11.2441 2.54297C12.0996 2.54297 12.793 2.81836 13.3242 3.36914C13.8594 3.91992 14.1484 4.65039 14.1914 5.56055L14.1973 5.89453C14.1973 6.51953 14.0762 7.07812 13.834 7.57031C13.5957 8.0625 13.252 8.44336 12.8027 8.71289C12.3574 8.98242 11.8418 9.11719 11.2559 9.11719C10.3613 9.11719 9.64453 8.82031 9.10547 8.22656C8.57031 7.62891 8.30273 6.83398 8.30273 5.8418V5.77148ZM9.72656 5.89453C9.72656 6.54688 9.86133 7.05859 10.1309 7.42969C10.4004 7.79688 10.7754 7.98047 11.2559 7.98047C11.7363 7.98047 12.1094 7.79297 12.375 7.41797C12.6445 7.04297 12.7793 6.49414 12.7793 5.77148C12.7793 5.13086 12.6406 4.62305 12.3633 4.24805C12.0898 3.87305 11.7168 3.68555 11.2441 3.68555C10.7793 3.68555 10.4102 3.87109 10.1367 4.24219C9.86328 4.60938 9.72656 5.16016 9.72656 5.89453ZM15.457 2.66016H16.8809V7.86328H19.3535V2.66016H20.7773V7.86328H21.6387L21.5215 10.8809H20.2266V9H15.457V2.66016ZM26.6016 2.66016H28.0195V9H26.6016V4.76953L24.1172 9H22.6992V2.66016H24.1172V6.89062L26.6016 2.66016ZM33.3223 9C33.2598 8.87891 33.2051 8.68164 33.1582 8.4082C32.7051 8.88086 32.1504 9.11719 31.4941 9.11719C30.8574 9.11719 30.3379 8.93555 29.9355 8.57227C29.5332 8.20898 29.332 7.75977 29.332 7.22461C29.332 6.54883 29.582 6.03125 30.082 5.67188C30.5859 5.30859 31.3047 5.12695 32.2383 5.12695H33.1113V4.71094C33.1113 4.38281 33.0195 4.12109 32.8359 3.92578C32.6523 3.72656 32.373 3.62695 31.998 3.62695C31.6738 3.62695 31.4082 3.70898 31.2012 3.87305C30.9941 4.0332 30.8906 4.23828 30.8906 4.48828H29.4668C29.4668 4.14062 29.582 3.81641 29.8125 3.51562C30.043 3.21094 30.3555 2.97266 30.75 2.80078C31.1484 2.62891 31.5918 2.54297 32.0801 2.54297C32.8223 2.54297 33.4141 2.73047 33.8555 3.10547C34.2969 3.47656 34.5234 4 34.5352 4.67578V7.53516C34.5352 8.10547 34.6152 8.56055 34.7754 8.90039V9H33.3223ZM31.7578 7.97461C32.0391 7.97461 32.3027 7.90625 32.5488 7.76953C32.7988 7.63281 32.9863 7.44922 33.1113 7.21875V6.02344H32.3438C31.8164 6.02344 31.4199 6.11523 31.1543 6.29883C30.8887 6.48242 30.7559 6.74219 30.7559 7.07812C30.7559 7.35156 30.8457 7.57031 31.0254 7.73438C31.209 7.89453 31.4531 7.97461 31.7578 7.97461ZM41.4141 2.66016V9H39.9902V3.80859H38.1973L38.0801 6.01758C38.0059 7.08008 37.8008 7.84375 37.4648 8.30859C37.1328 8.76953 36.623 9 35.9355 9H35.4961L35.4902 7.81641L35.7832 7.78711C36.0957 7.74414 36.3223 7.55469 36.4629 7.21875C36.6074 6.87891 36.6992 6.26172 36.7383 5.36719L36.8555 2.66016H41.4141ZM44.4609 4.67578H45.8555C46.375 4.67578 46.8281 4.76562 47.2148 4.94531C47.6016 5.125 47.8945 5.37695 48.0938 5.70117C48.2969 6.02539 48.3984 6.40234 48.3984 6.83203C48.3984 7.48438 48.168 8.00781 47.707 8.40234C47.2461 8.79688 46.6328 8.99609 45.8672 9H43.0371V2.66016H44.4609V4.67578ZM44.4609 5.81836V7.86328H45.8496C46.1973 7.86328 46.4707 7.77734 46.6699 7.60547C46.873 7.42969 46.9746 7.18164 46.9746 6.86133C46.9746 6.54102 46.875 6.28906 46.6758 6.10547C46.4805 5.91797 46.2148 5.82227 45.8789 5.81836H44.4609ZM54.9082 9H53.4844V6.43945H51.0176V9H49.5938V2.66016H51.0176V5.30273H53.4844V2.66016H54.9082V9ZM57.9609 4.67578H59.3555C59.875 4.67578 60.3281 4.76562 60.7148 4.94531C61.1016 5.125 61.3945 5.37695 61.5938 5.70117C61.7969 6.02539 61.8984 6.40234 61.8984 6.83203C61.8984 7.48438 61.668 8.00781 61.207 8.40234C60.7461 8.79688 60.1328 8.99609 59.3672 9H56.5371V2.66016H57.9609V4.67578ZM64.377 9H62.9531V2.66016H64.377V9ZM57.9609 5.81836V7.86328H59.3496C59.6973 7.86328 59.9707 7.77734 60.1699 7.60547C60.373 7.42969 60.4746 7.18164 60.4746 6.86133C60.4746 6.54102 60.375 6.28906 60.1758 6.10547C59.9805 5.91797 59.7148 5.82227 59.3789 5.81836H57.9609ZM68.877 9.11719C67.9746 9.11719 67.2422 8.83398 66.6797 8.26758C66.1211 7.69727 65.8418 6.93945 65.8418 5.99414V5.81836C65.8418 5.18555 65.9629 4.62109 66.2051 4.125C66.4512 3.625 66.7949 3.23633 67.2363 2.95898C67.6777 2.68164 68.1699 2.54297 68.7129 2.54297C69.5762 2.54297 70.2422 2.81836 70.7109 3.36914C71.1836 3.91992 71.4199 4.69922 71.4199 5.70703V6.28125H67.2773C67.3203 6.80469 67.4941 7.21875 67.7988 7.52344C68.1074 7.82812 68.4941 7.98047 68.959 7.98047C69.6113 7.98047 70.1426 7.7168 70.5527 7.18945L71.3203 7.92188C71.0664 8.30078 70.7266 8.5957 70.3008 8.80664C69.8789 9.01367 69.4043 9.11719 68.877 9.11719ZM68.707 3.68555C68.3164 3.68555 68 3.82227 67.7578 4.0957C67.5195 4.36914 67.3672 4.75 67.3008 5.23828H70.0137V5.13281C69.9824 4.65625 69.8555 4.29688 69.6328 4.05469C69.4102 3.80859 69.1016 3.68555 68.707 3.68555ZM78.123 7.98047C78.4785 7.98047 78.7734 7.87695 79.0078 7.66992C79.2422 7.46289 79.3672 7.20703 79.3828 6.90234H80.7246C80.709 7.29688 80.5859 7.66602 80.3555 8.00977C80.125 8.34961 79.8125 8.61914 79.418 8.81836C79.0234 9.01758 78.5977 9.11719 78.1406 9.11719C77.2539 9.11719 76.5508 8.83008 76.0312 8.25586C75.5117 7.68164 75.252 6.88867 75.252 5.87695V5.73047C75.252 4.76562 75.5098 3.99414 76.0254 3.41602C76.541 2.83398 77.2441 2.54297 78.1348 2.54297C78.8887 2.54297 79.502 2.76367 79.9746 3.20508C80.4512 3.64258 80.7012 4.21875 80.7246 4.93359H79.3828C79.3672 4.57031 79.2422 4.27148 79.0078 4.03711C78.7773 3.80273 78.4824 3.68555 78.123 3.68555C77.6621 3.68555 77.3066 3.85352 77.0566 4.18945C76.8066 4.52148 76.6797 5.02734 76.6758 5.70703V5.93555C76.6758 6.62305 76.7988 7.13672 77.0449 7.47656C77.2949 7.8125 77.6543 7.98047 78.123 7.98047ZM84.5918 9.11719C83.6895 9.11719 82.957 8.83398 82.3945 8.26758C81.8359 7.69727 81.5566 6.93945 81.5566 5.99414V5.81836C81.5566 5.18555 81.6777 4.62109 81.9199 4.125C82.166 3.625 82.5098 3.23633 82.9512 2.95898C83.3926 2.68164 83.8848 2.54297 84.4277 2.54297C85.291 2.54297 85.957 2.81836 86.4258 3.36914C86.8984 3.91992 87.1348 4.69922 87.1348 5.70703V6.28125H82.9922C83.0352 6.80469 83.209 7.21875 83.5137 7.52344C83.8223 7.82812 84.209 7.98047 84.6738 7.98047C85.3262 7.98047 85.8574 7.7168 86.2676 7.18945L87.0352 7.92188C86.7812 8.30078 86.4414 8.5957 86.0156 8.80664C85.5938 9.01367 85.1191 9.11719 84.5918 9.11719ZM84.4219 3.68555C84.0312 3.68555 83.7148 3.82227 83.4727 4.0957C83.2344 4.36914 83.082 4.75 83.0156 5.23828H85.7285V5.13281C85.6973 4.65625 85.5703 4.29688 85.3477 4.05469C85.125 3.80859 84.8164 3.68555 84.4219 3.68555ZM93.1641 3.79102H91.1074V9H89.6836V3.79102H87.6504V2.66016H93.1641V3.79102ZM98.0742 2.66016H99.4922V9H98.0742V4.76953L95.5898 9H94.1719V2.66016H95.5898V6.89062L98.0742 2.66016Z" fill="black"/>
</svg>
