<?xml version="1.0" standalone="no"?>
<svg version="1.0" xmlns="http://www.w3.org/2000/svg"
     width="1280.000000pt" height="1280.000000pt" viewBox="0 0 1280.000000 1280.000000"
     preserveAspectRatio="xMidYMid meet">
    <g transform="translate(0.000000,1280.000000) scale(0.100000,-0.100000)">
        <path d="M7257 9769 c-107 -25 -210 -112 -261 -219 -29 -60 -31 -73 -31 -170
0 -182 -100 -66 1129 -1297 l1081 -1083 -3055 0 c-1956 0 -3080 -4 -3123 -10
-86 -13 -164 -50 -222 -108 -63 -61 -93 -117 -111 -203 -43 -205 76 -405 275
-463 49 -14 351 -16 3145 -16 l3091 0 -1076 -1077 c-1235 -1237 -1134 -1121
-1134 -1313 0 -99 2 -110 32 -171 78 -158 256 -249 426 -218 142 25 47 -63
1580 1468 775 773 1428 1432 1452 1464 99 131 111 297 31 444 -20 36 -424 446
-1464 1485 -1510 1508 -1461 1461 -1574 1488 -52 12 -139 11 -191 -1z" fill="white"/>
    </g>
</svg>
