<svg width="94" height="112" viewBox="0 0 94 112" fill="none" xmlns="http://www.w3.org/2000/svg">
    <path d="M3.97923 93.5923C3.61614 94.3369 3.92541 95.2349 4.67003 95.598C5.41464 95.9611 6.31262 95.6518 6.67572 94.9072L3.97923 93.5923ZM6.67572 94.9072L15.5749 76.6575L12.8785 75.3426L3.97923 93.5923L6.67572 94.9072Z" fill="#243EE9"/>
    <circle cx="30" cy="48" r="26" stroke="#243EE9" stroke-width="8"/>
    <path d="M20 62L30 37L42.5 49.5L47 40.5" stroke="#243EE9" stroke-width="5" stroke-linejoin="round"/>
    <path d="M64.9011 1.46429C64.6052 0.6905 63.7381 0.30306 62.9643 0.598922L50.3546 5.42028C49.5808 5.71614 49.1934 6.58327 49.4892 7.35706C49.7851 8.13086 50.6522 8.5183 51.426 8.22243L62.6346 3.93678L66.9203 15.1454C67.2161 15.9192 68.0833 16.3066 68.8571 16.0108C69.6309 15.7149 70.0183 14.8478 69.7224 14.074L64.9011 1.46429ZM54.3695 26.1119L64.8695 2.61191L62.1305 1.38809L51.6305 24.8881L54.3695 26.1119Z" fill="#243EE9"/>
    <path d="M51 68L59 76.5" stroke="#243EE9" stroke-width="8"/>
    <rect x="60.7607" y="67.9046" width="47.0275" height="14.8621" rx="7.43103" transform="rotate(45.1358 60.7607 67.9046)" fill="#243EE9"/>
</svg>