<svg width="110" height="110" viewBox="0 0 110 110" fill="none" xmlns="http://www.w3.org/2000/svg">
    <path d="M18.1247 58.8293C17.5 61 22.3333 63.8333 25 61.5L44.5 7.5L100.5 19.5L81.1248 75.3293C78.2914 84.3293 70.1248 102.129 60.1248 101.329C50.1248 100.529 48.6248 89.3293 49.1248 83.8293L1.12469 64.3293C-3.27531 80.3293 6.29135 88.6626 11.6247 90.8293L51.1247 108.329C71.5247 114.729 82.2914 96.9959 85.1247 87.3293L108.625 18.8293C110.225 14.8293 107.958 13.1626 106.625 12.8293C88.1247 9.16263 49.9247 1.52931 45.1247 0.329314C40.3247 -0.870687 38.7914 1.49598 38.6247 2.82931L18.1247 58.8293Z" fill="#243EE9"/>
    <circle cx="51" cy="27" r="4" fill="#243EE9"/>
    <circle cx="44" cy="45" r="4" fill="#243EE9"/>
    <circle cx="37" cy="61" r="4" fill="#243EE9"/>
    <line x1="68.4972" y1="71.1682" x2="49.5726" y2="65.038" stroke="#243EE9" stroke-width="8" stroke-linecap="round"/>
    <line x1="75.4972" y1="55.1682" x2="56.5726" y2="49.038" stroke="#243EE9" stroke-width="8" stroke-linecap="round"/>
    <line x1="82.4972" y1="37.1682" x2="63.5726" y2="31.038" stroke="#243EE9" stroke-width="8" stroke-linecap="round"/>
</svg>