<svg width="138" height="110" viewBox="0 0 138 110" fill="none" xmlns="http://www.w3.org/2000/svg">
    <path d="M94.2133 55.6559C94.8315 56.0488 94.8315 56.9511 94.2133 57.344L95.8057 59.8501L94.2133 57.344L60.5363 78.7429C59.8705 79.166 59 78.6877 59 77.8989L59 35.1011C59 34.3123 59.8706 33.834 60.5363 34.2571L94.2133 55.6559Z" stroke="#243EE9" stroke-width="8"/>
    <path d="M4.64676 26.6499C4.91097 14.9261 14.3246 5.47027 26.0471 5.15361L68.6987 4.00146L111.628 5.1611C123.255 5.47518 132.628 14.7853 133.021 26.4098L133.998 55.3039L133.028 83.9765C132.633 95.6774 123.143 105.019 111.437 105.23L68.6987 105.999L26.24 105.235C14.4385 105.022 4.90765 95.5344 4.64172 83.734L4.00102 55.3039L4.64676 26.6499Z" stroke="#243EE9" stroke-width="8"/>
</svg>