<svg width="500" height="500" viewBox="0 0 670 434" fill="none" xmlns="http://www.w3.org/2000/svg">
    <path d="M624.02 278.878L642.467 312C642.467 312 614.502 307.712 597.119 302.757C573.155 295.924 559.958 290.558 537.937 278.878C517.261 267.911 506.041 260.652 487.977 245.756C473.062 233.456 464.575 226.298 452.621 211.093C441.12 196.465 434.604 188.563 426.489 171.809C420.136 158.693 417.188 149.873 414.191 135.606C410.604 118.533 412.02 100.944 414.191 90.93C417.983 73.4379 421.992 62.9381 432.637 48.5646C443.795 33.4994 453.068 26.687 469.531 17.7535C486.245 8.68334 497.614 5.14623 516.416 2.34791C530.251 0.288769 551.984 0.245558 574.061 4.65881C594.668 8.77826 607.293 11.9408 624.02 24.6861C639.321 36.3433 646.5 44.658 655.533 61.6594C661.672 73.2136 667.056 87.2585 668.6 104.025C669.988 119.109 667.599 127.829 663.988 142.539C660.06 158.541 653.008 171.809 647.079 181.053C640.161 191.837 630.622 201.752 624.02 217.256L623.875 217.597C619.446 227.998 616.738 234.358 616.334 245.756C615.865 259.028 624.02 278.878 624.02 278.878Z" fill="#E83A49" stroke="#BFE0FF"/>
    <path d="M460 101.102C460 101.102 474.796 87.1022 486.5 87.1022C498.204 87.1022 501.306 100.6 513 101.102C525.74 101.65 529.794 86.02 542.5 87.1022C553.312 88.0231 555.722 99.85 566.5 101.102C580.049 102.676 584.951 85.5281 598.5 87.1022C609.278 88.3545 622.5 101.102 622.5 101.102" stroke="white" stroke-width="3"/>
    <path d="M460 124.102C460 124.102 474.796 110.102 486.5 110.102C498.204 110.102 501.306 123.6 513 124.102C525.74 124.65 529.794 109.02 542.5 110.102C553.312 111.023 555.722 122.85 566.5 124.102C580.049 125.676 584.951 108.528 598.5 110.102C609.278 111.354 622.5 124.102 622.5 124.102" stroke="white" stroke-width="3"/>
    <path d="M452.786 402.815C431.715 417.776 393.876 433 393.876 433C393.876 433 404.365 410.191 403.429 394.871C402.675 382.533 400.656 375.033 393.876 364.686C384.858 350.923 375.045 345.916 359.645 340.062C342.927 333.707 314.268 328.147 284.017 328.147H284.017C247.558 328.147 225.903 328.147 190.875 321.792C164.321 316.974 143.335 315.347 127.985 293.195C119.43 280.85 118.657 271.436 116.044 256.656C112.803 238.326 111.243 226.98 116.044 208.995C123.667 180.437 139.094 166.5 163.809 150.213C189.36 133.375 239.436 129.56 239.436 129.56C239.436 129.56 303.919 124 327.801 124C363.62 124 393.876 126.383 421.739 129.56C441.922 131.862 462.092 135.848 484.63 150.213C500.387 160.257 508.919 167.509 519.657 182.781C533.662 202.7 538.247 217.323 540.355 241.563C542.596 267.326 538.96 284.815 530.006 309.082C522.025 330.713 513.766 340.005 499.755 358.332C484.417 378.395 473.391 388.185 452.786 402.815Z" fill="#BFE0FF" stroke="#BFE0FF"/>
    <path d="M207 248.587C207 248.587 218.111 201.715 239.5 204.087C259.407 206.295 245.024 247.13 265 248.587C285.903 250.112 274.097 202.562 295 204.087C314.976 205.544 300.488 247.761 320.5 248.587C341.015 249.434 327.97 203.753 348.5 204.087C368.824 204.418 355.176 248.257 375.5 248.587C396.03 248.921 382.979 203.413 403.5 204.087C423.616 204.748 429.5 248.587 429.5 248.587" stroke="white" stroke-width="3"/>
    <path d="M74.1859 340.126C55.7962 345.182 26.3576 350 26.3576 350C26.3576 350 38.2866 335.686 43.0596 324.934C48.3724 312.966 50.3562 305.365 50.6513 292.272C50.9085 280.863 49.2639 274.371 46.0963 263.408C40.234 243.12 19.525 216.315 19.525 216.315C19.525 216.315 4.4127 188.216 2.06393 168.461C-0.11752 150.114 0.892166 138.934 6.619 121.368C12.6422 102.892 18.718 92.5941 32.4311 78.8314C48.2687 62.9363 60.774 56.1707 82.5368 50.7271C100.757 46.1696 126.553 43.2541 147.826 46.1696C169.099 49.0851 181.768 51.878 200.209 62.8803C218.579 73.8395 229.021 82.3112 239.687 100.859C248.481 116.153 251.159 126.569 252.593 144.155C254.127 162.97 251.215 173.937 245.76 192.008C239.627 212.327 233.247 222.969 221.466 240.621C209.216 258.978 200.667 268.394 184.267 283.157C164.4 301.041 151.349 309.417 127.328 321.136C107.52 330.8 95.4352 334.282 74.1859 340.126Z" fill="#243EE9" stroke="#243EE9"/>
    <path d="M87.6 177.91C84.5667 177.91 82.0533 176.957 80.06 175.05C78.1533 173.143 77.2 170.847 77.2 168.16C77.2 165.387 78.1533 163.047 80.06 161.14C82.0533 159.233 84.5667 158.28 87.6 158.28C90.6333 158.28 93.1033 159.233 95.01 161.14C97.0033 163.047 98 165.387 98 168.16C98 170.847 97.0033 173.143 95.01 175.05C93.1033 176.957 90.6333 177.91 87.6 177.91ZM124.03 177.91C120.997 177.91 118.484 176.957 116.49 175.05C114.584 173.143 113.63 170.847 113.63 168.16C113.63 165.387 114.584 163.047 116.49 161.14C118.484 159.233 120.997 158.28 124.03 158.28C127.064 158.28 129.534 159.233 131.44 161.14C133.434 163.047 134.43 165.387 134.43 168.16C134.43 170.847 133.434 173.143 131.44 175.05C129.534 176.957 127.064 177.91 124.03 177.91ZM160.461 177.91C157.428 177.91 154.914 176.957 152.921 175.05C151.014 173.143 150.061 170.847 150.061 168.16C150.061 165.387 151.014 163.047 152.921 161.14C154.914 159.233 157.428 158.28 160.461 158.28C163.494 158.28 165.964 159.233 167.871 161.14C169.864 163.047 170.861 165.387 170.861 168.16C170.861 170.847 169.864 173.143 167.871 175.05C165.964 176.957 163.494 177.91 160.461 177.91Z" fill="white"/>
</svg>