<svg width="500" height="500" viewBox="50 50 500 500" fill="none" xmlns="http://www.w3.org/2000/svg">
    <path d="M324.901 422.728L180.783 471.957L71.0521 146.406L215.948 99.3793L324.901 422.728Z" fill="#F5F5F5" stroke="#E83A49" stroke-width="25"/>
    <path d="M236.237 126.7C232.701 134.928 226.042 141.415 217.723 144.733C209.405 148.051 200.109 147.929 191.881 144.393C183.653 140.858 177.166 134.198 173.848 125.88C170.53 117.561 170.652 108.266 174.188 100.038L205.212 113.369L236.237 126.7Z" fill="#E83A49"/>
    <circle cx="198.119" cy="286.39" r="33.7674" transform="rotate(36.978 198.119 286.39)" fill="#E83A49"/>
    <path d="M112.508 121.9C119.158 127.898 123.153 136.292 123.614 145.236C124.075 154.18 120.965 162.94 114.967 169.591C108.969 176.241 100.574 180.236 91.6306 180.697C82.6868 181.159 73.9261 178.048 67.2758 172.05L89.8917 146.975L112.508 121.9Z" fill="#E83A49"/>
    <path d="M160.322 447.695C163.145 439.196 169.228 432.166 177.234 428.152C185.24 424.138 194.512 423.469 203.012 426.292C211.511 429.115 218.54 435.198 222.554 443.204C226.568 451.21 227.237 460.482 224.414 468.981L192.368 458.338L160.322 447.695Z" fill="#E83A49"/>
    <path d="M296.229 445.352C288.035 441.738 281.612 435.016 278.374 426.667C275.136 418.317 275.347 409.023 278.961 400.829C282.576 392.635 289.297 386.212 297.647 382.974C305.996 379.736 315.29 379.947 323.484 383.561L309.857 414.457L296.229 445.352Z" fill="#E83A49"/>
    <path d="M342.301 458.621L192.213 432.791L251.856 94.4606L401.571 122.597L342.301 458.621Z" fill="#F5F5F5" stroke="#243EE9" stroke-width="25"/>
    <path d="M406.292 156.298C399.246 161.827 390.293 164.33 381.402 163.258C372.511 162.185 364.41 157.625 358.881 150.579C353.352 143.534 350.849 134.581 351.921 125.69C352.994 116.799 357.554 108.697 364.599 103.169L385.446 129.733L406.292 156.298Z" fill="#243EE9"/>
    <circle cx="296.33" cy="278.21" r="33.7674" transform="rotate(65.6026 296.33 278.21)" fill="#243EE9"/>
    <path d="M299.985 92.8099C302.949 101.261 302.434 110.543 298.554 118.615C294.674 126.686 287.747 132.886 279.296 135.85C270.845 138.814 261.563 138.3 253.491 134.42C245.419 130.54 239.22 123.612 236.256 115.161L268.12 103.986L299.985 92.8099Z" fill="#243EE9"/>
    <path d="M185.877 401.692C192.426 395.584 201.134 392.328 210.084 392.64C219.034 392.952 227.494 396.807 233.602 403.356C239.71 409.906 242.966 418.613 242.654 427.564C242.342 436.514 238.487 444.973 231.938 451.082L208.907 426.387L185.877 401.692Z" fill="#243EE9"/>
    <path d="M306.295 464.744C300.834 457.646 298.416 448.67 299.574 439.789C300.731 430.908 305.369 422.851 312.467 417.39C319.565 411.929 328.542 409.512 337.423 410.669C346.303 411.827 354.36 416.465 359.821 423.563L333.058 444.154L306.295 464.744Z" fill="#243EE9"/>
    <path d="M341.608 511.761L213.013 430.172L398.24 140.835L525.604 224.41L341.608 511.761Z" fill="#F5F5F5" stroke="#BFE0FF" stroke-width="25"/>
    <path d="M516.994 257.333C508.364 259.725 499.137 258.591 491.343 254.181C483.549 249.77 477.826 242.443 475.434 233.813C473.041 225.183 474.175 215.956 478.586 208.162C482.997 200.368 490.323 194.645 498.954 192.252L507.974 224.793L516.994 257.333Z" fill="#BFE0FF"/>
    <circle cx="368.591" cy="327.551" r="33.7674" transform="rotate(88.2314 368.591 327.551)" fill="#BFE0FF"/>
    <path d="M443.299 157.83C442.783 166.771 438.737 175.141 432.05 181.098C425.363 187.055 416.583 190.112 407.643 189.597C398.702 189.081 390.332 185.034 384.375 178.348C378.417 171.661 375.36 162.881 375.876 153.941L409.587 155.885L443.299 157.83Z" fill="#BFE0FF"/>
    <path d="M219.13 399.029C227.525 395.911 236.815 396.256 244.957 399.988C253.098 403.72 259.423 410.533 262.541 418.928C265.659 427.323 265.314 436.614 261.582 444.755C257.85 452.896 251.037 459.221 242.642 462.339L230.886 430.684L219.13 399.029Z" fill="#BFE0FF"/>
    <path d="M306.018 503.559C303.709 494.907 304.931 485.691 309.416 477.939C313.902 470.188 321.283 464.536 329.935 462.226C338.588 459.916 347.804 461.139 355.555 465.624C363.307 470.109 368.959 477.49 371.269 486.143L338.643 494.851L306.018 503.559Z" fill="#BFE0FF"/>
</svg>