<svg width="500" height="500" viewBox="0 0 540 540" fill="none" xmlns="http://www.w3.org/2000/svg">
    <path d="M490.413 425.943C463.231 464.362 426.479 495.009 383.802 514.845C341.124 534.681 294.002 543.018 247.109 539.028C200.216 535.038 155.18 518.86 116.468 492.099C77.7545 465.337 46.7089 428.921 26.409 386.462L270 270L490.413 425.943Z" fill="#1E30AB"/>
    <path d="M26.5137 386.681C7.60394 347.22 -1.43187 303.756 0.184207 260.028C1.80028 216.301 14.0198 173.621 35.7907 135.665C57.5616 97.7077 88.2315 65.6109 125.16 42.1376C162.088 18.6642 204.168 4.51773 247.777 0.916138L270 270L26.5137 386.681Z" fill="#243EE9"/>
    <path d="M247.18 0.966064C292.839 -2.90672 338.731 4.90439 380.538 23.6639C422.344 42.4235 458.688 71.5142 486.148 108.197L270 270L247.18 0.966064Z" fill="#E83A49"/>
    <path d="M486.171 108.228C520.557 154.177 539.407 209.888 539.986 267.277C540.565 324.665 522.842 380.745 489.39 427.379L270 270L486.171 108.228Z" fill="#BFE0FF"/>
</svg>