<svg width="400" height="300" viewBox="0 0 631 520" fill="none" xmlns="http://www.w3.org/2000/svg">
    <path d="M109.375 4.36816V133.519H123.413V167.21H109.375V202H60.0586V167.21H1.46484V133.519L44.0674 4.36816H109.375ZM60.0586 133.519V49.4121L38.3301 133.519H60.0586ZM250.122 71.2627V137.181C250.122 152.155 249.308 163.06 247.681 169.896C246.053 176.731 242.676 183.12 237.549 189.061C232.422 195.001 226.237 199.274 218.994 201.878C211.751 204.482 203.654 205.784 194.702 205.784C182.902 205.784 173.096 204.441 165.283 201.756C157.471 198.989 151.245 194.716 146.606 188.938C141.968 183.16 138.672 177.098 136.719 170.75C134.766 164.321 133.789 154.148 133.789 140.232V71.2627C133.789 53.1149 135.335 39.5244 138.428 30.4912C141.602 21.458 147.827 14.2152 157.104 8.7627C166.463 3.31022 177.775 0.583984 191.04 0.583984C201.864 0.583984 211.548 2.49642 220.093 6.32129C228.638 10.0648 235.026 14.6628 239.258 20.1152C243.49 25.5677 246.338 31.7119 247.803 38.5479C249.349 45.3838 250.122 56.2887 250.122 71.2627ZM200.806 54.6611C200.806 44.1631 200.277 37.612 199.219 35.0078C198.242 32.3223 195.882 30.9795 192.139 30.9795C188.477 30.9795 186.035 32.4036 184.814 35.252C183.675 38.0189 183.105 44.4886 183.105 54.6611V151.097C183.105 162.571 183.634 169.489 184.692 171.849C185.832 174.209 188.232 175.389 191.895 175.389C195.557 175.389 197.957 174.005 199.097 171.238C200.236 168.471 200.806 162.246 200.806 152.562V54.6611ZM368.408 4.36816V133.519H382.446V167.21H368.408V202H319.092V167.21H260.498V133.519L303.101 4.36816H368.408ZM319.092 133.519V49.4121L297.363 133.519H319.092Z" fill="#243EE9"/>
    <path d="M352.444 213.986L363.51 247.301C369.608 249.635 371.934 246.167 372.335 244.141L361.565 211.062L352.444 213.986Z" fill="#C4C4C4"/>
    <path d="M361.565 211.062C361.857 211.902 360.076 213.286 357.585 214.152C355.095 215.017 352.736 214.826 352.444 213.985C352.152 213.145 354.036 211.973 356.527 211.107C359.017 210.241 361.273 210.221 361.565 211.062Z" fill="#8F8F8F"/>
    <path d="M356.826 212.139C355.804 210.274 355.215 207.46 357.64 205.024L369.11 191.842C369.155 189.856 369.068 185.743 368.355 185.175" stroke="#333333" stroke-width="3" stroke-linecap="round" stroke-linejoin="round"/>
    <path d="M359.142 172.986L321.399 192.656L330.15 210.3L368.335 189.769C370.287 187.928 369.628 184.491 367.097 178.837C365.072 174.313 360.95 173.051 359.142 172.986Z" fill="#3047DD"/>
    <path d="M359.142 172.986L321.399 192.656L330.15 210.3L368.335 189.769C370.287 187.928 369.628 184.491 367.097 178.837C365.072 174.313 360.95 173.051 359.142 172.986Z" fill="url(#paint0_linear)"/>
    <ellipse cx="326.04" cy="201.401" rx="5.09879" ry="9.88802" transform="rotate(-27.7023 326.04 201.401)" fill="#C4C4C4"/>
    <ellipse cx="515" cy="495.5" rx="116" ry="24.5" fill="#F5F5F5"/>
    <path d="M581.982 273.71C581.982 273.71 574.052 294.337 564.632 300.261L552.732 313.32C552.732 313.32 554.712 324.656 555.002 324.736C555.302 324.816 564.792 324.736 564.792 324.736L567.162 318.323C567.992 316.078 569.562 314.066 571.712 312.487C578.722 307.316 594.832 294.778 597.272 286.898C600.402 276.773 581.982 273.71 581.982 273.71Z" fill="url(#paint1_linear)"/>
    <path d="M520.842 159.634C520.842 159.634 526.432 144.772 526.232 141.597C526.032 138.423 512.782 118.525 512.782 118.525L527.522 86.4189L551.062 100.688L552.442 121.067C552.442 121.067 554.712 129.388 547.692 130.502L551.302 170.818L519.402 159.915" fill="#E09A63"/>
    <path d="M548.132 135.409C548.132 135.409 546.932 133.42 545.812 135.409L547.522 163.186L550.342 160.156L548.132 135.409Z" fill="#BF8454"/>
    <path d="M421 199C421 199 405 215.5 383.978 221.352C383.978 221.352 377.712 215.973 364.738 219.795C364.738 219.795 360.439 224.974 356.968 224.892C353.496 224.81 356.34 234.953 365.452 237.232C374.565 239.512 387.194 230.604 387.194 230.604C387.194 230.604 417.5 224 433 218L421 199Z" fill="url(#paint2_linear)"/>
    <path d="M563.122 317.762C563.122 317.762 569.192 235.728 578.152 227.904C578.152 227.904 591.072 261.1 581.712 274.103C581.712 274.103 585.802 282.561 597.272 286.898C597.272 286.898 612.702 269.878 612.042 254.022C611.382 238.165 616.002 223.366 601.892 192.182C587.782 160.997 581.582 162.689 550.202 160.148C550.202 160.148 532.792 164.268 522.112 155.923C522.112 155.923 462.5 158 421 199C421 199 422.5 215.5 433 218C433 218 460 214.5 487 199C487 199 498.5 221.5 504.052 312.358C503.782 313.465 504.092 314.603 504.972 315.477C506.882 317.361 510.022 321.121 510.112 325.594L563.122 317.762Z" fill="url(#paint3_linear)"/>
    <path d="M521.782 122.325C521.782 122.325 515.902 106.942 511.672 118.598C507.442 130.254 499.732 136.354 510.012 139.208C520.302 142.062 527.422 146.664 531.572 139.208C535.312 132.498 542.422 122.149 543.802 120.153C543.942 119.953 544.062 119.752 544.172 119.536C544.762 118.413 547.272 114.429 551.422 118.67C556.202 123.56 558.892 119.087 558.892 119.087C558.892 119.087 562.732 114.814 557.792 111.8C552.852 108.785 560.562 103.398 560.562 103.398C560.562 103.398 571.262 96.023 550.612 90.7802C549.932 90.6118 549.362 90.2511 549.022 89.754C548.332 88.76 546.912 87.0765 544.892 86.5634C543.872 86.3069 543.032 85.6977 542.802 84.8639C542.442 83.5492 542.342 81.3366 543.682 78.0338C546.122 72.0614 530.722 68.7586 527.202 73.1998C523.672 77.641 513.752 89.9545 533.832 94.3395C551.192 98.1314 541.882 111.014 539.042 114.429C538.552 115.014 538.152 115.64 537.842 116.297C535.802 120.538 527.712 135.857 521.782 122.325Z" fill="#5C3800"/>
    <path d="M555.112 478.182C555.112 478.182 573.312 494.728 558.972 494.808C544.632 494.888 508.332 494.415 508.332 494.415C508.332 494.415 495.772 484.186 506.552 480.619C517.332 477.052 542.152 476.811 542.152 476.811L555.112 478.182Z" fill="#2C0005"/>
    <path d="M503.183 481.252C503.183 481.252 519.183 492.259 514.253 498.039C513.723 498.664 512.813 499.017 511.873 499.017L451.453 498.977C450.383 498.977 449.433 498.431 449.063 497.63C447.933 495.185 446.293 489.902 450.673 486.094C455.613 481.789 503.183 481.252 503.183 481.252Z" fill="#250004"/>
    <path d="M566.982 321.522L563.382 315.229C563.382 315.229 529.682 322.756 505.682 316.207L505.632 316.527L504.972 315.477L476.482 482.679C476.482 482.679 496.662 492.507 515.642 484.9L531.662 368.106L527.702 477.132C527.702 477.132 550.452 485.693 558.952 478.085L567.592 368.106L568.452 327.181C568.502 325.225 568.002 323.293 566.982 321.522Z" fill="#C1BEBC"/>
    <path d="M18.25 305H10.7V275.6H1V269.3H27.95V275.6H18.25V305ZM26.9531 277.7H35.1031L40.2531 293.05C40.5198 293.783 40.7198 294.55 40.8531 295.35C40.9865 296.117 41.0865 296.933 41.1531 297.8H41.3031C41.4031 296.933 41.5365 296.117 41.7031 295.35C41.9031 294.55 42.1198 293.783 42.3531 293.05L47.4031 277.7H55.4031L43.8531 308.5C42.8198 311.333 41.3031 313.45 39.3031 314.85C37.3365 316.283 35.0531 317 32.4531 317C31.6198 317 30.8865 316.95 30.2531 316.85C29.6531 316.783 29.1198 316.7 28.6531 316.6V310.7C29.0198 310.767 29.4531 310.833 29.9531 310.9C30.4865 310.967 31.0365 311 31.6031 311C33.1698 311 34.4031 310.517 35.3031 309.55C36.2365 308.617 36.9198 307.483 37.3531 306.15L37.8031 304.8L26.9531 277.7ZM81.9199 283.3H72.9699V305H65.5199V283.3H56.5699V277.7H81.9199V283.3ZM123.671 277.7V305H116.221V283.3H106.321V305H98.8707V277.7H123.671ZM156.288 291.3C156.288 295.833 155.088 299.333 152.688 301.8C150.321 304.267 147.088 305.5 142.988 305.5C140.455 305.5 138.188 304.95 136.188 303.85C134.221 302.75 132.671 301.15 131.538 299.05C130.405 296.917 129.838 294.333 129.838 291.3C129.838 286.767 131.021 283.283 133.388 280.85C135.755 278.417 139.005 277.2 143.138 277.2C145.705 277.2 147.971 277.75 149.938 278.85C151.905 279.95 153.455 281.55 154.588 283.65C155.721 285.717 156.288 288.267 156.288 291.3ZM137.438 291.3C137.438 294 137.871 296.05 138.738 297.45C139.638 298.817 141.088 299.5 143.088 299.5C145.055 299.5 146.471 298.817 147.338 297.45C148.238 296.05 148.688 294 148.688 291.3C148.688 288.6 148.238 286.583 147.338 285.25C146.471 283.883 145.038 283.2 143.038 283.2C141.071 283.2 139.638 283.883 138.738 285.25C137.871 286.583 137.438 288.6 137.438 291.3ZM180.345 277.7H188.545L177.745 290.8L189.495 305H181.045L169.895 291.15V305H162.445V277.7H169.895V290.95L180.345 277.7ZM204.602 277.15C208.269 277.15 211.069 277.95 213.002 279.55C214.969 281.117 215.952 283.533 215.952 286.8V305H210.752L209.302 301.3H209.102C207.935 302.767 206.702 303.833 205.402 304.5C204.102 305.167 202.319 305.5 200.052 305.5C197.619 305.5 195.602 304.8 194.002 303.4C192.402 301.967 191.602 299.783 191.602 296.85C191.602 293.95 192.619 291.817 194.652 290.45C196.685 289.05 199.735 288.283 203.802 288.15L208.552 288V286.8C208.552 285.367 208.169 284.317 207.402 283.65C206.669 282.983 205.635 282.65 204.302 282.65C202.969 282.65 201.669 282.85 200.402 283.25C199.135 283.617 197.869 284.083 196.602 284.65L194.152 279.6C195.619 278.833 197.235 278.233 199.002 277.8C200.802 277.367 202.669 277.15 204.602 277.15ZM205.652 292.45C203.252 292.517 201.585 292.95 200.652 293.75C199.719 294.55 199.252 295.6 199.252 296.9C199.252 298.033 199.585 298.85 200.252 299.35C200.919 299.817 201.785 300.05 202.852 300.05C204.452 300.05 205.802 299.583 206.902 298.65C208.002 297.683 208.552 296.333 208.552 294.6V292.35L205.652 292.45ZM260.292 277.7V305H252.842V283.3H242.942V305H235.492V277.7H260.292ZM264.209 277.7H272.359L277.509 293.05C277.776 293.783 277.976 294.55 278.109 295.35C278.242 296.117 278.342 296.933 278.409 297.8H278.559C278.659 296.933 278.792 296.117 278.959 295.35C279.159 294.55 279.376 293.783 279.609 293.05L284.659 277.7H292.659L281.109 308.5C280.076 311.333 278.559 313.45 276.559 314.85C274.592 316.283 272.309 317 269.709 317C268.876 317 268.142 316.95 267.509 316.85C266.909 316.783 266.376 316.7 265.909 316.6V310.7C266.276 310.767 266.709 310.833 267.209 310.9C267.742 310.967 268.292 311 268.859 311C270.426 311 271.659 310.517 272.559 309.55C273.492 308.617 274.176 307.483 274.609 306.15L275.059 304.8L264.209 277.7ZM307.676 305.5C303.609 305.5 300.459 304.383 298.226 302.15C296.026 299.883 294.926 296.333 294.926 291.5C294.926 288.167 295.492 285.45 296.626 283.35C297.759 281.25 299.326 279.7 301.326 278.7C303.359 277.7 305.692 277.2 308.326 277.2C310.192 277.2 311.809 277.383 313.176 277.75C314.576 278.117 315.792 278.55 316.826 279.05L314.626 284.8C313.459 284.333 312.359 283.95 311.326 283.65C310.326 283.35 309.326 283.2 308.326 283.2C304.459 283.2 302.526 285.95 302.526 291.45C302.526 294.183 303.026 296.2 304.026 297.5C305.059 298.8 306.492 299.45 308.326 299.45C309.892 299.45 311.276 299.25 312.476 298.85C313.676 298.417 314.842 297.833 315.976 297.1V303.45C314.842 304.183 313.642 304.7 312.376 305C311.142 305.333 309.576 305.5 307.676 305.5ZM344.859 283.3H335.909V305H328.459V283.3H319.509V277.7H344.859V283.3ZM374.208 291.3C374.208 295.833 373.008 299.333 370.608 301.8C368.241 304.267 365.008 305.5 360.908 305.5C358.374 305.5 356.108 304.95 354.108 303.85C352.141 302.75 350.591 301.15 349.458 299.05C348.324 296.917 347.758 294.333 347.758 291.3C347.758 286.767 348.941 283.283 351.308 280.85C353.674 278.417 356.924 277.2 361.058 277.2C363.624 277.2 365.891 277.75 367.858 278.85C369.824 279.95 371.374 281.55 372.508 283.65C373.641 285.717 374.208 288.267 374.208 291.3ZM355.358 291.3C355.358 294 355.791 296.05 356.658 297.45C357.558 298.817 359.008 299.5 361.008 299.5C362.974 299.5 364.391 298.817 365.258 297.45C366.158 296.05 366.608 294 366.608 291.3C366.608 288.6 366.158 286.583 365.258 285.25C364.391 283.883 362.958 283.2 360.958 283.2C358.991 283.2 357.558 283.883 356.658 285.25C355.791 286.583 355.358 288.6 355.358 291.3Z" fill="black"/>
    <defs>
        <linearGradient id="paint0_linear" x1="339.989" y1="182.718" x2="349.479" y2="199.738" gradientUnits="userSpaceOnUse">
            <stop stop-color="#243EE9"/>
            <stop offset="0.824497" stop-color="white" stop-opacity="0"/>
        </linearGradient>
        <linearGradient id="paint1_linear" x1="592.014" y1="277.067" x2="567.313" y2="330.437" gradientUnits="userSpaceOnUse">
            <stop offset="0.0343" stop-color="#E09A63"/>
            <stop offset="0.4855" stop-color="#D08D58"/>
        </linearGradient>
        <linearGradient id="paint2_linear" x1="390.779" y1="275.453" x2="396.886" y2="300.691" gradientUnits="userSpaceOnUse">
            <stop offset="0.0343" stop-color="#E09A63"/>
            <stop offset="1" stop-color="#C48552"/>
        </linearGradient>
        <linearGradient id="paint3_linear" x1="511.669" y1="325.588" x2="511.669" y2="104.583" gradientUnits="userSpaceOnUse">
            <stop offset="0.2616" stop-color="#2050F0"/>
            <stop offset="0.6376" stop-color="#11A7E6"/>
        </linearGradient>
    </defs>
</svg>
