<svg width="355" height="229" viewBox="0 0 355 229" fill="none" xmlns="http://www.w3.org/2000/svg">
    <ellipse cx="238.5" cy="217.5" rx="46.5" ry="9.5" fill="#F5F5F5"/>
    <ellipse cx="89" cy="219.5" rx="69" ry="9.5" fill="#F5F5F5"/>
    <path d="M147.208 11.3122V133.27H342.917" stroke="#243EE9" stroke-width="4" stroke-miterlimit="10"/>
    <path d="M141.583 22.3502L147.091 7.36081L152.837 22.3502" stroke="#243EE9" stroke-width="4" stroke-miterlimit="10"/>
    <path d="M330.791 127.852L347.369 132.834L330.791 138.026" stroke="#243EE9" stroke-width="4" stroke-miterlimit="10"/>
    <path d="M300.974 97.4231L282.846 67.3438L259.484 97.4231L239.875 45.7809L225.459 88.066L181.591 4.64838L147.22 77.622" stroke="url(#paint0_linear)" stroke-width="4" stroke-miterlimit="10"/>
    <path d="M282.58 76.0414V82.7324" stroke="#243EE9" stroke-width="4" stroke-miterlimit="10"/>
    <path d="M282.398 90.8999V97.5945" stroke="#243EE9" stroke-width="4" stroke-miterlimit="10"/>
    <path d="M282.398 105.758V112.449" stroke="#243EE9" stroke-width="4" stroke-miterlimit="10"/>
    <path d="M240.504 76.0414V82.736" stroke="#243EE9" stroke-width="4" stroke-miterlimit="10"/>
    <path d="M181.685 76.0414V82.736" stroke="#243EE9" stroke-width="4" stroke-miterlimit="10"/>
    <path d="M240.504 61.183V67.8776" stroke="#243EE9" stroke-width="4" stroke-miterlimit="10"/>
    <path d="M181.685 61.183V67.8776" stroke="#243EE9" stroke-width="4" stroke-miterlimit="10"/>
    <path d="M282.398 120.617V127.308" stroke="#243EE9" stroke-width="4" stroke-miterlimit="10"/>
    <path d="M240.504 90.8999V97.5909" stroke="#243EE9" stroke-width="4" stroke-miterlimit="10"/>
    <path d="M181.685 90.8999V97.5909" stroke="#243EE9" stroke-width="4" stroke-miterlimit="10"/>
    <path d="M181.685 16.6077V23.2986" stroke="#243EE9" stroke-width="4" stroke-miterlimit="10"/>
    <path d="M240.504 105.758V112.453" stroke="#243EE9" stroke-width="4" stroke-miterlimit="10"/>
    <path d="M181.685 105.758V112.453" stroke="#243EE9" stroke-width="4" stroke-miterlimit="10"/>
    <path d="M181.685 31.4661V38.1607" stroke="#243EE9" stroke-width="4" stroke-miterlimit="10"/>
    <path d="M240.504 120.617V127.308" stroke="#243EE9" stroke-width="4" stroke-miterlimit="10"/>
    <path d="M181.685 120.617V127.308" stroke="#243EE9" stroke-width="4" stroke-miterlimit="10"/>
    <path d="M181.685 46.3245V53.0155" stroke="#243EE9" stroke-width="4" stroke-miterlimit="10"/>
    <path d="M272.187 117.341C272.187 117.341 268.638 126.666 264.421 129.344L259.094 135.247C259.094 135.247 259.981 140.372 260.111 140.408C260.245 140.444 264.493 140.408 264.493 140.408L265.554 137.509C265.925 136.494 266.628 135.584 267.59 134.871C270.728 132.533 277.939 126.865 279.031 123.303C280.432 118.726 272.187 117.341 272.187 117.341Z" fill="url(#paint1_linear)"/>
    <path d="M244.82 65.7715C244.82 65.7715 247.322 59.0526 247.233 57.6174C247.143 56.1823 241.213 47.1875 241.213 47.1875L247.81 32.6734L258.347 39.1241L258.965 48.3364C258.965 48.3364 259.981 52.0981 256.839 52.6018L258.455 70.827L244.176 65.8983" fill="#E09A63"/>
    <path d="M257.036 54.8197C257.036 54.8197 256.498 53.9209 255.997 54.8197L256.762 67.3769L258.025 66.007L257.036 54.8197Z" fill="#BF8454"/>
    <path d="M183.905 3.72843L181.072 1.39819L184.769 2.15199L187.379 4.21043L183.905 3.72843Z" fill="#192160"/>
    <path d="M190.038 3.34059L184.769 2.15192C184.769 2.15192 185.499 3.42394 183.905 3.72836L187.75 7.4611L191.3 6.39926L190.038 3.34059Z" fill="url(#paint2_linear)"/>
    <path d="M190.037 3.34064L211.419 11.4403C211.419 11.4403 213.5 15.4195 208.85 16.0283L187.75 7.46114C187.75 7.46114 191.38 5.72886 190.037 3.34064Z" fill="#1B2467"/>
    <path d="M195.687 45.4553C195.687 45.4553 191.967 25.911 195.154 18.2643C195.154 18.2643 191.672 15.9087 192.017 9.31303C192.017 9.31303 194.107 6.67837 193.641 5.04032C193.176 3.40226 198.646 3.58709 200.911 7.64961C203.176 11.7121 199.38 18.576 199.38 18.576C199.38 18.576 198.673 25.1572 205.49 41.0086L195.687 45.4553Z" fill="url(#paint3_linear)"/>
    <path d="M263.745 137.255C263.745 137.255 266.462 100.171 270.473 96.6336C270.473 96.6336 276.256 111.641 272.067 117.519C272.067 117.519 273.897 121.342 279.031 123.303C279.031 123.303 285.938 115.609 285.642 108.441C285.347 101.272 287.415 94.5824 281.099 80.485C274.784 66.3876 272.008 67.1523 257.962 66.0034C257.962 66.0034 250.169 67.8662 245.389 64.0936C245.389 64.0936 215.166 63.184 205.489 41.0123C205.489 41.0123 199.232 39.7221 195.691 45.4553C195.691 45.4553 197.58 68.2974 225.381 80.485C225.381 80.485 240.604 121.357 237.305 134.813C237.184 135.313 237.323 135.827 237.717 136.222C238.572 137.074 239.977 138.774 240.018 140.796L263.745 137.255Z" fill="url(#paint4_linear)"/>
    <path d="M245.241 48.9053C245.241 48.9053 242.609 41.9508 240.716 47.2202C238.822 52.4895 235.371 55.2473 239.973 56.5375C244.578 57.8276 247.765 59.9078 249.623 56.5375C251.297 53.5042 254.48 48.8256 255.097 47.9232C255.16 47.8326 255.214 47.742 255.263 47.6442C255.527 47.1368 256.65 45.3357 258.508 47.2528C260.648 49.4634 261.852 47.4412 261.852 47.4412C261.852 47.4412 263.571 45.5096 261.359 44.147C259.148 42.7844 262.599 40.349 262.599 40.349C262.599 40.349 267.389 37.0149 258.145 34.6448C257.841 34.5687 257.586 34.4057 257.434 34.181C257.125 33.7316 256.489 32.9705 255.585 32.7386C255.129 32.6226 254.753 32.3472 254.65 31.9703C254.489 31.376 254.444 30.3758 255.044 28.8827C256.136 26.1828 249.243 24.6897 247.667 26.6974C246.087 28.7051 241.647 34.2716 250.635 36.2539C258.405 37.9681 254.238 43.7918 252.967 45.3357C252.747 45.6002 252.568 45.8829 252.43 46.1801C251.516 48.0972 247.895 55.0227 245.241 48.9053Z" fill="#5C3800"/>
    <path d="M260.159 209.775C260.159 209.775 268.306 217.255 261.887 217.291C255.468 217.328 239.22 217.114 239.22 217.114C239.22 217.114 233.598 212.49 238.423 210.877C243.249 209.264 254.358 209.156 254.358 209.156L260.159 209.775Z" fill="#2C0005"/>
    <path d="M236.915 211.163C236.915 211.163 244.077 216.139 241.87 218.752C241.633 219.035 241.226 219.194 240.805 219.194L213.761 219.176C213.282 219.176 212.856 218.929 212.691 218.567C212.185 217.462 211.451 215.074 213.411 213.352C215.623 211.406 236.915 211.163 236.915 211.163Z" fill="#250004"/>
    <path d="M265.472 138.955L263.861 136.11C263.861 136.11 248.776 139.513 238.034 136.552L238.011 136.697L237.716 136.222L224.964 211.808C224.964 211.808 233.996 216.251 242.492 212.812L249.663 160.014L247.89 209.301C247.89 209.301 258.073 213.171 261.878 209.732L265.745 160.014L266.13 141.513C266.153 140.629 265.929 139.756 265.472 138.955Z" fill="#C1BEBC"/>
    <path d="M28.9924 150.608C29.5788 151.01 29.8474 151.637 29.7757 152.26C29.2431 156.678 25.9755 178.458 47.4026 181.039H69.3176C69.3176 181.039 73.2565 182.401 69.8055 183.046C66.5155 183.663 43.7098 183.496 41.5881 183.478C41.4718 183.478 41.3643 183.467 41.2524 183.445C39.6231 183.115 27.2557 180.057 26.5127 163.085C25.9487 150.361 27.8197 149.8 28.9924 150.608Z" fill="#C1BEBC"/>
    <path d="M46.1891 183.503L26.8882 219.479H29.1307L48.078 183.51L46.1891 183.503Z" fill="#C1BEBC"/>
    <path d="M60.356 183.452L63.2251 183.402L81.8994 219.479H79.3615L60.356 183.452Z" fill="#C1BEBC"/>
    <path d="M63.225 183.402L62.4507 183.416L80.5386 219.479H81.8993L63.225 183.402Z" fill="#989594"/>
    <path d="M48.0798 183.51L47.2473 183.503L27.8345 219.479H29.1325L48.0798 183.51Z" fill="#989594"/>
    <path d="M72.0352 102.619L75.7816 95.715L72.4156 90.6487L72.711 86.0353L76.2248 82.1866L86.6407 77.4319C86.6407 77.4319 102.195 101.376 84.3668 98.1975L75.9831 114.23L72.0352 102.619Z" fill="#E09A63"/>
    <path d="M112.701 155.765H127.803C128.864 155.765 129.607 154.66 128.806 154.101C125.628 151.884 120.923 149.662 113.511 154.185L112.701 155.765Z" fill="#E09A63"/>
    <path d="M60.7416 162.933C60.7416 162.933 77.7418 137.264 80.1007 136.88C80.1007 136.88 89.1917 153.032 106.071 155.711L113.51 155.769V154.181C113.51 154.181 101.411 143.168 96.8548 140.004C95.4403 139.022 94.272 137.83 93.3903 136.496C90.2436 131.738 84.0934 121.808 83.7622 116.499C83.7085 115.647 83.4757 114.81 83.0997 114.013C81.9315 111.53 78.9728 106.681 72.3884 102.459C72.1288 102.293 71.7618 102.274 71.4798 102.416C67.5363 104.402 40.362 119.572 34.8877 162.933H60.7416Z" fill="url(#paint5_linear)"/>
    <path d="M76.9322 84.1906C76.9322 84.1906 86.2962 80.9616 87.2586 78.4212C88.2209 75.8808 87.2586 78.4212 87.2586 78.4212L86.0948 76.5802L76.686 82.7628L76.9322 84.1906Z" fill="#BF8454"/>
    <path d="M70.7819 93.6819C72.8812 94.7546 80.5308 98.4149 74.7298 91.6597C74.3896 91.2611 74.1345 90.8189 73.9823 90.3514C73.4899 88.8402 72.7693 85.7345 75.6474 86.963C75.6474 86.963 77.0619 87.5827 77.684 89.6883C78.1943 91.4169 78.5032 89.8985 78.5972 89.3041C78.6195 89.17 78.5837 89.0359 78.4987 88.92C78.0242 88.2749 76.4307 85.9229 76.9858 83.9804C77.0395 83.792 77.1872 83.6362 77.3976 83.5492C79.9848 82.5127 97.9518 74.8443 86.9496 66.2264C86.9496 66.2264 82.6391 71.7711 76.8873 72.2966C76.8873 72.2966 68.0918 73.5868 69.4794 81.6864C69.4794 81.6864 60.1243 83.4078 70.4238 90.4312C70.4238 90.4312 71.7398 91.9569 70.6387 93.1129C70.4641 93.2941 70.5402 93.5587 70.7819 93.6819Z" fill="#121639"/>
    <path d="M75.7145 95.6063C75.7145 95.6063 79.3222 97.6285 84.3712 98.1975L83.0821 100.665C83.0821 100.665 76.4754 98.7592 75.2534 96.6935L75.7145 95.6063Z" fill="#BF8454"/>
    <path d="M34.8881 162.933C34.8881 162.933 25.9762 181.253 51.2079 181.18C76.4397 181.108 85.826 180.39 86.8018 181.68C87.7776 182.97 109.115 212.361 109.115 212.361V192.009C109.115 192.009 97.4281 169.859 88.928 169.572C80.4279 169.286 63.6962 169.645 63.6962 169.645C63.6962 169.645 58.8576 170.21 60.7465 162.937" fill="#00254D"/>
    <path d="M85.1943 155.511V162.933H91.5683H144.337V155.511H85.1943Z" fill="#C1BEBC"/>
    <path d="M138.143 162.933H99.7153V219.475H138.143V162.933Z" fill="#C1BEBC"/>
    <path d="M138.138 162.933V165.539L99.7153 164.876V162.933H138.138Z" fill="#989594"/>
    <defs>
        <linearGradient id="paint0_linear" x1="297.906" y1="51.1536" x2="145.602" y2="51.1536" gradientUnits="userSpaceOnUse">
            <stop stop-color="#38D5FE"/>
            <stop offset="1" stop-color="#243EE9"/>
        </linearGradient>
        <linearGradient id="paint1_linear" x1="276.678" y1="118.858" x2="265.44" y2="142.9" gradientUnits="userSpaceOnUse">
            <stop offset="0.0343" stop-color="#E09A63"/>
            <stop offset="0.4855" stop-color="#D08D58"/>
        </linearGradient>
        <linearGradient id="paint2_linear" x1="183.905" y1="4.80593" x2="191.298" y2="4.80593" gradientUnits="userSpaceOnUse">
            <stop offset="0.0343" stop-color="#E09A63"/>
            <stop offset="1" stop-color="#B0713E"/>
        </linearGradient>
        <linearGradient id="paint3_linear" x1="191.994" y1="24.7619" x2="205.487" y2="24.7619" gradientUnits="userSpaceOnUse">
            <stop offset="0.0343" stop-color="#E09A63"/>
            <stop offset="1" stop-color="#C48552"/>
        </linearGradient>
        <linearGradient id="paint4_linear" x1="240.714" y1="140.793" x2="240.714" y2="40.885" gradientUnits="userSpaceOnUse">
            <stop offset="0.2616" stop-color="#2252F2"/>
            <stop offset="0.6376" stop-color="#13A9E7"/>
        </linearGradient>
        <linearGradient id="paint5_linear" x1="51.5902" y1="108.265" x2="69.4183" y2="168.764" gradientUnits="userSpaceOnUse">
            <stop offset="1.79361e-07" stop-color="#01ACFE"/>
            <stop offset="1" stop-color="#243EE9"/>
        </linearGradient>
    </defs>
</svg>