<svg width="794" height="546" viewBox="0 0 794 546" fill="none" xmlns="http://www.w3.org/2000/svg">
    <path d="M332.565 23.7409V293.521H769.797" stroke="#243EE9" stroke-width="7.6948" stroke-miterlimit="10"/>
    <path d="M320 48.1576L332.305 15L345.141 48.1576" stroke="#243EE9" stroke-width="7.6948" stroke-miterlimit="10"/>
    <path d="M743.555 281.078L780.591 292.098L743.555 303.584" stroke="#243EE9" stroke-width="7.6948" stroke-miterlimit="10"/>
    <path d="M676.091 214.225L635.591 147.687L583.399 214.225L539.591 99.9883L507.385 193.526L409.379 9L332.591 170.423" stroke="url(#paint0_linear)" stroke-width="7.6948" stroke-miterlimit="10"/>
    <path d="M635 166.927V181.728" stroke="#243EE9" stroke-width="7.6948" stroke-miterlimit="10"/>
    <path d="M634.591 199.795V214.604" stroke="#243EE9" stroke-width="7.6948" stroke-miterlimit="10"/>
    <path d="M634.591 232.663V247.464" stroke="#243EE9" stroke-width="7.6948" stroke-miterlimit="10"/>
    <path d="M541 166.927V181.736" stroke="#243EE9" stroke-width="7.6948" stroke-miterlimit="10"/>
    <path d="M409.591 166.927V181.736" stroke="#243EE9" stroke-width="7.6948" stroke-miterlimit="10"/>
    <path d="M541 134.059V148.868" stroke="#243EE9" stroke-width="7.6948" stroke-miterlimit="10"/>
    <path d="M409.591 134.059V148.868" stroke="#243EE9" stroke-width="7.6948" stroke-miterlimit="10"/>
    <path d="M634.591 265.531V280.332" stroke="#243EE9" stroke-width="7.6948" stroke-miterlimit="10"/>
    <path d="M541 199.795V214.596" stroke="#243EE9" stroke-width="7.6948" stroke-miterlimit="10"/>
    <path d="M409.591 199.795V214.596" stroke="#243EE9" stroke-width="7.6948" stroke-miterlimit="10"/>
    <path d="M409.591 35.4547V50.2557" stroke="#243EE9" stroke-width="7.6948" stroke-miterlimit="10"/>
    <path d="M541 232.663V247.472" stroke="#243EE9" stroke-width="7.6948" stroke-miterlimit="10"/>
    <path d="M409.591 232.663V247.472" stroke="#243EE9" stroke-width="7.6948" stroke-miterlimit="10"/>
    <path d="M409.591 68.3228V83.1317" stroke="#243EE9" stroke-width="7.6948" stroke-miterlimit="10"/>
    <path d="M541 265.531V280.332" stroke="#243EE9" stroke-width="7.6948" stroke-miterlimit="10"/>
    <path d="M409.591 265.531V280.332" stroke="#243EE9" stroke-width="7.6948" stroke-miterlimit="10"/>
    <path d="M409.591 101.191V115.992" stroke="#243EE9" stroke-width="7.6948" stroke-miterlimit="10"/>
    <ellipse cx="538" cy="514.5" rx="116" ry="24.5" fill="#F5F5F5"/>
    <ellipse cx="188.5" cy="521.5" rx="188.5" ry="24.5" fill="#F5F5F5"/>
    <path d="M631 33L793 33" stroke="url(#paint1_linear)" stroke-width="7.6948" stroke-miterlimit="10"/>
    <path d="M793 59H631" stroke="url(#paint2_linear)" stroke-width="7.6948" stroke-miterlimit="10"/>
    <path d="M793 85H631" stroke="url(#paint3_linear)" stroke-width="7.6948" stroke-miterlimit="10"/>
    <path d="M793 111H631" stroke="url(#paint4_linear)" stroke-width="7.6948" stroke-miterlimit="10"/>
    <path d="M615.56 293.475C615.56 293.475 607.63 314.101 598.21 320.026L586.31 333.085C586.31 333.085 588.29 344.42 588.58 344.5C588.88 344.58 598.37 344.5 598.37 344.5L600.74 338.087C601.57 335.842 603.14 333.83 605.29 332.251C612.3 327.08 628.41 314.542 630.85 306.662C633.98 296.537 615.56 293.475 615.56 293.475Z" fill="url(#paint5_linear)"/>
    <path d="M554.42 179.399C554.42 179.399 560.01 164.536 559.81 161.361C559.61 158.187 546.36 138.29 546.36 138.29L561.1 106.183L584.64 120.453L586.02 140.831C586.02 140.831 588.29 149.152 581.27 150.266L584.88 190.582L552.98 179.679" fill="#E09A63"/>
    <path d="M581.71 155.173C581.71 155.173 580.51 153.184 579.39 155.173L581.1 182.95L583.92 179.92L581.71 155.173Z" fill="#BF8454"/>
    <path d="M418.33 42.1547L412 37L420.26 38.6675L426.09 43.2209L418.33 42.1547Z" fill="#192160"/>
    <path d="M432.03 41.2969L420.26 38.6674C420.26 38.6674 421.89 41.4813 418.33 42.1547L426.92 50.4118L434.85 48.0629L432.03 41.2969Z" fill="url(#paint6_linear)"/>
    <path d="M432.03 41.2969L479.8 59.2139C479.8 59.2139 484.45 68.0162 474.06 69.363L426.92 50.4117C426.92 50.4117 435.03 46.5798 432.03 41.2969Z" fill="#1B2467"/>
    <path d="M444.65 134.458C444.65 134.458 436.34 91.2242 443.46 74.3092C443.46 74.3092 435.68 69.0984 436.45 54.5082C436.45 54.5082 441.12 48.6802 440.08 45.0567C439.04 41.4332 451.26 41.842 456.32 50.8286C461.38 59.8152 452.9 74.9986 452.9 74.9986C452.9 74.9986 451.32 89.5567 466.55 124.621L444.65 134.458Z" fill="url(#paint7_linear)"/>
    <path d="M596.7 337.526C596.7 337.526 602.77 255.492 611.73 247.668C611.73 247.668 624.65 280.865 615.29 293.868C615.29 293.868 619.38 302.325 630.85 306.662C630.85 306.662 646.28 289.643 645.62 273.786C644.96 257.929 649.58 243.131 635.47 211.946C621.36 180.761 615.16 182.453 583.78 179.912C583.78 179.912 566.37 184.032 555.69 175.687C555.69 175.687 488.17 173.675 466.55 124.629C466.55 124.629 452.57 121.775 444.66 134.458C444.66 134.458 448.88 184.986 510.99 211.946C510.99 211.946 545 302.357 537.63 332.123C537.36 333.229 537.67 334.367 538.55 335.241C540.46 337.125 543.6 340.885 543.69 345.358L596.7 337.526Z" fill="url(#paint8_linear)"/>
    <path d="M555.36 142.089C555.36 142.089 549.48 126.706 545.25 138.362C541.02 150.018 533.31 156.118 543.59 158.972C553.88 161.826 561 166.428 565.15 158.972C568.89 152.263 576 141.913 577.38 139.917C577.52 139.717 577.64 139.516 577.75 139.3C578.34 138.177 580.85 134.193 585 138.434C589.78 143.324 592.47 138.851 592.47 138.851C592.47 138.851 596.31 134.578 591.37 131.564C586.43 128.549 594.14 123.162 594.14 123.162C594.14 123.162 604.84 115.787 584.19 110.544C583.51 110.376 582.94 110.015 582.6 109.518C581.91 108.524 580.49 106.841 578.47 106.327C577.45 106.071 576.61 105.462 576.38 104.628C576.02 103.313 575.92 101.101 577.26 97.7978C579.7 91.8255 564.3 88.5226 560.78 92.9638C557.25 97.405 547.33 109.718 567.41 114.104C584.77 117.895 575.46 130.778 572.62 134.193C572.13 134.778 571.73 135.404 571.42 136.061C569.38 140.302 561.29 155.621 555.36 142.089Z" fill="#5C3800"/>
    <path d="M588.69 497.946C588.69 497.946 606.89 514.492 592.55 514.572C578.21 514.652 541.91 514.179 541.91 514.179C541.91 514.179 529.35 503.95 540.13 500.383C550.91 496.816 575.73 496.575 575.73 496.575L588.69 497.946Z" fill="#2C0005"/>
    <path d="M536.76 501.016C536.76 501.016 552.76 512.023 547.83 517.803C547.3 518.428 546.39 518.781 545.45 518.781L485.03 518.741C483.96 518.741 483.01 518.196 482.64 517.394C481.51 514.949 479.87 509.666 484.25 505.858C489.19 501.553 536.76 501.016 536.76 501.016Z" fill="#250004"/>
    <path d="M600.56 341.286L596.96 334.993C596.96 334.993 563.26 342.52 539.26 335.971L539.21 336.291L538.55 335.241L510.06 502.443C510.06 502.443 530.24 512.271 549.22 504.664L565.24 387.87L561.28 496.896C561.28 496.896 584.03 505.457 592.53 497.85L601.17 387.87L602.03 346.945C602.08 344.989 601.58 343.057 600.56 341.286Z" fill="#C1BEBC"/>
    <path d="M67.7712 367.063C69.0812 367.953 69.6812 369.34 69.5212 370.719C68.3312 380.491 61.0312 428.671 108.901 434.379H157.861C157.861 434.379 166.661 437.393 158.951 438.82C151.601 440.183 100.651 439.814 95.9112 439.774C95.6512 439.774 95.4112 439.75 95.1612 439.702C91.5212 438.972 63.8912 432.206 62.2312 394.664C60.9712 366.518 65.1512 365.276 67.7712 367.063Z" fill="#C1BEBC"/>
    <path d="M106.191 439.83L63.0713 519.41H68.0813L110.411 439.846L106.191 439.83Z" fill="#C1BEBC"/>
    <path d="M137.841 439.718L144.251 439.605L185.971 519.41H180.301L137.841 439.718Z" fill="#C1BEBC"/>
    <path d="M144.251 439.605L142.521 439.637L182.931 519.41H185.971L144.251 439.605Z" fill="#989594"/>
    <path d="M110.411 439.846L108.551 439.83L65.1812 519.41H68.0812L110.411 439.846Z" fill="#989594"/>
    <path d="M163.931 260.908L172.301 245.636L164.781 234.429L165.441 224.224L173.291 215.71L196.561 205.192C196.561 205.192 231.311 258.158 191.481 251.127L172.751 286.593L163.931 260.908Z" fill="#E09A63"/>
    <path d="M254.781 378.471H288.521C290.891 378.471 292.551 376.026 290.761 374.791C283.661 369.885 273.151 364.971 256.591 374.976L254.781 378.471Z" fill="#E09A63"/>
    <path d="M138.701 394.328C138.701 394.328 176.681 337.546 181.951 336.696C181.951 336.696 202.261 372.426 239.971 378.351L256.591 378.479V374.968C256.591 374.968 229.561 350.605 219.381 343.607C216.221 341.434 213.611 338.797 211.641 335.847C204.611 325.321 190.871 303.355 190.131 291.611C190.011 289.727 189.491 287.875 188.651 286.112C186.041 280.62 179.431 269.894 164.721 260.555C164.141 260.186 163.321 260.146 162.691 260.459C153.881 264.852 93.1714 298.409 80.9414 394.328H138.701Z" fill="url(#paint9_linear)"/>
    <path d="M174.871 220.143C174.871 220.143 195.791 213 197.941 207.381C200.091 201.761 197.941 207.381 197.941 207.381L195.341 203.308L174.321 216.985L174.871 220.143Z" fill="#BF8454"/>
    <path d="M161.131 241.139C165.821 243.512 182.911 251.608 169.951 236.665C169.191 235.784 168.621 234.806 168.281 233.771C167.181 230.428 165.571 223.558 172.001 226.276C172.001 226.276 175.161 227.647 176.551 232.304C177.691 236.128 178.381 232.769 178.591 231.455C178.641 231.158 178.561 230.861 178.371 230.605C177.311 229.178 173.751 223.975 174.991 219.678C175.111 219.261 175.441 218.917 175.911 218.724C181.691 216.432 221.831 199.468 197.251 180.405C197.251 180.405 187.621 192.67 174.771 193.833C174.771 193.833 155.121 196.687 158.221 214.604C158.221 214.604 137.321 218.412 160.331 233.948C160.331 233.948 163.271 237.323 160.811 239.88C160.421 240.281 160.591 240.866 161.131 241.139Z" fill="#121639"/>
    <path d="M172.151 245.395C172.151 245.395 180.211 249.869 191.491 251.127L188.611 256.587C188.611 256.587 173.851 252.37 171.121 247.8L172.151 245.395Z" fill="#BF8454"/>
    <path d="M80.9413 394.328C80.9413 394.328 61.0313 434.851 117.401 434.691C173.771 434.531 194.741 432.944 196.921 435.797C199.101 438.651 246.771 503.666 246.771 503.666V458.645C246.771 458.645 220.661 409.647 201.671 409.014C182.681 408.381 145.301 409.174 145.301 409.174C145.301 409.174 134.491 410.425 138.711 394.336" fill="#00254D"/>
    <path d="M193.331 377.91V394.328H207.571H325.461V377.91H193.331Z" fill="#C1BEBC"/>
    <path d="M311.621 394.328H225.771V519.402H311.621V394.328Z" fill="#C1BEBC"/>
    <path d="M311.611 394.328V400.092L225.771 398.624V394.328H311.611Z" fill="#989594"/>
    <defs>
        <linearGradient id="paint0_linear" x1="669.237" y1="111.873" x2="328.977" y2="111.873" gradientUnits="userSpaceOnUse">
            <stop stop-color="#38D5FE"/>
            <stop offset="1" stop-color="#243EE9"/>
        </linearGradient>
        <linearGradient id="paint1_linear" x1="793.626" y1="33.2499" x2="630.804" y2="33.2499" gradientUnits="userSpaceOnUse">
            <stop stop-color="#243EE9"/>
            <stop offset="1" stop-color="#38D5FE"/>
        </linearGradient>
        <linearGradient id="paint2_linear" x1="630.872" y1="59.2" x2="793.41" y2="59.1997" gradientUnits="userSpaceOnUse">
            <stop stop-color="#38D5FE"/>
            <stop offset="1" stop-color="#243EE9"/>
        </linearGradient>
        <linearGradient id="paint3_linear" x1="795.903" y1="84.6002" x2="630.872" y2="84.6002" gradientUnits="userSpaceOnUse">
            <stop stop-color="#243EE9"/>
            <stop offset="1" stop-color="#38D5FE"/>
        </linearGradient>
        <linearGradient id="paint4_linear" x1="630.872" y1="111" x2="793.41" y2="111" gradientUnits="userSpaceOnUse">
            <stop stop-color="#38D5FE"/>
            <stop offset="1" stop-color="#243EE9"/>
        </linearGradient>
        <linearGradient id="paint5_linear" x1="625.592" y1="296.831" x2="600.891" y2="350.201" gradientUnits="userSpaceOnUse">
            <stop offset="0.0343" stop-color="#E09A63"/>
            <stop offset="0.4855" stop-color="#D08D58"/>
        </linearGradient>
        <linearGradient id="paint6_linear" x1="418.329" y1="44.5383" x2="434.846" y2="44.5383" gradientUnits="userSpaceOnUse">
            <stop offset="0.0343" stop-color="#E09A63"/>
            <stop offset="1" stop-color="#B0713E"/>
        </linearGradient>
        <linearGradient id="paint7_linear" x1="436.4" y1="88.6822" x2="466.544" y2="88.6822" gradientUnits="userSpaceOnUse">
            <stop offset="0.0343" stop-color="#E09A63"/>
            <stop offset="1" stop-color="#C48552"/>
        </linearGradient>
        <linearGradient id="paint8_linear" x1="545.247" y1="345.352" x2="545.247" y2="124.348" gradientUnits="userSpaceOnUse">
            <stop offset="0.2616" stop-color="#2151F1"/>
            <stop offset="0.6376" stop-color="#12A8E6"/>
        </linearGradient>
        <linearGradient id="paint9_linear" x1="118.256" y1="273.397" x2="157.366" y2="407.436" gradientUnits="userSpaceOnUse">
            <stop offset="1.79361e-07" stop-color="#01ACFE"/>
            <stop offset="1" stop-color="#243EE9"/>
        </linearGradient>
    </defs>
</svg>