<svg width="22" height="22" viewBox="0 0 22 22" fill="none" xmlns="http://www.w3.org/2000/svg">
    <path d="M13.5991 14L12.919 13.2668L13.5991 14ZM19.8144 21.2279C20.2164 21.6066 20.8493 21.5877 21.2279 21.1856C21.6066 20.7836 21.5877 20.1507 21.1856 19.7721L19.8144 21.2279ZM8.5 15C4.91015 15 2 12.0899 2 8.5H0C0 13.1944 3.80558 17 8.5 17V15ZM2 8.5C2 4.91015 4.91015 2 8.5 2V0C3.80558 0 0 3.80558 0 8.5H2ZM8.5 2C12.0899 2 15 4.91015 15 8.5H17C17 3.80558 13.1944 0 8.5 0V2ZM15 8.5C15 10.3833 14.2003 12.0784 12.919 13.2668L14.2791 14.7332C15.9513 13.1821 17 10.9628 17 8.5H15ZM12.919 13.2668C11.7585 14.3433 10.2071 15 8.5 15V17C10.7311 17 12.7634 16.1391 14.2791 14.7332L12.919 13.2668ZM12.9134 14.7279L19.8144 21.2279L21.1856 19.7721L14.2847 13.2721L12.9134 14.7279Z" fill="#333333"/>
</svg>